<svg width="56" height="62" viewBox="0 0 56 62" fill="none" xmlns="http://www.w3.org/2000/svg">
<g id="Frame" clip-path="url(#clip0_29_1684)">
<g id="Group">
<path id="Vector" d="M4.77752 23.4701C4.77752 23.1979 4.77752 22.9258 4.77752 22.6839C4.77752 22.563 4.74728 22.5025 4.62633 22.563C4.56585 22.5932 4.50538 22.6234 4.4449 22.6839C3.93086 23.1375 3.32611 23.1072 2.72136 23.1072C2.60041 23.1072 2.53994 23.0468 2.5097 22.9258C2.41899 22.4722 2.11661 22.2908 1.69329 22.2303C1.63281 22.2303 1.60257 22.2303 1.5421 22.2303C1.17925 22.1699 1.14901 22.1699 1.33043 21.8373C1.39091 21.6256 1.33043 21.4744 1.20948 21.293C0.876871 20.8092 0.514021 20.2951 0.211645 19.7811C0.120933 19.6602 0.090695 19.509 0.0302199 19.388C-0.0302552 19.2671 -0.0604928 19.1461 0.120933 19.0554C0.181408 19.0252 0.181408 18.9042 0.181408 18.8135C0.15117 18.4507 0.211645 18.1785 0.604733 18.0273C0.997821 17.8762 1.20948 17.604 1.0583 17.1202C0.967584 16.9086 0.997821 16.6969 1.26996 16.5759C1.36067 16.5155 1.42115 16.3643 1.42115 16.2433C1.45138 15.7595 1.66305 15.4269 2.08637 15.2153C2.23756 15.1245 2.38875 15.0338 2.53994 14.9129C2.78184 14.7315 3.02374 14.6407 3.29588 14.671C3.38659 14.671 3.50754 14.6105 3.59825 14.5803C3.68896 14.55 3.74944 14.5198 3.84015 14.5198C4.05181 14.5198 4.23324 14.4896 4.38443 14.3081C4.53561 14.1267 5.07989 14.0965 5.26132 14.2174C5.56369 14.3988 5.6544 14.3686 5.74512 14.036C5.8963 13.1591 6.04749 12.3125 6.22892 11.4356C6.31963 10.9215 6.44058 10.4377 6.50106 9.9237C6.56153 9.4399 6.44058 8.98634 6.01725 8.65373C5.44274 8.20017 5.38227 7.9885 5.6544 7.20233C5.68464 7.11162 5.80559 7.02091 5.8963 6.99067C6.10797 6.93019 6.34987 6.93019 6.59177 6.89995C6.71272 6.89995 6.83367 6.89995 6.83367 6.74877C6.83367 6.59758 6.80343 6.44639 6.62201 6.41616C6.44058 6.38592 6.28939 6.35568 6.10797 6.35568C5.89631 6.35568 5.80559 6.26497 5.80559 6.05331C5.83583 5.17642 5.71488 5.29737 6.53129 5.26713C6.92438 5.26713 7.31747 5.26713 7.68032 5.23689C7.83151 5.23689 7.9827 5.26713 8.10365 5.08571C8.16412 4.96476 8.28507 4.995 8.37578 5.11594C8.55721 5.32761 8.64792 5.32761 8.82935 5.08571C8.88982 4.995 8.98053 4.90428 9.07125 4.81357C9.1922 4.69262 9.31315 4.66238 9.4341 4.81357C9.64576 5.05547 9.82719 5.26713 9.79695 5.62998C9.76671 5.96259 9.79695 5.96259 10.1296 6.11378C10.2807 6.17426 10.4319 6.35568 10.5226 6.50687C10.825 6.86972 11.0669 6.89995 11.4298 6.59758C11.46 6.56734 11.4903 6.53711 11.5205 6.53711C11.7926 6.32544 11.9136 6.35568 12.0345 6.65806C12.1252 6.89995 12.216 6.93019 12.3369 6.74877C12.6998 6.29521 13.2138 6.05331 13.7278 5.78117C13.9093 5.69046 14.0302 5.56951 14.0302 5.32761C14.0302 5.08571 14.1512 4.995 14.3931 4.90428C14.6047 4.84381 14.8164 4.66238 14.9978 4.54143C15.028 4.5112 15.0583 4.45072 15.0583 4.42048C14.9978 4.39025 14.9676 4.36001 14.9071 4.36001C14.7861 4.36001 14.635 4.32977 14.514 4.32977C14.3023 4.32977 14.2116 4.2693 14.1512 4.05763C14.0604 3.57383 13.8185 3.09004 13.9093 2.576C13.9093 2.48529 13.8185 2.39457 13.7581 2.3341C13.6069 2.18291 13.4557 2.06196 13.3045 1.91077C13.2138 1.82006 13.2138 1.69911 13.3952 1.72935C13.6976 1.75959 14.0302 1.63864 14.2419 1.97125C14.2721 2.03172 14.3931 2.03172 14.4838 2.03172C14.6652 2.06196 14.8769 2.06196 15.0583 2.06196C15.3002 2.06196 15.4816 2.06196 15.5723 2.3341C15.6026 2.39457 15.6933 2.45505 15.784 2.51552C15.8747 2.576 15.9654 2.54576 15.9654 2.39457C15.9956 2.21315 15.8747 1.97125 16.0864 1.8503C16.2375 1.75959 16.419 1.72935 16.6004 1.72935C17.4773 1.66887 18.1425 1.18508 18.838 0.701276C18.9892 0.610564 19.0799 0.489614 19.0194 0.277952C18.9892 0.247714 18.9892 0.157002 19.0194 0.126764C19.2311 -0.0848978 19.473 0.0662894 19.7149 0.036052C19.8661 0.00581452 19.9568 0.0965269 19.9568 0.247714C19.9265 0.489614 19.9265 0.731513 19.8661 0.943176C19.8056 1.1246 19.8661 1.18508 20.0172 1.21531C20.1684 1.24555 20.3499 1.18508 20.4103 1.39674C20.501 1.66887 20.6522 1.94101 20.5313 2.24339C20.4708 2.42481 20.3499 2.576 20.2894 2.78766C20.1987 3.12027 20.0777 3.45288 20.0172 3.7855C19.987 3.96692 20.0777 4.14835 20.1382 4.32977C20.1987 4.5112 20.2894 4.69262 20.2894 4.87405C20.2894 5.08571 20.3801 5.2369 20.5615 5.35784C20.7429 5.47879 20.9244 5.62998 21.1058 5.78117C21.4384 6.08354 21.771 6.08354 22.1641 5.87188C22.5874 5.62998 23.041 5.41832 23.4643 5.14618C23.7365 4.995 23.9784 4.93452 24.2807 4.96476C24.6738 5.02523 25.0367 5.05547 25.4298 5.05547C25.6717 5.08571 25.7019 4.995 25.6414 4.78333C25.6112 4.7531 25.5809 4.69262 25.5809 4.66238C25.46 4.32977 25.5205 4.23906 25.8833 4.20882C26.2159 4.17858 26.5486 4.17858 26.8812 4.11811C27.1533 4.05763 27.365 4.14835 27.5766 4.29953C27.7581 4.45072 27.9697 4.63215 28.2116 4.57167C28.3628 4.54143 28.514 4.54143 28.6047 4.48096C28.9373 4.29953 29.2397 4.32977 29.5723 4.48096C29.6025 4.5112 29.663 4.54143 29.6933 4.57167C29.9654 4.69262 30.0863 4.66238 30.2073 4.39025C30.5701 3.69478 30.933 2.99932 31.3261 2.30386C31.4773 2.03172 31.6587 1.75959 31.8401 1.51769C32.0518 1.21531 32.203 1.21531 32.4449 1.51769C32.6565 1.78982 32.8077 2.12244 32.7775 2.48529C32.717 3.0598 32.838 3.57383 33.0799 4.11811C33.1706 4.32977 33.2915 4.45072 33.5334 4.42048C33.5939 4.42048 33.6544 4.42048 33.7149 4.45072C33.866 4.48096 33.9567 4.57167 33.8963 4.7531C33.8056 5.08571 33.8358 5.11594 34.1079 5.26713C34.1684 5.29737 34.2591 5.35784 34.3196 5.38808C34.622 5.59974 34.6522 5.72069 34.5313 6.05331C34.501 6.11378 34.4708 6.17426 34.4708 6.23473C34.3801 6.56734 34.1382 6.71853 33.8358 6.86972C33.3822 7.08138 33.0194 7.47447 32.6263 7.80708C32.5658 7.86755 32.5658 8.01874 32.5961 8.07922C32.6868 8.20017 32.8077 8.13969 32.8984 8.04898C33.1706 7.77684 33.4125 7.47447 33.6544 7.17209C33.8963 6.86972 33.9567 6.89995 34.1987 7.20233C34.2591 7.29304 34.4103 7.32328 34.5313 7.35352C34.6825 7.38375 34.7732 7.44423 34.8941 7.56518C35.1058 7.77684 35.257 8.13969 35.6501 8.13969C35.8617 8.13969 36.1036 8.20017 36.3153 8.26064C36.3758 8.29088 36.4967 8.38159 36.4967 8.44207C36.4967 8.74444 36.4967 9.04681 36.2548 9.28871C36.0129 9.56085 35.771 9.83299 35.5291 10.1051C35.4686 10.1958 35.3779 10.2865 35.3477 10.3773C35.3174 10.468 35.3174 10.5587 35.3174 10.6494C35.4082 10.6192 35.4989 10.6192 35.5593 10.5587C35.771 10.3168 35.9524 10.0749 36.1641 9.83299C36.3455 9.62133 36.5572 9.40966 36.7386 9.198C37.2224 8.68396 37.7969 8.65373 38.4017 8.89563C39.1576 9.198 39.8833 9.56085 40.609 9.89346C40.8207 9.98418 41.0021 10.0447 41.1835 9.83299C41.3045 9.71204 41.4254 9.74228 41.5161 9.86322C41.7883 10.2865 42.0302 10.7401 42.3023 11.1634C42.393 11.2844 42.3023 11.3751 42.2418 11.496C42.1209 11.617 42.0302 11.7682 41.9395 11.9194C41.9395 11.9496 41.9395 12.0101 41.9697 12.0101C41.9999 12.0403 42.0302 12.0101 42.0604 12.0101C42.1209 11.9798 42.1511 11.9194 42.1814 11.8891C42.3628 11.5868 42.6349 11.4658 42.9675 11.4658C43.2397 11.4658 43.5118 11.4356 43.7537 11.4356C44.0863 11.4356 44.3887 11.5263 44.6004 11.7682C44.7516 11.9496 44.9632 12.0101 45.1749 12.0101C45.2958 12.0101 45.447 12.0101 45.568 12.0101C45.7192 12.0101 45.8401 12.0403 45.9308 12.1613C46.1122 12.3729 46.3844 12.4032 46.6565 12.3427C47.2613 12.252 47.866 12.2217 48.4405 12.131C48.7127 12.1008 48.9243 12.1915 49.136 12.3427C50.285 13.2498 51.4341 14.1267 52.5831 15.0036C52.8552 15.2153 53.1274 15.3362 53.46 15.306C53.8228 15.306 54.1857 15.3664 54.5485 15.4269C54.8509 15.4572 55.0323 15.6688 55.1533 15.941C55.5766 16.9993 55.879 18.0878 55.9092 19.2066C55.9394 20.0835 55.6975 20.9301 55.244 21.6861C54.7299 22.5932 54.0647 23.4096 53.2483 24.1353C52.704 24.6191 52.3412 25.2541 52.069 25.8891C51.9481 26.1915 51.8271 26.4938 51.6457 26.766C51.3433 27.28 50.9805 27.7033 50.406 27.915C50.3153 27.9452 50.2246 28.0662 50.1943 28.1569C50.1338 29.2454 50.0431 30.3642 50.0129 31.4528C50.0129 31.8156 50.0129 32.118 49.9222 32.4808C49.8315 32.8437 49.8315 33.2368 49.8012 33.6299C49.771 33.8718 49.7407 34.1137 49.7407 34.3556C49.7407 34.8696 49.5291 35.2929 49.136 35.6255C48.8639 35.8674 48.7429 36.1698 48.7731 36.5327C48.8034 36.8955 48.8034 37.2886 48.8336 37.6515C48.8639 37.8631 48.7731 38.0143 48.6522 38.1655C48.4405 38.4376 48.3196 38.7702 48.1382 39.0726C48.0474 39.1936 48.0172 39.3447 47.8963 39.4657C47.3217 40.1612 47.0194 40.9473 47.1101 41.8847C47.1403 42.2475 47.1101 42.2475 46.7472 42.2778C46.1727 42.308 45.7796 42.5499 45.5982 43.0942C45.5377 43.2454 45.447 43.3059 45.3261 43.3361C44.6608 43.457 43.9654 43.578 43.3002 43.6989C42.5442 43.8199 41.879 44.1525 41.2138 44.5154C41.0626 44.6061 41.0928 44.7572 41.0928 44.9084C41.0928 44.9991 41.0323 45.1201 41.0323 45.2108C40.9416 45.1806 40.8207 45.1503 40.73 45.0899C40.0043 44.6061 40.0647 44.6968 39.5205 45.1503C38.6738 45.8156 37.8574 46.5413 37.041 47.2367C37.0107 47.267 36.9805 47.2972 36.9503 47.2972C36.4665 47.6903 36.1943 48.1438 36.2246 48.8091C36.2548 49.2929 36.1943 49.8069 36.1641 50.2907C36.1339 50.5628 36.2246 50.7745 36.4362 50.9559C36.6781 51.1374 36.6781 51.2281 36.406 51.3792C36.1339 51.5304 36.0129 51.7421 36.0734 52.0142C36.0734 52.0445 36.0734 52.0747 36.0734 52.1352C36.1641 52.7399 35.9827 53.1633 35.4384 53.5564C34.6522 54.1006 34.1987 54.9775 33.866 55.8544C33.8056 55.9753 33.8358 56.1265 33.8056 56.2475C33.7753 56.5499 33.6846 56.7615 33.4729 56.9732C32.7775 57.6082 32.1123 58.2734 31.4168 58.9084C31.1144 59.1805 30.9028 59.4829 30.8423 59.876C30.7213 60.511 30.419 61.025 29.9352 61.4181C29.784 61.539 29.6933 61.6902 29.5723 61.8112C29.4514 61.9321 29.3002 61.9624 29.149 61.9321C28.9676 61.8717 29.028 61.7205 29.028 61.5995C29.028 61.4786 29.028 61.3576 29.028 61.2367C28.9978 60.9041 29.0583 60.6319 29.3909 60.4505C29.663 60.2691 29.663 60.1481 29.4211 59.9365C29.1187 59.6946 28.9071 59.3922 28.7257 59.0293C28.6652 58.8781 28.514 58.7572 28.393 58.6665C28.1511 58.5153 27.9395 58.3641 27.7581 58.1524C27.6673 58.0315 27.4859 58.0013 27.3347 57.971C27.1231 57.9105 26.9416 57.8198 26.8207 57.6384C26.6695 57.3965 26.4881 57.2151 26.3067 56.9732C26.2159 56.8522 26.1555 56.822 26.0648 56.9732C25.974 57.0941 25.974 57.3058 25.7321 57.2756C25.4902 57.2453 25.5507 57.0337 25.46 56.8825C25.3995 56.7313 25.3391 56.6103 25.2181 56.4894C25.0064 56.2475 24.7948 56.0056 24.5831 55.7637C24.3412 55.5218 24.0993 55.5218 23.8574 55.7334C23.7667 55.7939 23.676 55.8846 23.5853 55.9149C23.4946 55.9451 23.3736 55.8846 23.2829 55.8242C23.2527 55.7939 23.2829 55.6427 23.3434 55.5823C23.4946 55.3404 23.676 55.1287 23.8574 54.8868C24.4017 54.1611 24.9762 53.4656 25.5205 52.7399C25.9136 52.2259 26.3671 51.7723 26.9114 51.4397C27.4859 51.1071 28.0302 50.7443 28.5745 50.3512C28.6349 50.3209 28.6954 50.2 28.6954 50.1395C28.7559 49.686 28.8164 49.2324 28.7861 48.7788C28.7861 48.5067 28.6349 48.2648 28.514 47.9927C28.4838 47.9322 28.3628 47.9019 28.2721 47.9019C28.0907 47.8717 27.879 47.8717 27.6976 47.8717C27.5464 47.8717 27.4859 47.781 27.5464 47.6298C27.6673 47.2367 27.7883 46.8436 27.879 46.4506C27.9395 46.2086 28 45.9365 28 45.6946C28 45.1806 27.6976 44.9387 27.1835 45.0294C26.9719 45.0596 26.7905 45.1201 26.5788 45.1503C26.3671 45.1806 26.2764 45.0899 26.2462 44.8782C26.1555 44.2734 26.0648 43.6687 25.974 43.0639C25.9136 42.5802 25.9136 42.5499 25.46 42.4894C24.7041 42.3685 23.9481 42.2778 23.1922 42.1871C22.6479 42.1266 22.6479 42.1266 22.7084 41.5823C22.7386 41.159 22.7991 40.7659 22.8596 40.3728C22.8898 40.2216 22.8596 40.1007 22.7386 39.9797C22.4967 39.7378 22.4665 39.4657 22.4665 39.1331C22.4665 38.5888 22.6177 38.105 22.8898 37.6515C23.0712 37.3491 23.1619 37.0467 23.1619 36.6839C23.1619 36.4722 23.2224 36.2605 23.2527 36.0489C23.4038 35.4743 23.1015 34.9301 22.5572 34.7789C22.3153 34.7184 22.1943 34.5672 22.1641 34.3556C22.1036 34.023 22.0432 33.6601 22.0432 33.3275C22.0432 33.1158 21.9827 33.0554 21.771 33.0554C21.1058 33.0251 20.4406 32.9646 19.7753 32.9344C19.4427 32.9042 19.4427 32.9042 19.4427 32.5413C19.4427 32.4204 19.4427 32.2692 19.4427 32.1482C19.473 31.8156 19.4125 31.483 19.2613 31.1806C19.2008 31.0597 19.1404 30.9387 19.352 30.8783C19.5032 30.848 19.5334 30.7271 19.5032 30.6061C19.473 30.3642 19.4427 30.1223 19.2915 29.9409C19.2008 29.8199 19.1706 29.6385 19.1404 29.4571C19.0799 29.064 18.8682 28.8221 18.4751 28.7616C18.1727 28.7012 17.8704 28.6104 17.5378 28.5802C17.2959 28.55 17.0842 28.4593 16.9632 28.2476C16.8423 28.0662 16.6911 28.0057 16.5097 27.9452C16.1468 27.8243 15.784 27.7033 15.4211 27.5824C15.3607 27.5521 15.2699 27.5521 15.2397 27.4917C14.8466 27.0683 14.3326 27.1288 13.8488 27.0683C13.6371 27.0381 13.4859 26.9776 13.365 26.8264C13.0626 26.4636 12.7602 26.1007 12.4579 25.7379C12.3369 25.5867 12.2764 25.4053 12.2462 25.2239C12.216 24.9517 12.216 24.6796 12.1857 24.4074C12.1555 24.0446 12.1555 23.6817 12.3067 23.3491C12.4579 22.9258 12.3369 22.8351 11.9136 22.8049C11.1879 22.6839 10.5831 22.8956 10.0388 23.3189C9.73647 23.5608 9.40386 23.7725 9.07125 23.9841C8.9503 24.0748 8.76887 24.1051 8.64792 24.1353C8.4665 24.1655 8.37578 24.226 8.28507 24.3772C8.10365 24.8005 7.86175 24.9215 7.40818 24.8308C6.92438 24.7098 6.47082 24.5889 5.98702 24.5889C5.77535 24.5889 5.53345 24.6191 5.32179 24.7098C4.9287 24.8308 4.77752 24.7401 4.74728 24.347C4.74728 24.0144 4.74728 23.7422 4.77752 23.4701Z" />
</g>
</g>
<defs>
<clipPath id="clip0_29_1684">
<rect width="55.9999" height="61.9868" fill="white" transform="translate(0 0.00683594)"/>
</clipPath>
</defs>
</svg>
