<svg width="73" height="69" viewBox="0 0 73 69" fill="none" xmlns="http://www.w3.org/2000/svg">
<g id="Frame" clip-path="url(#clip0_29_1671)">
<g id="Group">
<path id="Vector" d="M2.45585 20.4246C2.5372 20.0178 2.5372 19.6111 2.13042 19.2043C2.04907 19.1229 2.04907 18.7162 2.13042 18.6348C2.37449 18.3094 2.69991 18.0653 3.02534 17.7399C3.26941 17.4958 3.35076 17.089 3.59483 16.9263C4.00161 16.6009 3.67619 16.3568 3.51347 16.1128C3.35076 15.6246 3.67618 15.0551 4.32703 14.9738C5.38466 14.8111 5.95415 13.9162 6.76771 13.428C6.84907 13.428 6.84907 13.1839 6.84907 13.1026C6.76771 13.1026 6.605 13.1026 6.52364 13.1839C6.27957 13.2653 6.11686 13.3467 5.8728 13.428C5.95415 13.1839 5.8728 12.8585 6.03551 12.6958C6.76771 11.9636 6.36093 11.0687 6.27957 10.3365C6.19822 9.68564 5.46602 9.27886 4.81517 9.36022C4.16432 9.52293 3.8389 9.19751 3.35076 8.87208C2.69991 8.38395 1.805 8.05852 1.0728 7.65174C0.991439 7.40768 0.828727 7.24496 0.666016 7.16361C0.828727 7.08225 0.991439 6.91954 1.0728 6.83819C1.31686 6.67547 1.64229 6.67547 1.72364 6.51276C2.04907 5.78056 2.61856 6.02463 3.10669 6.02463C3.59483 6.02463 4.16432 6.10598 4.65246 6.18734C4.81517 6.18734 5.05924 6.10598 5.22195 6.02463C5.62873 5.6992 5.62873 5.45513 5.22195 5.12971C5.14059 4.967 4.89652 4.967 4.81517 4.80429C4.65246 4.64157 4.5711 4.31615 4.5711 4.2348C4.73381 4.07208 4.97788 3.99073 5.22195 3.90937C5.38466 3.90937 5.54737 3.99073 5.71008 4.07208C5.79144 4.07208 6.03551 4.07208 6.03551 3.99073C6.03551 3.90937 6.03551 3.6653 5.95415 3.58395C5.62873 3.25852 5.79144 3.01446 5.95415 2.68903C6.27957 2.03819 6.68635 1.46869 7.01178 0.817846C7.49991 0.00428674 8.31347 -0.158425 8.96432 0.492422C10.0219 1.63141 11.3236 1.95683 12.788 2.11954C13.2762 2.2009 13.7643 2.44496 14.2525 2.68903C16.7745 3.6653 19.2152 4.72293 21.7372 5.6992C22.2253 5.94327 22.7135 5.86191 23.2016 5.53649C24.2592 4.80429 25.3982 4.23479 26.5372 3.50259C27.188 3.09581 27.7575 3.01446 28.327 3.50259C28.4897 3.6653 28.7338 3.74666 28.8965 3.82802C30.1982 3.82802 31.1745 4.56022 32.1508 5.37378C32.4762 5.61785 32.8016 5.6992 33.127 5.53649C33.2897 5.45513 33.4525 5.37378 33.6152 5.29242C34.3474 4.967 34.3474 4.967 34.5914 5.78056C34.7542 6.26869 34.8355 6.59412 35.405 6.75683C35.8931 6.91954 36.2999 7.16361 36.7067 7.40768C37.1948 7.65174 37.5203 7.97717 37.2762 8.54666C37.0321 9.11615 37.4389 9.27886 37.8457 9.27886C38.4965 9.27886 39.066 9.36022 39.6355 9.60429C39.9609 9.767 40.4491 9.60429 40.8558 9.44158C41.344 9.19751 41.588 9.36022 41.8321 9.68564L41.9135 9.767C43.2152 11.0687 43.4592 11.15 45.4118 10.2551C46.3067 9.84835 47.2016 9.52293 48.0965 9.27886C48.7474 9.11615 48.8287 9.0348 48.7474 8.30259C48.666 7.7331 48.5847 7.24497 48.5033 6.67547C48.5033 6.51276 48.5033 6.35005 48.5033 6.18734C48.666 6.26869 48.9101 6.18734 49.0728 6.35005C49.4796 6.75683 49.8864 7.24496 50.1304 7.7331C50.3745 8.05852 50.4558 8.54666 50.5372 8.95344C50.6186 9.27886 50.7813 9.60429 50.2931 9.767C50.2118 9.767 50.2118 10.0924 50.1304 10.2551C50.2118 10.2551 50.3745 10.0924 50.4558 10.1738C50.6186 10.2551 50.7813 10.4178 50.8626 10.5806C51.3508 11.7195 51.7575 12.9399 52.2457 14.1602C53.2219 16.6823 54.7677 18.9602 56.4762 20.9941C57.8592 22.7026 59.2423 24.3297 60.6253 26.0382C60.8694 26.3636 61.1135 26.445 61.4389 26.3636C62.2525 26.2823 62.3338 26.3636 62.5779 27.0145C62.7406 27.4212 62.9847 27.828 63.2287 28.2348C64.0423 29.2924 64.8558 30.35 65.6694 31.4077C65.9135 31.7331 66.2389 32.1399 66.727 32.2212C66.9711 32.2212 67.1338 32.5467 67.2152 32.7907C67.4592 33.5229 67.866 34.0111 68.6796 34.0924C69.1677 34.0924 69.6558 34.2551 70.144 34.3365C70.7135 34.4178 71.2016 34.4992 71.4457 35.15C71.527 35.3941 72.0152 35.4755 72.1779 35.7195C72.3406 35.8823 72.3406 36.1263 72.4219 36.3704C72.2592 36.3704 72.0965 36.3704 71.9338 36.4517C71.8525 36.4517 71.6897 36.5331 71.6897 36.6145C71.6897 37.1026 71.4457 37.5907 70.9575 37.5907C70.388 37.5907 69.7372 37.5907 69.2491 37.0212C69.1677 36.8585 69.005 36.7772 68.8423 36.6145C68.2728 35.7195 67.2965 35.5568 66.483 35.2314C66.0762 35.0687 65.9135 35.3941 65.8321 35.6382C65.6694 36.1263 65.7508 36.6145 66.0762 37.0212C66.4016 37.5094 66.3203 37.6721 65.8321 37.8348H65.7508C64.7745 37.8348 64.5304 38.4043 64.5304 39.2992C64.5304 40.5195 64.4491 41.7399 64.5304 43.0416C64.5304 43.9365 64.6118 44.8314 64.6931 45.645C64.6931 46.0517 64.6118 46.4585 65.344 46.2145C65.4253 46.2145 65.6694 46.2958 65.7508 46.4585C66.4016 47.2721 67.2965 47.7602 68.1914 48.167C68.7609 48.4111 69.005 48.9806 69.1677 49.55C69.2491 49.7128 69.1677 49.9568 69.005 50.0382C68.4355 50.5263 67.9474 51.0958 67.1338 51.2585C66.8084 51.3399 66.483 51.4212 66.2389 51.5839C66.0762 51.6653 65.8321 51.9094 65.9135 51.9907C66.1575 52.6416 65.7508 52.8856 65.344 53.2111C65.0186 53.4551 65.0186 53.6992 65.2626 53.9433C65.4253 54.1873 65.588 54.4314 65.8321 54.5941C66.6457 55.489 67.1338 56.5467 66.8897 57.767C66.8084 58.1738 66.8084 58.6619 66.727 59.15C66.6457 59.8823 66.2389 60.4517 65.4253 60.5331C64.7745 60.6145 64.3677 60.9399 63.9609 61.428C63.6355 61.8348 63.1474 62.1602 62.6592 62.4043C62.4152 62.567 62.3338 62.7297 62.5779 62.8924C62.9847 63.1365 63.3101 63.3806 63.7169 63.5433C64.2864 63.706 64.5304 64.0314 64.6931 64.6009C64.8558 65.4145 65.344 66.0653 65.344 66.8789C65.344 67.4483 65.4253 68.0178 65.4253 68.506C65.4253 68.6687 65.2626 68.8314 65.1813 68.9128C65.0186 68.75 64.6931 68.506 64.6931 68.4246C65.2626 66.8789 63.9609 65.9839 63.4728 64.845C63.3914 64.6009 63.1474 64.4382 62.9033 64.3568C62.0897 63.7873 61.2762 63.2992 60.4626 62.7297C59.5677 62.0789 59.4864 61.6721 60.2999 60.8585C60.6253 60.4517 60.788 60.1263 60.544 59.6382C60.0558 58.7433 59.5677 57.9297 59.0796 57.0348C58.8355 56.628 58.5101 56.3839 58.0219 56.2212C57.6152 56.1399 57.127 55.9772 56.7203 55.8145C56.2321 55.6517 55.8253 55.3263 55.744 54.8382C55.6626 54.1873 55.2558 54.1873 54.7677 54.1873C54.6864 54.1873 54.605 54.2687 54.4423 54.2687C53.9541 54.35 53.466 54.4314 52.9779 54.5941C53.2219 55.0009 53.6287 55.3263 53.7101 55.7331C53.9541 56.628 54.5236 57.1161 55.4186 57.3602C56.6389 57.6856 57.0457 58.7433 57.127 59.8823C57.2084 62.1602 56.883 62.1602 55.1745 61.3467C53.9542 60.7772 52.6525 60.289 51.2694 60.5331C50.8626 60.6145 50.5372 60.3704 50.2931 60.045C49.3982 59.15 48.5033 58.3365 47.6084 57.5229C47.0389 56.9534 46.9575 56.7094 47.3643 55.9772C47.6897 55.489 47.9338 55.0009 48.5847 54.7568C49.1542 54.5128 49.3169 53.6992 49.1541 53.2924C48.9914 52.6416 49.3169 52.3975 49.6423 52.0721C49.9677 51.828 50.3745 51.6653 49.7236 51.1772C49.4796 51.0145 49.5609 50.3636 49.4796 49.9568C49.3169 49.1433 49.2355 48.3297 49.0728 47.5975C49.0728 47.5162 49.0728 47.3534 48.9914 47.3534C48.0965 46.8653 47.8525 45.645 46.7948 45.3195C46.7135 45.3195 46.5508 45.1568 46.5508 45.0755C46.4694 44.4246 45.9813 44.1806 45.4118 43.9365C45.0864 43.7738 44.8423 43.6111 44.5982 43.367C43.9474 42.8789 43.3779 42.3907 42.727 41.9839C41.8321 41.4958 40.8558 41.089 39.9609 40.6009C39.7982 40.5195 39.6355 40.4382 39.3914 40.4382C38.5779 40.3568 37.927 40.1941 37.7643 39.2178C37.7643 39.0551 37.4389 38.8111 37.1948 38.7297C36.6253 38.4856 36.1372 38.2416 35.5677 38.1602C34.3474 37.8348 33.127 37.5907 31.9067 37.2653C31.744 37.1839 31.4999 37.1026 31.3372 37.1839C29.8728 37.3467 28.9779 36.4517 28.083 35.4755C28.0016 35.3941 27.9203 35.3128 27.8389 35.2314C26.944 34.5806 26.7813 33.9297 27.3508 33.0348C28.083 31.7331 28.083 31.6517 27.1067 30.5128C26.8626 30.1873 26.5372 29.9433 26.2931 29.6178C26.1304 29.4551 26.0491 29.2111 26.0491 29.0484C26.0491 27.9094 25.6423 27.5839 24.5847 27.5839C24.0152 27.5839 23.527 27.5839 23.2016 27.0958C23.2016 27.0145 23.1203 27.0145 23.0389 27.0145C21.9813 26.2009 21.005 25.3873 19.9474 24.5738C19.7033 24.4111 19.3779 24.2484 19.1338 24.167C18.9711 24.0856 18.727 24.167 18.6457 24.0043C18.2389 23.3534 17.588 23.4348 16.9372 23.4348C16.5304 23.4348 16.0423 23.1907 15.6355 23.028C15.4728 22.9467 15.3914 22.9467 15.2287 22.9467C15.2287 23.1094 15.1474 23.2721 15.1474 23.4348C15.2287 24.2484 15.4728 24.8992 16.2864 25.306C16.6931 25.4687 16.9372 25.7941 17.0999 26.3636C17.1813 26.9331 17.9135 27.3399 18.4016 27.0958C18.8897 26.9331 19.2152 27.0958 19.4592 27.4212C19.7847 27.828 20.2728 27.9907 20.8423 27.9907C21.7372 27.9907 21.8999 28.2348 21.9813 29.1297C21.9813 29.4551 22.0626 29.7806 22.2253 30.0246C22.2253 30.106 22.4694 30.1873 22.5508 30.106C22.9575 29.9433 23.1203 30.1873 23.2016 30.4314C23.3643 30.8382 23.0389 30.7568 22.7948 30.9195C22.3067 31.3263 21.8999 31.7331 21.4931 32.2212C21.1677 32.5467 21.005 32.8721 20.5169 32.5467C20.4355 32.5467 20.1914 32.7907 20.1914 32.7907C20.5169 33.2789 20.1101 33.5229 19.7847 33.6856C19.1338 34.0924 18.727 34.6619 18.5643 35.4755C18.483 35.8009 18.1575 36.2077 17.9135 36.2077C17.6694 36.2077 17.1813 35.8823 17.0999 35.6382C16.9372 34.9873 16.4491 34.5806 16.1236 34.0924C15.9609 33.8484 15.7982 33.6043 15.6355 33.3602C15.3914 33.0348 15.066 32.628 14.8219 32.3026C14.6592 32.1399 14.4965 31.9772 14.3338 31.8145C13.6016 30.5128 12.2999 30.1873 10.9169 29.9433C9.3711 29.6992 7.82534 29.2924 6.27957 28.967C6.11686 28.967 5.95415 28.6416 5.8728 28.4789C5.71008 27.7467 5.3033 27.1772 4.81517 26.689C4.00161 25.7941 3.18805 24.8178 2.94398 23.5161C2.86263 23.2721 2.78127 23.1094 2.69991 22.8653C2.5372 22.0517 2.37449 21.3195 2.45585 20.4246Z" />
</g>
</g>
<defs>
<clipPath id="clip0_29_1671">
<rect width="72" height="68.8271" fill="white" transform="translate(0.666016 0.0864258)"/>
</clipPath>
</defs>
</svg>
