<svg width="73" height="26" viewBox="0 0 73 26" fill="none" xmlns="http://www.w3.org/2000/svg">
<g id="Group">
<path id="Vector" d="M6.53239 4.41377C6.97128 4.56007 7.19073 4.19432 7.55647 4.12117C8.65371 3.90172 9.5315 3.24338 10.6287 3.09708C10.9213 3.02394 10.9945 2.58504 11.3602 2.51189C11.5797 2.43874 11.8723 2.073 12.0186 2.58504C12.0917 2.73134 12.1649 2.65819 12.238 2.58504C12.3112 2.36559 12.5306 2.2193 12.6769 2.29245C13.4815 2.58504 14.1399 1.99985 14.8714 2.073C15.5297 2.14615 16.1881 1.9267 16.7733 1.56095C17.8705 0.902614 18.9677 0.829465 20.2113 1.12206C20.8696 1.26836 21.5279 1.19521 22.1863 1.19521C22.4057 1.19521 22.6252 1.19521 22.8446 1.26836C23.1372 1.41466 22.7715 1.9267 23.2104 1.85355C23.4298 1.7804 23.6493 1.6341 23.8687 1.48781C24.4539 1.26836 24.8928 1.26836 25.2585 1.7804C25.478 2.073 25.7706 2.14615 25.99 1.7804C26.1363 1.48781 26.4289 1.48781 26.5752 1.6341C26.8678 1.99985 27.1604 1.7804 27.453 1.7804C27.8188 1.70725 28.2576 1.6341 28.6965 1.6341C29.0623 1.6341 29.2817 1.70725 29.5012 1.99985C30.0132 2.65819 31.4031 3.02394 32.2808 2.73134C32.6466 2.58504 33.0855 2.65819 33.3781 2.95079C33.5975 3.17023 33.817 3.38968 34.1827 3.24338C34.329 3.38968 34.329 3.60913 34.5485 3.68228C35.2068 3.90172 35.792 4.19432 36.0846 4.85266C36.3772 5.511 37.1087 5.87675 37.6207 6.31564C38.2059 6.82769 38.9374 6.75454 39.5957 6.68139C40.3272 6.60824 41.0587 6.46194 41.7171 6.97398C41.8634 7.12028 42.2291 6.75454 42.5217 6.97398C43.1069 7.41288 43.9115 7.55918 44.4236 8.07122C44.643 8.21752 44.8625 8.29067 45.0819 8.36381C45.7403 8.58326 46.3255 8.87586 46.7644 9.5342C46.9838 9.89995 47.2764 10.412 47.8616 10.3388C47.9347 10.3388 48.0079 10.412 48.081 10.4851C48.7394 11.4361 49.6903 11.1435 50.5681 11.1435C50.3487 11.5092 50.2755 11.8018 50.7144 12.0944C50.7875 12.1676 50.9338 12.1676 51.007 12.0944C51.1533 12.0213 51.007 11.875 50.9338 11.8018C50.7875 11.5824 50.6412 11.3629 50.4949 11.1435C50.4218 11.1435 50.4218 11.0703 50.4218 11.0703C51.2996 11.1435 51.8116 11.8018 52.47 12.2407C52.9089 12.5333 53.2015 12.8991 53.4941 13.2648C53.8598 13.7768 54.5181 13.9231 55.1033 14.1426C55.3228 14.2157 55.7617 14.2157 55.7617 14.5815C55.6154 14.5815 55.3959 14.5083 55.3959 14.7278C55.3959 14.8009 55.5422 14.8741 55.5422 14.8741C55.8348 14.8741 55.7617 14.7278 55.6885 14.5083C55.908 14.6546 56.4932 14.5815 56.1274 15.1667C56.0543 15.2398 56.3469 15.3861 56.42 15.3861C56.5663 15.3861 56.7126 15.313 56.7126 15.1667C56.8589 14.7278 56.8589 14.7278 57.0784 14.8009C57.8099 14.9472 58.5413 15.2398 59.0534 15.8982C59.2728 16.1908 59.7117 16.2639 60.0043 16.1908C60.2969 16.1176 60.6627 16.1176 60.9553 16.0445C61.6136 15.825 62.0525 16.1908 62.5645 16.4834C62.7108 16.5565 62.784 16.776 62.6377 16.9223C62.4914 17.1417 62.4914 17.5074 62.0525 17.5074C61.9062 17.5074 61.7599 17.4343 61.7599 17.6537C61.7599 17.8732 61.9062 17.8 62.0525 17.8C62.3451 17.8 62.6377 17.8 62.784 18.0926C62.4914 18.1658 62.1988 17.9463 61.833 18.0195C61.5405 18.0926 61.3942 18.1658 61.3942 18.4584C61.321 18.6778 61.4673 18.8241 61.6136 18.9704C61.8331 19.1899 61.9793 18.8973 62.1256 18.8241C62.2719 18.6778 62.4182 18.6047 62.5645 18.8241C62.784 19.1899 63.2229 19.1167 63.5155 18.9704C63.8081 18.751 63.9544 18.751 64.1738 19.0436C64.3933 19.3362 64.5396 19.5556 64.6859 18.9704L64.9053 18.8973C65.71 19.4093 66.6609 18.9704 67.5387 19.4093C68.2702 19.7751 68.7822 20.2871 69.3674 20.7992C69.9526 21.4575 70.5378 22.1158 71.5619 21.7501C71.8545 21.6769 72.1471 21.9695 72.2934 22.2621C72.4397 22.5547 72.1471 22.6279 72.0008 22.8473C71.635 23.2862 71.2693 23.4325 70.6841 23.4325C69.8794 23.4325 69.0748 23.5788 68.2702 23.652C67.685 23.652 67.2461 24.0177 66.8072 24.3834C66.5877 24.6029 66.3683 24.676 66.0757 24.6029C66.1488 24.3103 66.1488 24.0177 66.222 23.7983C66.2951 23.652 66.2951 23.5788 66.1488 23.5057C66.0757 23.5057 65.9294 23.5788 65.8562 23.5788C65.7099 23.652 65.7831 23.7983 65.7099 23.8714C65.4174 24.3835 64.9785 24.676 64.247 24.6029C63.5155 24.5298 62.784 24.676 62.1256 24.164C61.9062 23.9446 61.5405 24.0909 61.2479 24.0909C59.7849 24.0177 58.395 23.7251 56.9321 24.0909C56.2737 24.2372 55.6154 24.0909 54.957 24.2372C54.5913 24.3103 54.2255 24.3103 53.8598 24.5297C53.4941 24.7492 53.0552 24.676 52.6894 24.6029C52.1042 24.4566 51.6653 24.5297 51.0801 24.7492C50.4218 24.9686 49.6172 24.9686 48.9588 25.0418C48.5931 25.0418 48.5931 24.8223 48.7394 24.6029C49.4709 23.652 50.2024 22.8473 51.2996 22.2621C51.8116 21.9695 52.3968 21.8232 52.6894 21.238C53.0552 20.6529 52.9089 20.2871 52.2505 19.9945C52.1042 19.9214 51.9579 19.9945 51.9579 19.7751C51.8116 18.9704 51.3727 18.751 50.5681 18.8973C49.7635 19.1167 48.8857 18.9704 48.081 18.751C47.7884 18.6778 47.569 18.6047 47.3495 18.751C46.8375 19.0436 46.4718 18.8241 46.106 18.5315C45.4477 17.9463 44.8625 17.288 44.0578 16.8491C43.3995 16.4834 43.4726 15.6787 43.3263 15.0935C43.18 14.2889 42.9606 13.4842 42.3754 12.7528C41.8634 12.1676 41.4976 12.1676 40.8393 12.3139C40.2541 12.4602 39.5957 12.4602 38.9374 12.7528C38.7911 12.8259 38.6448 12.8259 38.4985 12.7528C37.6207 12.4602 36.6698 12.4602 35.8651 11.9481C35.7188 11.8018 35.4994 11.8018 35.28 11.7287C34.9142 11.6555 34.4022 11.875 34.2559 11.6555C33.9633 11.3629 33.6707 11.3629 33.3049 11.3629H33.2318C32.7197 10.4851 31.4762 10.6314 30.9642 9.75365C30.8179 9.46105 30.379 9.3879 30.6716 8.87586C30.7447 8.72956 30.379 8.58326 30.379 8.43696C30.3058 8.21752 30.0864 8.07122 29.9401 8.21752C29.7938 8.36382 29.9401 8.43696 30.0132 8.58326C30.3058 8.94901 30.1595 9.09531 29.7206 9.09531C28.916 9.09531 28.1113 9.02216 27.2336 9.16845C26.8678 9.2416 26.5021 9.09531 26.1363 8.87586C25.6974 8.65641 25.7706 8.29067 25.6974 7.92492C25.6974 7.77862 25.5511 7.55918 25.4048 7.55918C25.1122 7.63233 25.3317 7.85177 25.2585 7.99807C25.2585 8.21752 25.5511 8.51011 24.9659 8.51011C24.6733 8.51011 24.3076 9.16845 24.015 8.43696C23.8687 8.14437 23.5761 8.14437 23.3567 8.14437C22.7715 8.14437 22.1863 7.85177 21.6011 8.14437C21.4548 8.21752 21.2353 8.21752 21.1622 8.14437C20.7233 7.48603 19.8455 7.41288 19.2603 6.97398C19.114 6.90083 18.8946 6.90083 18.9677 6.60824C19.0409 6.46194 19.1872 6.53509 19.3335 6.46194C20.1381 6.38879 20.9427 6.53509 21.6742 6.31564C21.9668 6.24249 22.1863 6.16934 22.1863 5.8036C22.2594 5.43785 22.04 5.36471 21.8205 5.14526C21.4548 4.85266 20.9427 4.56007 20.4307 4.63321C18.8946 4.77951 17.4316 4.41377 15.8955 4.56007C15.676 4.56007 15.4566 4.56007 15.3103 4.56007C14.8714 4.41377 14.5788 4.48692 14.3593 4.99896C14.213 5.29156 13.8473 5.511 13.4815 5.6573C13.2621 5.73045 13.1158 5.8036 12.8964 5.9499C12.6038 6.02305 12.6038 6.75454 12.1649 6.90083C11.726 7.04713 11.2871 7.19343 10.9945 7.63232C10.5556 8.21752 10.3361 8.21752 9.6778 7.92492C9.60465 7.85177 9.45835 7.77862 9.3852 7.85177C8.94631 8.29067 8.36111 8.07122 7.77592 8.14437C6.97128 8.21752 6.75183 8.36382 6.67869 9.16845C6.60554 9.89995 6.60554 9.8268 5.87405 9.89995C5.362 9.97309 4.77681 10.1194 4.33792 10.4851C4.11847 10.6314 3.89902 10.8509 3.75272 10.9972C3.60643 11.0703 3.46013 11.1435 3.31383 11.0703C3.16753 10.9972 3.24068 10.8509 3.31383 10.7046C3.53328 9.97309 3.31383 9.8268 2.58234 9.97309C2.14345 10.0462 1.7777 10.3388 1.41196 10.5583C1.11936 10.7777 0.753615 10.8509 0.461019 10.5583C0.314721 10.4851 0.241572 10.2657 0.534168 10.1925C1.33881 9.97309 2.14345 9.6805 2.94809 9.31475C3.38698 9.09531 3.89902 9.16845 4.33792 9.31475C4.55736 9.3879 4.70366 9.3879 4.55736 9.09531C4.48422 8.94901 4.41107 8.65641 4.26477 8.58326C4.04532 8.36381 3.67958 8.21752 3.75272 7.92492C3.89902 7.55918 3.89902 7.12028 4.11847 6.75454C4.70366 6.02305 5.362 5.43785 6.09349 4.85266C6.23979 4.70636 6.45924 4.63321 6.53239 4.41377ZM51.519 12.3139C51.2996 12.3139 51.2264 12.1676 51.1533 12.3139C51.0801 12.4602 51.2264 12.5333 51.2996 12.5333C51.5922 12.6065 51.7385 12.6796 51.6653 13.0454C51.5922 13.1917 51.8848 13.2648 52.0311 13.2648C52.2505 13.2648 52.3968 13.1917 52.47 12.9722C52.5431 12.7528 52.47 12.6796 52.3237 12.5333C52.0311 12.387 51.7385 12.2407 51.519 12.3139ZM54.5913 14.2157C54.5181 14.1426 54.445 14.0694 54.3718 14.0694C54.2256 14.0694 54.1524 14.1426 54.2255 14.2889C54.2987 14.4352 54.3718 14.362 54.445 14.362C54.5181 14.362 54.5913 14.2889 54.5913 14.2157Z" />
<path id="Vector_2" d="M13.9196 13.4844C13.2613 13.4112 12.603 13.3381 12.2372 12.6797C12.1641 12.6066 12.1641 12.4603 12.1641 12.4603C12.2372 12.314 12.3835 12.4603 12.4567 12.5334C12.603 12.6797 12.7493 12.7529 12.9687 12.7529C13.4076 12.7529 13.5539 12.4603 13.3344 12.0945C13.2613 11.9482 13.115 11.7288 13.0418 11.5825C12.8224 11.2167 12.6761 10.9241 12.9687 10.5584C13.2613 10.1926 13.5539 9.90005 14.1391 9.9732C15.1632 10.1926 15.6752 10.6315 15.8947 11.8019C15.9678 12.0945 16.3336 12.2408 16.1873 12.6066C15.9678 12.9723 15.5289 12.9723 15.2363 13.1918C14.7974 13.3381 14.4317 13.5575 13.9196 13.4844Z" />
<path id="Vector_3" d="M50.4227 10.705C50.2764 10.7782 50.1301 10.8513 49.9838 10.705C49.7644 10.5587 49.6181 10.4124 49.5449 10.193L49.6181 10.0467C49.9107 9.97353 49.9107 10.3393 50.1301 10.4856C50.2033 10.6319 50.2764 10.705 50.4227 10.705Z" />
<path id="Vector_4" d="M63.0039 17.9468L63.0768 18.0197L63.0039 17.9468Z" />
</g>
</svg>
