<svg width="72" height="50" viewBox="0 0 72 50" fill="none" xmlns="http://www.w3.org/2000/svg">
<g id="Frame" clip-path="url(#clip0_29_1633)">
<g id="Group">
<path id="Vector" d="M16.2142 2.15795C16.3428 1.93274 16.4715 1.77189 16.7611 1.8684C16.8254 1.90057 16.9219 1.8684 16.9863 1.83623C17.2437 1.73971 17.4689 1.6432 17.7262 1.51451C17.9193 1.45017 18.0801 1.38583 17.9836 1.09628C17.9836 1.06411 18.0158 0.967596 18.0801 0.935424C18.5305 0.549365 19.0131 0.291992 19.6244 0.291992C19.7209 0.291992 19.7852 0.324164 19.8817 0.356335C20.0748 0.45285 20.2356 0.549365 20.4286 0.64588C20.5895 0.710223 20.7182 0.806738 20.7504 0.999768C20.7504 1.03194 20.7825 1.06411 20.8147 1.09628C20.8147 1.06411 20.8147 1.03194 20.8147 0.967596C20.8147 0.903253 20.8147 0.871081 20.8147 0.806738C20.8469 0.64588 21.0077 0.581537 21.1364 0.678052C21.5546 0.967596 22.0051 0.903253 22.4555 0.83891C22.7128 0.806738 22.8093 0.806738 22.8737 1.03194C22.938 1.22497 23.0345 1.28931 23.2276 1.28931C23.2919 1.28931 23.3884 1.32148 23.4206 1.38583C23.6136 1.61103 23.7745 1.8684 23.9675 2.0936C23.9675 2.0936 23.9675 2.12577 23.9997 2.12577C24.064 2.28663 24.0962 2.3188 24.2571 2.25446C24.5144 2.15795 24.7396 2.22229 24.9005 2.41532C24.9648 2.544 25.0935 2.64052 25.19 2.73703C25.2866 2.80138 25.3509 2.86572 25.4152 2.93006C25.4474 2.96224 25.4474 2.99441 25.4796 2.99441C25.8335 2.96224 26.0265 3.21961 26.2517 3.38047C26.4126 3.47698 26.5734 3.60567 26.7343 3.73435C26.7664 3.76653 26.8308 3.76653 26.8308 3.76653C27.056 3.63784 27.2169 3.7987 27.4099 3.86304C27.6029 3.95956 27.7959 3.92738 27.9568 3.83087C28.0533 3.76653 28.182 3.70218 28.2785 3.83087C28.4394 4.08824 28.7289 3.89521 28.9219 3.99173C28.9219 3.99173 28.9863 3.92738 28.9863 3.89521C29.0506 3.50915 29.0828 3.44481 29.4689 3.38047C29.6297 3.3483 29.7906 3.31612 29.9514 3.31612C30.4018 3.31612 30.7879 3.47698 30.9809 3.89521C31.0131 3.95956 31.1096 4.05607 31.1418 4.0239C31.3992 3.92738 31.4635 4.15259 31.56 4.28127C31.6887 4.4743 31.8174 4.66733 31.9461 4.86036C32.3965 5.53596 33.0077 6.01854 33.7799 6.27591C33.9085 6.30808 34.0694 6.37243 34.1981 6.34025C34.745 6.27591 35.2276 6.53328 35.7102 6.66197C35.9354 6.72631 36.2249 6.72631 36.4501 6.72631C36.611 6.72631 36.7396 6.66197 36.9005 6.66197C37.2544 6.6298 37.5439 6.50111 37.6726 6.08288C37.737 5.85768 37.9622 5.69682 38.2195 5.63248C38.4447 5.60031 38.7021 5.56814 38.9273 5.53596C39.2169 5.50379 39.5064 5.43945 39.796 5.50379C39.989 5.53596 40.182 5.60031 40.3107 5.76117C40.4716 6.01854 40.7289 6.08288 40.9541 6.1794C41.3724 6.37243 41.5654 6.98369 41.3402 7.36975C41.2758 7.46626 41.2437 7.59495 41.2437 7.72363C41.2437 7.88449 41.2437 8.04535 41.1472 8.20621C41.115 8.27055 41.115 8.39924 41.1793 8.49575C41.2758 8.62444 41.4045 8.7853 41.5332 8.88181C41.6619 8.97833 41.7262 9.07484 41.7262 9.2357C41.6941 9.55742 41.6941 9.84696 41.6619 10.1687C41.6619 10.2652 41.6619 10.3617 41.6941 10.4582C41.7906 10.6834 41.8549 10.9086 41.9836 11.1338C42.1123 11.3269 42.1767 11.4877 42.1767 11.7451C42.1767 11.8416 42.2732 11.9703 42.3697 12.0668C42.6592 12.292 42.8523 12.5494 43.0453 12.9033C43.2061 13.225 43.5279 13.4502 43.8817 13.6432C44.5252 13.9971 45.1364 13.9649 45.7799 13.6432C45.8442 13.611 45.9407 13.5789 46.0372 13.5789C46.359 13.5467 46.6485 13.5467 46.9702 13.5145C47.1633 13.4824 47.3563 13.4502 47.485 13.2572C47.678 13.0319 47.9354 12.8711 48.2893 12.9033C48.5466 12.9354 48.804 12.9676 49.0614 12.9676C49.2222 12.9676 49.3831 12.9676 49.5761 12.9676C49.7692 12.9676 49.9622 12.9354 50.123 12.9354C50.1874 12.9354 50.2196 12.9998 50.2839 13.0319C50.3804 13.1285 50.4448 13.1606 50.5734 13.0641C50.6056 13.0319 50.7343 13.0319 50.7986 13.0641C51.1525 13.1928 51.4421 13.418 51.8281 13.4502C51.989 13.4502 52.1177 13.6432 52.2785 13.7397C52.3107 13.7719 52.4394 13.7076 52.4394 13.6754C52.4716 13.1606 52.922 13.0641 53.2759 12.8389C53.5654 12.6781 53.8549 12.5815 54.0802 12.292C54.1767 12.1955 54.4662 12.1955 54.5306 12.292C54.5627 12.3563 54.5627 12.485 54.4984 12.5494C54.3697 12.7746 54.2088 12.9998 54.048 13.225C53.9836 13.3215 53.8228 13.418 53.9193 13.5789C53.9836 13.6754 54.2732 13.7719 54.4019 13.7076C54.5949 13.5789 54.7558 13.5789 54.9488 13.6432C55.0131 13.6754 55.1418 13.611 55.2383 13.5467C55.3027 13.5145 55.3992 13.4502 55.4635 13.418C55.6566 13.3537 55.7852 13.418 55.8174 13.6432C55.8496 13.9006 55.7531 14.0936 55.56 14.2545C55.3348 14.4475 55.1096 14.6405 54.8844 14.8014C54.7236 14.9301 54.6271 15.1231 54.5949 15.3161C54.5627 15.4126 54.5627 15.5092 54.5306 15.6057C54.434 15.9596 54.434 15.9596 54.0802 15.9274C53.9515 15.9274 53.7906 15.9274 53.6619 15.9274C53.5976 15.9274 53.4689 15.9596 53.4367 15.8952C53.1793 15.6057 52.7611 15.7344 52.4716 15.5735C52.4072 15.5413 52.3429 15.5092 52.2785 15.5413C51.9247 15.7344 51.5386 15.6057 51.1847 15.6379C51.1204 15.6379 51.0882 15.6378 51.0238 15.67C50.8952 15.7344 50.7665 15.8631 50.6056 15.7022C50.4448 15.7665 50.3161 15.67 50.1874 15.6057C49.8978 15.5092 49.6405 15.3483 49.3188 15.4126C49.1257 15.4448 48.9005 15.3483 48.7075 15.3161C48.2571 15.2518 47.7745 15.2196 47.2919 15.1874C47.2276 15.1874 47.1633 15.1231 47.0667 15.1231C46.9381 15.0909 46.8094 15.0909 46.6807 15.0588C46.5842 15.0588 46.552 15.1231 46.5842 15.2196C46.6807 15.477 46.5842 15.7665 46.5198 16.0239C46.4555 16.2813 46.3911 16.5708 46.3268 16.8604C46.2946 16.9569 46.2946 17.1177 46.359 17.1821C46.4233 17.3108 46.4233 17.4073 46.4233 17.536C46.3911 17.8255 46.5198 17.922 46.8094 17.9542C46.9702 17.9542 47.1311 17.9542 47.2598 17.8899C47.6458 17.7612 48.0319 17.6647 48.4179 17.7933C48.4501 17.7933 48.5145 17.7933 48.5145 17.7933C48.804 17.6647 49.0614 17.7612 49.3188 17.922C49.3831 17.9542 49.5118 17.9542 49.6083 17.9542C49.7048 17.9542 49.8335 17.9864 49.93 18.0185C49.9944 18.0185 50.0587 18.0507 50.0587 18.0507C50.0909 17.9864 50.123 17.8899 50.0909 17.8255C50.0909 17.7933 49.9944 17.7933 49.93 17.7612C49.8013 17.7612 49.7048 17.7612 49.5761 17.7612C49.544 17.7612 49.4796 17.729 49.4796 17.6968C49.4796 17.6647 49.5118 17.6003 49.544 17.5681C49.6726 17.536 49.8013 17.4716 49.93 17.4716C50.123 17.4716 50.3161 17.4716 50.5091 17.4716C50.67 17.4716 50.8308 17.5038 50.8952 17.6647C50.9273 17.6968 50.9595 17.7612 50.9917 17.7612C51.1847 17.8255 51.2812 17.9542 51.2812 18.1472C51.2812 18.2116 51.3456 18.3403 51.4099 18.3403C51.7638 18.4046 52.0533 18.7585 52.4716 18.5976C52.5359 18.5655 52.6646 18.5976 52.7611 18.6298C52.9541 18.7585 53.1472 18.8872 53.308 19.0159C53.5332 19.2089 53.7263 19.2411 53.9836 19.1124C54.1445 19.0159 54.3054 19.0159 54.4662 19.1767C54.7236 19.4341 55.0453 19.3698 55.3348 19.3698C55.4957 19.3698 55.6244 19.3698 55.7531 19.4984C55.8818 19.6271 55.9783 19.595 56.0104 19.4019C56.0426 19.1767 56.0104 18.9837 55.8818 18.8228C55.8174 18.7263 55.8818 18.6942 55.9461 18.7263C56.1391 18.7263 56.3 18.855 56.3322 19.048C56.3643 19.2411 56.4608 19.3376 56.6217 19.4019C56.6861 19.4341 56.7182 19.4663 56.7826 19.4984C57.0399 19.788 57.3295 19.8845 57.7155 19.8523C57.9086 19.8202 58.1338 19.8523 58.3268 19.8202C58.5842 19.788 58.5842 19.6915 58.4877 19.4984C58.4555 19.4341 58.4233 19.3054 58.4555 19.2732C58.5198 19.1767 58.6163 19.2089 58.7129 19.2732C58.9059 19.3698 58.9381 19.3376 59.0989 19.1124C59.1311 19.048 59.2276 18.9515 59.2598 18.9837C59.485 19.1124 59.7424 18.9515 59.9676 18.9837C60.418 19.0159 60.7075 19.3054 61.0292 19.5306C61.2222 19.6593 61.3831 19.7558 61.6405 19.7236C61.7692 19.7236 61.8979 19.7558 61.9944 19.8202C62.1874 19.9167 62.3804 20.0454 62.6378 20.0132C62.7987 19.981 62.9595 20.0775 63.0882 20.174C63.5386 20.4314 64.0212 20.721 64.4716 21.0105C64.5359 21.0427 64.6003 21.1392 64.6646 21.2035C64.7933 21.3322 64.8898 21.4931 65.0185 21.5896C65.4046 21.8148 65.6298 22.1687 65.8871 22.4904C66.0802 22.7156 66.241 22.973 66.4662 23.1338C66.8201 23.3269 67.0131 23.6808 67.3027 23.906C67.4957 24.0346 67.5922 24.3564 67.9139 24.1955C67.9461 24.1955 68.0105 24.2598 68.0426 24.3242C68.3 24.5494 68.5252 24.8389 68.8147 24.9998C69.1686 25.1928 69.426 25.4824 69.6834 25.7397C69.9086 25.9649 70.0694 26.1901 70.3268 26.3832C70.4555 26.4797 70.5198 26.6727 70.745 26.544H70.8094C71.2276 26.8336 71.678 27.0588 71.8389 27.5735C71.871 27.67 71.9032 27.7987 71.871 27.8631C71.7745 28.1526 71.7424 28.4743 71.5172 28.7317C71.3563 28.9569 71.2276 29.2143 71.0668 29.4395C70.9381 29.6647 70.8737 29.922 70.6164 30.0507C70.5198 30.0829 70.4877 30.2759 70.4555 30.4046C70.3912 30.5976 70.2946 30.7263 70.166 30.8229C70.0373 30.9194 69.9086 31.0802 69.7799 31.1767C69.5547 31.3698 69.4903 31.595 69.4903 31.8523C69.4903 32.1097 69.4582 32.3993 69.426 32.6566C69.3295 33.107 68.8791 33.3322 68.4609 33.1714C68.3322 33.1392 68.2357 33.0749 68.107 33.0427C67.6244 32.9462 67.2062 32.7531 66.7879 32.4958C66.7236 32.4636 66.6592 32.4314 66.5949 32.3993C66.4662 32.3671 66.3375 32.4314 66.2732 32.5279C66.1767 32.6566 66.2088 32.7531 66.3054 32.8497C66.5627 33.107 66.4984 33.3322 66.3697 33.6218C66.1767 33.9757 65.9836 34.3617 65.8228 34.7478C65.7263 34.9408 65.6941 35.166 65.7584 35.3912C65.7906 35.4556 65.7906 35.5521 65.7906 35.6164C65.7906 35.6808 65.7263 35.7451 65.6941 35.8094C65.6619 35.7773 65.5976 35.7451 65.5654 35.7129C65.4689 35.6808 65.3724 35.6486 65.2759 35.6808C64.7933 35.8738 64.3107 35.8095 63.8603 35.6164C63.7638 35.5842 63.6995 35.6164 63.6995 35.7129C63.6995 35.7773 63.6995 35.8094 63.6673 35.8738C63.6673 35.906 63.6351 35.9381 63.6029 35.9381C63.5708 35.9381 63.5386 35.906 63.5386 35.8738C63.4421 35.166 63.056 34.6191 62.7021 34.04C62.6056 33.8792 62.5091 33.7183 62.4126 33.5253C62.3161 33.3322 62.2196 33.1392 62.0265 33.0427C61.93 32.9783 61.8335 32.8497 61.8013 32.721C61.737 32.5601 61.6405 32.4958 61.4796 32.4314C61.2866 32.3349 61.1257 32.2062 60.9327 32.1097C60.8362 32.0454 60.7075 32.0454 60.5788 32.0132C60.2893 31.981 59.9676 31.8845 59.7102 31.7558C59.5172 31.6593 59.4206 31.6593 59.3241 31.8202C59.2598 31.9167 59.1633 31.9489 59.0346 31.981C58.7129 32.0132 58.3911 32.0775 58.0694 32.1097C57.9407 32.1419 57.7799 32.1419 57.6512 32.1419C57.2651 32.0775 56.8147 32.1097 56.4608 31.9167C56.3965 31.8845 56.3 31.8523 56.2356 31.8523C55.8818 31.8845 55.5922 31.6915 55.3027 31.5628C55.1418 31.4985 55.0453 31.3376 54.9488 31.1767C54.8201 30.9515 54.7879 30.8872 54.5306 30.9515C54.048 31.0481 53.5332 31.1446 53.0507 31.2411C52.6968 31.3054 52.7289 31.3376 52.6324 30.9837C52.6324 30.9515 52.6003 30.9515 52.6003 30.9194C52.6003 31.4341 52.5037 31.5306 51.989 31.5628C51.7316 31.5628 51.4421 31.5306 51.1847 31.5306C50.67 31.4985 50.1874 31.5306 49.7048 31.6915C49.4796 31.7558 49.2544 31.8523 48.997 31.9167C48.5466 32.0454 48.1284 31.981 47.8067 31.6271C47.5815 31.3698 47.2919 31.1767 47.0024 31.048C46.745 30.9194 46.5198 31.0159 46.4555 31.3054C46.4233 31.4663 46.4555 31.6271 46.4555 31.7558C46.4555 31.981 46.3911 32.0454 46.1981 31.981C46.0372 31.9489 45.8764 31.8845 45.7155 31.8202C45.5225 31.7237 45.3938 31.5628 45.3938 31.3376C45.3938 31.1124 45.2973 31.0159 45.0721 30.9194C44.5895 30.7585 44.1391 30.6942 43.6244 30.662C43.3348 30.6298 43.0775 30.5976 42.7879 30.5976C42.4662 30.5976 42.1767 30.6298 41.8549 30.6298C41.6297 30.6298 41.5976 30.6298 41.5332 30.3724C41.5332 30.3403 41.5332 30.3081 41.501 30.2759C41.501 30.3081 41.501 30.3724 41.4689 30.4046C41.4367 30.469 41.4045 30.5011 41.3402 30.5655C41.0828 30.7263 40.8254 30.8872 40.5681 31.0802C40.1498 31.3698 39.6673 31.4663 39.1847 31.4663C38.7986 31.4663 38.7986 31.4663 38.6378 31.8523C38.5413 32.0775 38.4126 32.3027 38.2517 32.5279C38.0909 32.7853 37.8978 33.0427 37.7691 33.3001C37.6083 33.5896 37.5118 33.9435 37.1257 34.0722C37.0935 34.0722 37.0614 34.1365 37.0292 34.2009C36.9648 34.3296 36.9005 34.4261 36.804 34.5548C36.611 34.78 36.4179 35.0373 36.2892 35.3269C36.1927 35.5521 36.1606 35.5521 35.9032 35.4877C35.871 35.4877 35.7745 35.4556 35.7423 35.4877C35.5171 35.6486 35.2598 35.5842 35.0024 35.5521C34.8737 35.5521 34.745 35.5842 34.6485 35.6486C34.5198 35.7451 34.4233 35.7451 34.2946 35.6486C34.1981 35.5842 34.1016 35.5521 34.0051 35.5199C33.7799 35.4234 33.5868 35.4234 33.3616 35.5199C33.0077 35.6486 32.686 35.7129 32.3 35.6164C32.0426 35.5521 31.8174 35.4877 31.56 35.4556C31.4635 35.4556 31.367 35.4234 31.3026 35.4556C31.0131 35.5842 30.6914 35.6808 30.434 35.8738C30.0801 36.099 29.6941 36.1955 29.3402 36.3242C29.2437 36.3564 29.0506 36.3242 28.9541 36.2277C28.7933 36.0668 28.6324 36.0668 28.4394 36.0668C28.4072 36.0668 28.375 36.099 28.3107 36.099C28.2142 36.099 28.0855 36.0668 27.989 36.0668C28.0533 35.9381 28.0855 35.8094 28.1498 35.7129C28.2142 35.6486 28.3107 35.6164 28.3429 35.7773C28.3429 35.906 28.4394 35.906 28.5359 35.8738C28.6324 35.8416 28.7289 35.8416 28.8254 35.8416C28.8898 35.8416 28.9219 35.7773 28.9863 35.7773C28.9541 35.7451 28.9219 35.6486 28.8576 35.6486C28.5681 35.6164 28.4072 35.4234 28.2463 35.2304C28.182 35.166 28.0855 35.0695 27.989 35.0695C27.7316 35.0373 27.6351 34.8121 27.5064 34.6513C27.4421 34.5869 27.4742 34.3617 27.5064 34.2652C27.6994 33.9435 27.9246 33.654 27.7638 33.2679C27.7316 33.2035 27.7959 33.1392 27.7959 33.0427C27.7959 32.9462 27.8603 32.7853 27.8281 32.7531C27.6029 32.4958 27.7959 32.1097 27.5707 31.8845C27.4421 31.7558 27.249 31.6593 27.056 31.6593C26.7343 31.6593 26.4769 31.5306 26.1874 31.4985C25.93 31.4341 25.7048 31.4663 25.5439 31.6915C25.5439 31.7237 25.5118 31.7237 25.4796 31.7558C25.2222 31.8523 25.19 32.0454 25.2866 32.2706C25.3187 32.3671 25.2866 32.4636 25.2544 32.5601C25.19 32.7853 25.0292 32.9462 24.8362 33.0427C24.6431 33.1714 24.4823 33.2679 24.2249 33.1714C24.1284 33.1392 23.9997 33.2035 23.9032 33.2035C23.7423 33.2035 23.5493 33.3001 23.4528 33.0749C23.4528 33.0749 23.3563 33.0749 23.3241 33.107C23.1954 33.2035 23.0989 33.3322 22.9702 33.4609C22.938 33.4931 22.8415 33.4609 22.7772 33.4287C22.7128 33.3966 22.7128 33.2357 22.6807 33.2679C22.5841 33.2679 22.4876 33.3001 22.3911 33.3644C22.3268 33.4288 22.2946 33.5253 22.2303 33.6218C22.2303 33.6218 22.2303 33.6218 22.1981 33.6539C22.1981 33.6539 22.1981 33.6539 22.1981 33.6218C22.2303 33.6218 22.2946 33.5896 22.3268 33.5896C22.3589 33.6218 22.3589 33.6218 22.3911 33.6539C22.0372 34.04 21.6512 34.3939 21.2973 34.8121C21.0399 35.1017 20.6538 35.1017 20.3321 35.2304C20.2356 35.2625 19.9139 35.0052 19.8817 34.8443C19.7852 34.2974 19.3992 34.0722 18.9166 33.9757C18.8844 33.9757 18.8522 33.9757 18.8201 33.9435C18.5305 33.6861 18.2731 33.847 18.0479 34.04C17.9193 34.1365 17.8227 34.2652 17.7262 34.3617C17.3723 34.7478 17.3402 35.0695 17.6297 35.4877C17.7262 35.6486 17.8871 35.7451 17.7906 35.9703C17.7906 36.0025 17.8227 36.0668 17.8549 36.099C18.0158 36.3564 18.1766 36.6137 18.3375 36.8711C18.4018 36.9998 18.434 37.0963 18.3697 37.225C18.3053 37.3859 18.2731 37.6111 18.2088 37.7719C18.0801 38.0936 17.9193 38.4154 17.7584 38.7371C17.7262 38.8014 17.6941 38.8979 17.6297 38.9301C17.4045 39.0266 17.3723 39.2518 17.2115 39.4127C16.8576 39.7666 16.7289 40.2491 16.3428 40.603C16.0211 40.8926 15.8281 41.3108 15.6029 41.6647C15.4099 41.9542 15.1847 42.2116 14.9273 42.4368C14.6699 42.6298 14.4769 42.9194 14.2517 43.1446C14.1873 43.2089 14.1874 43.4341 13.9943 43.3376C13.9621 43.4341 13.8978 43.5306 13.8978 43.6272C13.8656 43.8524 13.8335 43.981 13.5761 43.981C13.4474 43.981 13.3187 44.1419 13.2544 44.2706C12.9005 44.8497 12.6431 45.4609 12.5144 46.1044C12.4501 46.4261 12.3214 46.7156 12.2249 47.0052C12.1605 47.166 11.9997 47.3269 11.9032 47.4877C11.8067 47.6164 11.7745 47.7773 11.7101 47.9381C11.678 48.0025 11.6458 48.099 11.5814 48.1633C11.3884 48.3885 11.3241 48.3564 11.131 48.1312C10.9058 47.8738 10.6806 47.6164 10.4876 47.3591C10.3911 47.2304 10.2946 47.0695 10.2302 46.9087C10.1337 46.5226 9.9407 46.1687 9.68332 45.847C9.29727 45.3966 8.81469 45.0427 8.17126 45.0749C7.7852 45.107 7.39914 45.107 7.04525 45.2357C6.69137 45.3644 6.40182 45.2357 6.11228 45.0427C6.0801 45.0427 6.11228 44.914 6.11228 44.914C6.43399 44.8497 6.59485 44.6245 6.65919 44.2706C6.65919 44.2062 6.78788 44.1419 6.85222 44.1419C7.17394 44.0454 7.23828 43.9167 7.17394 43.6272C7.17394 43.5628 7.14177 43.4985 7.1096 43.4341C6.98091 43.2089 6.85222 43.0159 6.78788 42.7585C6.75571 42.6298 6.59485 42.5333 6.46616 42.4368C6.27313 42.2759 6.27313 42.2438 6.46616 42.0829C6.62702 41.9542 6.72354 41.7612 6.62702 41.536C6.40182 40.9569 6.14445 40.41 5.46884 40.1848C5.37233 40.1526 5.30799 40.0561 5.24364 39.9918C5.14713 39.8952 5.05061 39.7987 4.9541 39.7344C4.7289 39.5735 4.76107 39.6057 4.85758 39.3162C4.98627 39.0588 5.05061 38.7692 5.11496 38.4797C5.11496 38.4475 5.11496 38.351 5.08278 38.3188C4.85758 38.0936 4.88976 37.8041 4.88976 37.5467C4.88976 37.3537 4.82541 37.2572 4.66455 37.1285C4.5037 36.9998 4.37501 36.8389 4.27849 36.6781C4.24632 36.6137 4.24632 36.5172 4.24632 36.4207C4.31067 36.1955 4.37501 36.0025 4.40718 35.8094C4.40718 35.7451 4.43935 35.7129 4.47152 35.6808C4.88975 34.973 5.27581 34.2652 5.69405 33.5253C5.8549 33.2357 5.8549 33.2357 5.53319 33.0749C5.11496 32.8818 4.66455 32.6888 4.24632 32.4636C3.92461 32.2706 3.60289 32.0775 3.31335 31.8202C3.15249 31.6915 3.12032 31.4341 2.89512 31.3376C2.70209 31.2411 2.50906 31.1124 2.28385 31.0159C2.02648 30.8872 1.83345 30.7263 1.80128 30.4368C1.76911 30.2759 1.83345 30.2116 1.99431 30.1794C2.15517 30.1794 2.28385 30.1151 2.44471 30.0507C2.60557 29.9864 2.60557 29.8899 2.44471 29.8255C2.15517 29.6968 1.96214 29.4716 1.76911 29.2786C1.64042 29.1499 1.54391 28.9891 1.41522 28.8604C1.31871 28.7317 1.19002 28.6352 1.09351 28.5387C0.99699 28.4422 0.900475 28.3135 0.836132 28.217C0.771789 28.0239 0.643102 27.8631 0.450073 27.7344C0.257043 27.6057 0.160528 27.3483 -0.161188 27.3805C-0.161188 27.3805 -0.193359 27.2518 -0.193359 27.2196C-0.161188 27.1875 -0.0968445 27.1231 -0.0325013 27.1231C0.160528 27.0909 0.289215 27.0266 0.417901 26.8657C0.546588 26.7049 0.707446 26.7049 0.868304 26.8014C0.964819 26.8336 1.06133 26.8979 1.15785 26.9301C1.31871 26.9944 1.47956 27.0909 1.64042 26.9301C1.76911 26.8014 1.96214 26.8336 2.09082 26.9944C2.25168 27.1875 2.41254 27.1875 2.63774 27.1553C2.86294 27.0909 3.15249 27.1231 3.37769 27.1553C3.60289 27.1875 3.63506 27.0588 3.66723 26.8979C3.66723 26.8336 3.66723 26.7692 3.66723 26.7049C3.63506 26.0615 3.98895 25.6754 4.56804 25.4502C4.79324 25.3537 4.92193 25.225 4.98627 24.9998C5.1793 24.3885 5.34016 23.7773 5.30799 23.1338C5.27581 22.8443 5.30799 22.5547 5.21147 22.2974C5.14713 22.1043 4.98627 21.9435 4.79324 21.8148C4.5037 21.6218 4.37501 21.3322 4.31067 21.0105C4.24632 20.7531 4.14981 20.6244 3.89244 20.5923C3.69941 20.5601 3.50638 20.4314 3.31335 20.3671C3.18466 20.3349 3.05597 20.2384 2.99163 20.4314C2.99163 20.4636 2.92729 20.4958 2.92729 20.4958C2.63774 20.3671 2.60557 20.6566 2.47688 20.7853C2.41254 20.8497 2.31603 20.8497 2.21951 20.8818C2.18734 20.7853 2.123 20.6888 2.15517 20.5923C2.18734 20.4314 2.28385 20.2706 2.3482 20.1097C2.38037 20.0454 2.44471 19.981 2.47688 19.981C2.70209 19.981 2.7986 19.8202 2.89512 19.6593C2.95946 19.5628 3.0238 19.5306 3.15249 19.595C3.31335 19.6915 3.4742 19.6593 3.63506 19.5628C3.69941 19.5306 3.79592 19.5306 3.79592 19.5306C4.02112 19.8202 3.95678 19.5306 3.98895 19.4341C4.02112 19.3376 4.05329 19.2732 4.11764 19.2089C4.27849 19.0159 4.5037 18.9515 4.63238 18.6942C4.66455 18.662 4.7289 18.5976 4.79324 18.5976C5.11496 18.5011 5.43667 18.3081 5.53319 18.0507C5.59753 17.922 5.6297 17.729 5.59753 17.5681C5.59753 17.4073 5.6297 17.3751 5.75839 17.3751C6.01576 17.3429 6.24096 17.3429 6.49834 17.3108C6.82005 17.2786 7.1096 16.796 6.94874 16.5065C6.8844 16.3778 6.8844 16.3135 6.94874 16.2491C7.07742 16.0561 7.17394 15.8631 7.14177 15.6379C7.14177 15.5735 7.17394 15.477 7.20611 15.4448C7.39914 15.3161 7.30263 15.2196 7.20611 15.0909C7.07742 14.8979 6.91657 14.8336 6.65919 14.8014C6.36965 14.8014 6.0801 14.6727 5.79056 14.6084C5.72622 14.5762 5.66187 14.5118 5.59753 14.4153C5.50102 14.2866 5.4045 14.1258 5.27581 13.9649C5.24364 13.9328 5.1793 13.9006 5.14713 13.9328C5.05061 13.9971 4.98627 13.9971 4.88976 13.9006C4.76107 13.8041 4.56804 13.7719 4.56804 13.5789C4.53587 13.2572 4.34284 13.0641 4.11764 12.8389C3.92461 12.6459 3.95678 12.5494 4.21415 12.485C4.43935 12.4207 4.63238 12.3242 4.82541 12.1955C5.05061 12.0346 5.30799 11.8416 5.6297 11.8738C5.75839 11.8738 5.75839 11.8094 5.75839 11.7451C5.66187 11.3912 5.79056 11.1017 5.95142 10.7799C6.0801 10.5226 6.14445 10.2652 5.95142 9.97565C5.79056 9.71827 5.69405 9.4609 5.82273 9.13918C5.8549 9.10701 5.82273 9.04267 5.82273 8.97833C5.72622 8.7853 5.59753 8.62444 5.50102 8.43141C5.50102 8.39924 5.46884 8.39924 5.46884 8.36707C5.43667 8.01318 5.14713 7.78798 4.98627 7.49843C4.92193 7.36975 4.85758 7.24106 4.85758 7.11237C4.85758 6.75849 4.88976 6.43677 4.92193 6.08288C4.92193 5.92202 4.92193 5.79334 4.79324 5.66465C4.69673 5.56814 4.63238 5.43945 4.56804 5.31076C4.43935 5.08556 4.5037 4.9247 4.76107 4.82819C4.85758 4.79602 5.05061 4.73167 5.08278 4.66733C5.11496 4.50647 5.08278 4.31344 4.98627 4.18476C4.85758 3.92738 4.7289 3.67001 4.69673 3.38047C4.69673 3.28395 4.60021 3.25178 4.53587 3.31612C4.43935 3.41264 4.37501 3.54132 4.27849 3.63784C4.24632 3.67001 4.21415 3.70218 4.18198 3.70218C4.14981 3.67001 4.11764 3.60567 4.11764 3.5735C4.11764 3.41264 4.14981 3.25178 4.27849 3.12309C4.43935 2.96224 4.60021 2.76921 4.76107 2.57618C4.79324 2.51183 4.88975 2.47966 4.9541 2.47966C5.30799 2.44749 5.66187 2.38315 5.8549 2.02926C5.88708 1.99709 5.95142 1.96492 6.01576 1.93274C6.14445 1.83623 6.27313 1.77189 6.36965 1.67537C6.53051 1.51451 6.59485 1.35366 6.49834 1.12845C6.46616 1.06411 6.46616 0.935424 6.49834 0.903253C6.62702 0.806738 6.78788 0.83891 6.88439 0.935424C7.07742 1.16063 7.07742 1.16063 7.27045 0.935424C7.30263 0.903253 7.36697 0.83891 7.43131 0.83891C8.07474 0.678052 8.68601 0.485022 9.36161 0.64588C9.39378 0.64588 9.42595 0.678052 9.4903 0.64588C9.97287 0.549365 10.3589 0.83891 10.745 1.03194C11.4206 1.38583 12.0962 1.77189 12.8361 1.83623C13.2865 1.8684 13.6726 1.93274 14.0587 2.15795C14.3804 2.35098 14.7021 2.22229 15.0238 2.06143C15.1847 1.96492 15.1847 1.80406 15.2168 1.67537C15.2812 1.38583 15.2812 1.38583 15.5386 1.57886C15.9246 1.8684 16.1498 1.93274 16.2142 2.15795C16.2142 2.19012 16.182 2.22229 16.1498 2.22229C16.182 2.19012 16.2142 2.19012 16.2142 2.15795ZM61.7048 19.9167C61.5761 19.8523 61.4796 19.9167 61.4474 20.0132C61.4153 20.0454 61.4474 20.1419 61.4796 20.1419C61.544 20.174 61.6405 20.2062 61.737 20.174C61.8335 20.174 61.8335 20.1097 61.7048 19.9167ZM71.0989 26.9944C71.0346 26.9301 70.9702 26.8336 70.9059 26.7692C70.8737 26.8014 70.8416 26.8336 70.8416 26.8336C70.9059 26.8979 70.9702 26.9944 71.0346 27.0588C71.0346 27.0588 71.0668 27.0266 71.0989 26.9944ZM5.43667 5.14991C5.4045 5.11773 5.4045 5.08556 5.4045 5.08556C5.37233 5.08556 5.34016 5.08556 5.30799 5.08556C5.30799 5.11773 5.30799 5.14991 5.34016 5.14991C5.37233 5.14991 5.4045 5.14991 5.43667 5.14991ZM18.2731 33.7183C18.241 33.7183 18.2088 33.6861 18.1766 33.6861C18.1445 33.7183 18.0801 33.7183 18.0479 33.7505C18.0801 33.7505 18.0801 33.7826 18.1123 33.7826C18.1766 33.7826 18.2088 33.7505 18.2731 33.7183Z" />
<path id="Vector_2" d="M63.6354 37.3538C63.5389 37.2573 63.4424 37.1608 63.3458 37.0964C63.2493 36.9999 63.185 36.9034 63.0885 36.8391C62.9276 36.7104 62.8954 36.5817 62.9598 36.4208C63.0563 36.2278 63.185 36.1313 63.4102 36.2278C63.7319 36.3565 64.0214 36.453 64.311 36.6139C64.504 36.7104 64.6649 36.7747 64.8901 36.7104C64.9866 36.6782 65.1153 36.7104 65.1796 36.7426C65.5013 36.9999 65.8552 37.0321 66.2091 36.9356C66.563 36.8391 66.7882 37.0321 66.9812 37.2251C67.1099 37.3216 67.1743 37.4825 67.2386 37.6434C67.3029 37.772 67.2386 37.9007 67.1421 37.9972C67.0456 38.0616 66.9491 38.0294 66.8525 37.9651C66.6595 37.8686 66.4343 37.8042 66.2091 37.7077C65.7909 37.5147 65.4048 37.579 65.0509 37.8364C64.9222 37.9329 64.8257 37.9651 64.6649 37.9007C64.4718 37.8042 64.2466 37.772 64.0536 37.6755C63.9249 37.6112 63.7962 37.5147 63.6676 37.4503C63.6997 37.4503 63.7319 37.4182 63.7641 37.4182C63.6997 37.386 63.6676 37.386 63.6354 37.3538Z" />
<path id="Vector_3" d="M9.03951 49.7078C8.8143 49.7078 8.68562 49.5147 8.74996 49.3539C8.91082 49.0643 8.91082 48.7104 9.20036 48.4852C9.23254 48.4852 9.23254 48.4531 9.23254 48.4209C9.29688 48.3244 9.36122 48.2279 9.42556 48.1313C9.58642 48.26 9.90814 48.1635 9.97248 48.4852C10.0047 48.6461 10.1012 48.7104 10.2299 48.7748C10.3585 48.8391 10.3585 48.9356 10.2942 49.0322C10.1333 49.193 10.0047 49.386 9.81162 49.4826C9.55425 49.5791 9.26471 49.6434 9.03951 49.7078Z" />
<path id="Vector_4" d="M58.9055 33.1072C58.9055 33.2681 58.8412 33.3324 58.6803 33.2681C58.616 33.2681 58.5838 33.2359 58.5516 33.2037C58.2299 33.0429 58.1655 32.9142 58.3586 32.5924C58.4229 32.4638 58.5194 32.4638 58.616 32.5281C58.809 32.6568 58.8733 32.882 58.9055 33.1072Z" />
<path id="Vector_5" d="M22.4551 33.5575C22.4872 33.5253 22.5194 33.4932 22.5194 33.4932C22.5516 33.4932 22.6159 33.4932 22.6481 33.4932C22.6159 33.5253 22.5838 33.5897 22.5516 33.6219C22.5516 33.6219 22.5194 33.6219 22.4872 33.654C22.4872 33.5897 22.4872 33.5575 22.4551 33.5575Z" />
</g>
</g>
<defs>
<clipPath id="clip0_29_1633">
<rect width="72.0001" height="49.4156" fill="white" transform="translate(0 0.291992)"/>
</clipPath>
</defs>
</svg>
