<svg width="57" height="62" viewBox="0 0 57 62" fill="none" xmlns="http://www.w3.org/2000/svg">
<g id="Frame" clip-path="url(#clip0_29_1690)">
<g id="Group">
<path id="Vector" d="M0.666016 26.0234C0.692772 26.0769 0.746283 26.1305 0.773039 26.1572C0.746283 26.1572 0.692772 26.1572 0.666016 26.1572C0.666016 26.1037 0.666016 26.0502 0.666016 26.0234Z" />
<path id="Vector_2" d="M10.8864 37.7694C10.6456 37.7962 10.6189 37.7694 10.6189 37.5554C10.6456 37.1808 10.7794 36.833 11.0202 36.5387C11.1005 36.4584 11.1272 36.3514 11.1807 36.2443C11.0737 36.2711 10.9934 36.2978 10.8864 36.3246C10.7794 36.3514 10.6991 36.4049 10.6724 36.5387C10.6189 37.1273 10.271 37.5821 9.8697 38.0102C9.52187 38.3581 9.17404 38.6791 8.82622 39.0002C8.63893 39.1875 8.50515 39.3748 8.61217 39.6423C8.63893 39.6958 8.63893 39.8029 8.61217 39.8564C8.58542 40.0437 8.47839 40.0972 8.31786 40.0169C8.13057 39.9366 7.94327 39.8296 7.78274 39.7226C7.11384 39.1875 6.49846 38.6256 5.82956 38.0905C5.3212 37.6892 4.83959 37.2878 4.30447 36.9132C4.19745 36.833 4.06367 36.6724 3.90314 36.8597C3.90314 36.8597 3.79611 36.833 3.76936 36.8062C3.39477 36.4316 2.93992 36.2443 2.43156 36.1373C2.32454 36.1106 2.24427 36.0838 2.21752 35.9768C2.164 35.6557 1.94996 35.4417 1.70915 35.2009C1.6824 35.1741 1.65564 35.1741 1.62889 35.1473C1.54862 35.0136 1.36133 34.9868 1.36133 34.8263C1.52186 34.8798 1.70915 34.9065 1.86969 34.9601C1.97671 34.9868 2.00347 35.1741 2.164 35.1206C2.32454 35.0403 2.53859 34.9868 2.64561 34.8798C2.85966 34.6122 3.12722 34.4517 3.44829 34.3447C3.55531 34.3179 3.66233 34.1841 3.7426 34.0771C4.01016 33.5955 4.01016 33.0871 3.92989 32.5788C3.82287 31.8564 3.55531 31.1875 3.31451 30.5186C3.15397 30.0637 2.99344 29.6089 2.85966 29.154C2.80615 29.0202 2.80615 28.9132 2.96668 28.7794C3.04695 28.6992 3.12722 28.5654 3.15397 28.4584C3.20748 28.2711 3.28775 28.1373 3.47504 28.057C3.52855 28.0303 3.60882 27.95 3.60882 27.8697C3.63558 27.7092 3.66233 27.5219 3.66233 27.3614C3.66233 27.2276 3.58207 27.0938 3.76936 27.0136C3.82287 26.9868 3.79611 26.7728 3.7426 26.6657C3.63558 26.4517 3.52855 26.2644 3.39477 26.1039C3.15397 25.756 2.88641 25.435 2.67237 25.0871C2.51183 24.8463 2.37805 24.6055 2.27103 24.3647C2.21752 24.2577 2.27103 24.0704 2.3513 23.9366C2.77939 23.241 3.76936 22.6256 4.78608 22.8932C5.13391 22.9734 5.21417 22.9199 5.37471 22.6256C5.74929 21.8764 6.07036 21.1273 6.41819 20.4049C6.4717 20.2978 6.49846 20.1908 6.52521 20.1105C6.84628 19.4416 6.76602 18.7727 6.39143 18.1574C6.20414 17.863 6.25765 17.6758 6.4717 17.4082C6.92655 16.8731 7.32789 16.3112 7.75598 15.7761C7.86301 15.6423 7.91652 15.5888 8.10381 15.6691C8.26434 15.7493 8.42488 15.6423 8.5319 15.5353C8.69244 15.4015 8.87973 15.241 9.01351 15.0537C9.65565 14.2242 10.1373 13.3145 10.6189 12.4048C10.7794 12.1373 10.6724 11.843 10.6189 11.5487C10.5921 11.3614 10.5386 11.2008 10.4851 11.0135C10.4048 10.7192 10.3781 10.4517 10.5386 10.1841C10.5921 10.1038 10.5921 9.99682 10.5654 9.91655C10.5118 9.80953 10.4316 9.8898 10.3513 9.94331C10.3245 9.94331 10.2443 9.8898 10.2443 9.86304C10.2443 9.80953 10.2443 9.72926 10.271 9.67575C10.3781 9.48846 10.4851 9.30117 10.5921 9.11388C10.6724 8.9801 10.7794 8.84632 10.7259 8.65903C10.6456 8.39147 10.6456 8.0704 10.4048 7.88311C10.3245 7.80284 10.2175 7.72257 10.1373 7.66906C9.92321 7.56203 9.89645 7.4015 9.92321 7.18745C9.97672 6.81287 10.1105 6.4918 10.271 6.17073C10.3245 6.0637 10.4048 6.03695 10.5118 6.06371C11.154 6.22424 11.7159 5.98344 12.2242 5.60886C12.4918 5.39481 12.7593 5.18076 13.0536 4.99347C13.2944 4.80618 13.5888 4.64564 13.8831 4.61889C13.9366 4.61889 14.0169 4.59213 14.0704 4.59213C14.3647 4.69916 14.6055 4.56538 14.873 4.4316C15.1674 4.27106 15.4884 4.19079 15.7827 4.05701C16.0236 3.92324 16.2644 3.78946 16.4784 3.62892C16.5587 3.57541 16.6122 3.54865 16.6924 3.60216C17.4684 4.0035 18.1908 3.78946 18.8864 3.36136C19.4215 3.01354 19.8496 2.55869 20.1975 2.02357C20.3312 1.80952 20.3312 1.80952 20.5453 1.97006C20.6523 2.05032 20.7593 2.10384 20.8664 2.1841C20.8931 2.1841 20.9199 2.1841 20.9466 2.15735C20.9466 2.15735 20.9466 2.10384 20.9199 2.07708C20.8931 2.05032 20.8664 2.02357 20.8664 1.99681C20.5721 1.67574 20.5721 1.64899 20.8396 1.32792C20.9734 1.16738 21.1339 1.06036 21.2945 0.953333C21.455 0.819553 21.5353 0.846309 21.5353 1.00684C21.5353 1.08711 21.562 1.16738 21.6423 1.06036C21.8028 0.899821 21.9634 0.71253 22.1239 0.525239C22.1506 0.471727 22.1774 0.418215 22.1774 0.364703C22.1506 0.177412 22.2577 0.204168 22.3647 0.25768C22.7928 0.444971 23.0871 0.739286 23.3814 1.08711C23.542 1.30116 23.7292 1.54196 23.8898 1.75601C23.97 1.88979 24.0771 1.97006 24.2644 1.97006C24.5587 1.97006 24.8262 2.07708 25.067 2.26437C25.2811 2.42491 25.5219 2.55869 25.8162 2.55869C25.9767 2.55869 25.9767 2.66571 25.95 2.77273C25.9232 2.93327 25.9767 2.93327 26.0838 2.87976C26.3246 2.77273 26.5386 2.66571 26.7794 2.58544C27.047 2.50517 27.0737 2.55869 27.1807 2.82624C27.261 3.01354 27.3948 3.17407 27.5018 3.33461C27.5821 3.44163 27.7426 3.57541 27.4751 3.65568C27.4483 3.65568 27.4483 3.7627 27.4751 3.81621C27.5821 4.05701 27.7426 4.24431 27.9834 4.32457C28.144 4.37809 28.1975 4.45835 28.1975 4.61889C28.1975 4.6724 28.1975 4.75267 28.1975 4.80618C28.2242 4.93996 28.2777 4.99347 28.4115 4.99347C29.0269 4.93996 29.5085 5.20752 29.9634 5.55534C30.3379 5.8229 30.7393 6.03695 31.1941 6.06371C31.5955 6.09046 31.9968 5.98344 32.3981 5.87641C32.7727 5.76939 32.8798 5.79615 33.0938 6.11722C33.1206 6.17073 33.1206 6.27775 33.1206 6.35802C33.0938 6.51856 33.0135 6.70585 33.067 6.83963C33.1206 6.94665 33.3346 7.00016 33.4684 7.08043C33.8965 7.34799 34.3513 7.58879 34.8597 7.6423C35.047 7.66906 35.0202 7.77608 34.9935 7.90986C34.8597 8.52525 34.7527 9.11388 34.6189 9.72926C34.6189 9.78277 34.6189 9.86304 34.6189 9.91655C34.6992 9.91655 34.7527 9.91655 34.8329 9.86304C35.047 9.72926 35.2343 9.78277 35.4483 9.8898C36.0637 10.2644 36.7326 10.3179 37.4282 10.3714C37.5085 10.3714 37.6155 10.3446 37.6958 10.2911C38.0971 10.0771 38.3915 10.1841 38.552 10.5854C38.6055 10.6925 38.6323 10.7995 38.6858 10.9065C38.766 11.0671 38.8731 11.1473 39.0871 11.1206C39.3012 11.0938 39.5152 11.1473 39.7293 11.1741C39.8363 11.1741 39.9433 11.2276 40.0503 11.2008C40.1841 11.1741 40.2911 11.1741 40.2911 11.3614C40.2911 11.4684 40.3714 11.4951 40.4784 11.4951C40.6657 11.4951 40.853 11.5219 41.0403 11.5219C41.0938 11.5219 41.1473 11.4951 41.1741 11.4684C41.3078 11.3079 41.4684 11.2811 41.6289 11.3881C41.7895 11.4951 41.8697 11.4416 41.95 11.2811C42.0035 11.1473 42.0838 11.1206 42.2176 11.1741C42.5921 11.3346 42.9667 11.4951 43.3145 11.6824C43.4216 11.736 43.5018 11.736 43.6089 11.6557C43.6624 11.6022 43.7426 11.5487 43.8229 11.4951C43.9567 11.4149 44.0905 11.3881 44.251 11.4684C44.4383 11.5487 44.6791 11.5754 44.8931 11.6022C45.0537 11.6289 45.1072 11.5487 45.1072 11.4149C45.1072 11.2008 45.0804 10.9868 45.1072 10.7727C45.1339 10.5854 45.1875 10.3982 45.2945 10.2376C45.3747 10.1038 45.4818 10.0236 45.6691 10.1574C45.7761 10.2376 45.8831 10.2376 45.9634 10.0503C46.0704 9.78277 46.1239 9.75602 46.3915 9.86304C46.4985 9.8898 46.6055 9.94331 46.6858 9.94331C46.8463 9.97006 46.9533 9.99682 46.9801 10.1841C46.9801 10.2109 47.0604 10.2644 47.1139 10.2644C47.2209 10.2644 47.3012 10.2644 47.4082 10.2644C47.6758 10.1841 47.6758 10.1841 47.8095 10.4249C47.863 10.5319 47.9433 10.639 48.0503 10.7192C48.1038 10.7727 48.2376 10.7995 48.3179 10.7727C48.5587 10.6925 48.7192 10.8263 48.9065 10.96C49.4416 11.4149 49.8162 11.9768 50.2711 12.4851C50.5119 12.7794 50.7794 13.0202 51.047 13.3145C51.2075 13.4751 51.3948 13.5286 51.6089 13.5286C51.7962 13.5286 51.9834 13.5018 52.144 13.5018C52.358 13.5018 52.5453 13.5018 52.7594 13.5286C52.8664 13.5554 53.0269 13.6089 53.0537 13.6891C53.1607 13.9567 53.4015 13.9834 53.6156 14.0637C54.1239 14.251 54.6055 14.4383 55.1139 14.6256C55.435 14.7326 55.7293 14.8664 56.0503 14.9734C56.0771 15.0002 56.1306 15.0269 56.1574 15.0537C56.1306 15.0804 56.1039 15.1339 56.0503 15.1339C55.6758 15.348 55.2744 15.3748 54.8463 15.348C54.2577 15.2945 53.6958 15.2142 53.1607 14.9734C53.0002 14.8931 52.9467 14.9467 52.9467 15.1072C52.9467 15.1607 52.9467 15.2142 52.9467 15.2677C52.9467 15.5353 52.9467 15.562 53.241 15.5353C53.5353 15.5085 53.7493 15.6423 53.8831 15.8831C54.2309 16.4985 54.5788 17.1139 54.8998 17.756C55.0069 17.9433 55.1139 18.0503 55.3279 18.1306C55.8095 18.2644 56.1841 18.5855 56.5319 18.9065C56.6122 18.96 56.6657 19.1473 56.639 19.1741C56.4517 19.4149 56.7995 19.8162 56.3982 19.9768C56.3714 19.9768 56.3447 20.0035 56.3179 20.0303C56.1841 20.1105 56.1306 20.1908 56.1574 20.3781C56.2109 20.6189 56.1039 20.8865 56.3447 21.0738C56.3447 21.0738 56.3714 21.1273 56.3447 21.1273C56.2376 21.6891 56.4784 22.1707 56.639 22.6791C56.7728 23.134 56.8798 23.0537 56.3447 23.2142C56.2644 23.241 56.1841 23.241 56.1039 23.2677C55.9166 23.3212 55.756 23.2677 55.6222 23.1072C55.542 22.9734 55.435 22.8664 55.3279 22.7861C55.1942 22.6524 55.0871 22.6791 55.0336 22.8664C54.9266 23.2945 54.8196 23.7493 54.7125 24.1774C54.445 25.3547 54.2042 26.5587 53.8028 27.7092C53.7226 27.9233 53.6423 28.1105 53.562 28.2978C53.455 28.5386 53.3212 28.7259 53.0804 28.8597C52.8664 28.9667 52.6791 29.1808 52.5186 29.3681C52.2778 29.6891 52.037 30.0102 51.8229 30.358C51.261 31.2945 50.5921 32.1239 49.8965 32.9801C48.7192 34.3982 47.2744 35.4952 45.8296 36.5922C45.0002 37.2076 44.1975 37.8764 43.3948 38.5186C43.2075 38.6524 43.0202 38.7861 42.8062 38.8129C42.1373 38.8664 41.5219 39.134 40.9065 39.348C39.1139 39.9902 37.348 40.6323 35.5553 41.2477C34.4316 41.6223 33.3078 41.9433 32.1841 42.2644C31.6222 42.4249 31.1941 42.746 30.8463 43.2009C30.4717 43.736 30.0169 44.1908 29.5353 44.6457C29.1339 44.9935 28.7861 45.3948 28.465 45.7962C28.251 46.037 28.2777 46.0637 28.465 46.3313C28.5721 46.4918 28.6523 46.6791 28.7326 46.8664C28.7861 47.0002 28.7593 47.1072 28.5988 47.1607C27.9567 47.4283 27.9299 47.455 27.7961 46.7326C27.7426 46.4918 27.6356 46.3848 27.3948 46.3581C27.2075 46.3581 27.047 46.3045 26.8597 46.2778C26.8329 46.4651 26.8062 46.6256 26.7794 46.8129C26.6456 47.4818 26.4851 48.1507 26.3781 48.8196C26.3246 49.1674 26.2711 49.4885 26.2443 49.8363C26.2443 49.9969 26.2175 50.1039 26.057 50.1842C25.7627 50.3447 25.6289 50.5855 25.6557 50.9066C25.6557 51.0671 25.6289 51.2276 25.6022 51.3882C25.5486 51.6557 25.4149 51.8163 25.1473 51.8163C24.9868 51.8163 24.853 51.8698 24.7727 52.0303C24.6925 52.1641 24.6389 52.2979 24.7727 52.4049C24.96 52.5387 24.9065 52.6992 24.853 52.8597C24.6925 53.3413 24.5052 53.7962 24.3446 54.2778C24.2108 54.6524 24.0503 55.027 23.97 55.4283C23.9165 55.6691 23.9165 55.9367 24.2376 56.0704C24.2644 56.0704 24.2911 56.1775 24.2644 56.231C24.1306 56.6591 23.97 57.0604 23.8363 57.4618C23.7025 57.8363 23.4349 58.0771 23.0068 58.1306C22.7928 58.1574 22.5787 58.2109 22.3914 58.2644C22.1774 58.3179 22.0436 58.4517 21.9098 58.6123C21.562 59.0136 21.5085 59.4417 21.6155 59.9233C21.6155 59.95 21.6423 60.0036 21.6155 60.0036C21.455 60.1908 21.5353 60.3514 21.5888 60.5387C21.6155 60.6457 21.562 60.6725 21.4818 60.6725C21.4015 60.6725 21.3212 60.6725 21.2677 60.6725C20.9199 60.6992 20.8664 60.7527 20.7861 61.0738C20.7326 61.3146 20.6256 61.4751 20.4383 61.6357C20.3045 61.7427 20.2242 61.7427 20.0637 61.6892C19.6356 61.5286 19.1807 61.3681 18.7259 61.2343C18.5118 61.1808 18.271 61.1541 18.0838 61.2611C17.95 61.3414 17.8965 61.2343 17.8162 61.1541C17.4416 60.6992 17.067 60.2444 16.7192 59.7628C16.4784 59.4149 16.2911 59.0136 16.1038 58.639C15.8898 58.2109 15.8095 57.7561 15.863 57.2745C15.863 57.1674 15.8898 57.0872 15.756 57.0604C15.4349 57.0069 15.1941 56.7929 15.0068 56.5521C14.6055 56.0972 14.552 56.0972 13.9901 56.3648C13.7761 56.4718 13.562 56.5788 13.348 56.6858C12.8931 56.8999 12.7326 56.8464 12.5185 56.3915C12.4918 56.3112 12.4383 56.2042 12.3848 56.124C12.1975 55.7761 12.0637 55.7226 11.6891 55.8296C11.5018 55.8831 11.3413 55.8832 11.1807 55.7226C11.0737 55.6156 10.9399 55.5353 10.8329 55.4283C10.4316 55.0537 9.92321 54.9467 9.41485 54.8129C9.30782 54.7862 9.28107 54.8129 9.25431 54.9199C9.17404 55.3213 8.87973 55.5888 8.58542 55.8564C8.5319 55.9099 8.45164 55.9634 8.39812 55.9367C8.21083 55.8564 8.18408 55.9902 8.13057 56.124C7.99679 56.4718 7.67571 56.6323 7.30113 56.5788H7.27438C6.63224 56.4718 6.52521 56.3112 6.76602 55.7226C6.89979 55.4283 7.06033 55.134 7.24762 54.8664C7.3814 54.6524 7.54194 54.4651 7.67572 54.2778C7.80949 54.0905 7.80949 54.0905 7.59545 54.037C7.32789 53.93 7.03357 53.8497 6.76602 53.9567C6.65899 53.9835 6.60548 53.93 6.57872 53.8229C6.52521 53.5286 6.44494 53.2076 6.39143 52.9132C6.36468 52.833 6.39143 52.726 6.41819 52.6724C6.4717 52.4852 6.55197 52.2979 6.65899 52.1373C6.84628 51.7895 6.87304 51.7895 7.24762 51.8965C7.83625 52.0303 8.37137 51.9768 8.87973 51.629C9.09378 51.4684 9.33458 51.3347 9.60214 51.2009C9.70916 51.1474 9.73592 51.0671 9.70916 50.9333C9.60214 50.6925 9.52187 50.425 9.41485 50.1842C9.17404 49.5688 9.01351 48.9534 9.17404 48.2845C9.2008 48.2042 9.14729 48.0704 9.09378 47.9902C8.87973 47.6959 8.79946 47.3748 8.71919 47.0537C8.69244 46.8932 8.71919 46.7594 8.90649 46.7059C9.06702 46.6524 9.2008 46.5989 9.36134 46.5186C9.38809 46.4918 9.41485 46.4918 9.46836 46.4651C9.4416 46.4383 9.41485 46.4116 9.36134 46.4116C9.2008 46.3848 9.04027 46.3581 8.87973 46.3313C8.63893 46.3045 8.39812 46.251 8.23759 46.0905C8.21083 46.0637 8.15732 45.9567 8.18408 45.93C8.23759 45.8764 8.31786 45.8229 8.37137 45.7694C8.39812 45.8229 8.42488 45.8765 8.45164 45.9032C8.47839 45.93 8.50515 45.9835 8.5319 46.0102C8.55866 45.9567 8.58542 45.93 8.61217 45.8765C8.63893 45.8497 8.61217 45.7962 8.61217 45.7427C8.63893 45.6089 8.66568 45.5554 8.77271 45.6892C8.82622 45.7694 8.87973 45.7962 8.98675 45.7694C9.22756 45.7159 9.4416 45.6624 9.68241 45.6357C9.89645 45.6089 10.0302 45.5019 10.1373 45.3146C10.2175 45.1808 10.271 45.047 10.3513 44.9132C10.4316 44.7795 10.5386 44.6457 10.6456 44.5387C10.7794 44.4049 10.8062 44.4316 10.8864 44.5922C10.9132 44.6724 10.9667 44.6992 11.0202 44.6457C11.3145 44.3781 11.6088 44.0838 11.9031 43.8162C11.9567 43.7627 11.9567 43.6557 11.9834 43.5754C12.0102 43.4149 12.0102 43.2544 11.9834 43.0938C11.9834 42.9868 11.8764 42.7995 12.1172 43.0136C12.1439 43.0136 12.251 42.9868 12.251 42.9333C12.3045 42.7728 12.3848 42.6122 12.4115 42.4517C12.5185 41.8096 12.5988 41.1674 12.7326 40.5253C12.8128 40.0972 12.9466 39.6691 13.0536 39.2142C13.0804 39.1607 13.0536 39.0537 13.0269 39.027C12.8396 38.9199 12.8128 38.7861 12.8396 38.5989C12.8664 38.4651 12.8396 38.3045 12.8396 38.144C12.7861 38.2778 12.7326 38.3848 12.6791 38.5186C12.6523 38.5989 12.6523 38.6791 12.5988 38.7594C12.5453 38.8664 12.465 38.9734 12.358 39.0537C12.2777 39.1072 12.1439 39.0805 12.0369 39.1072C12.0102 38.9734 11.9567 38.8397 12.0102 38.7326C12.0904 38.4918 12.2242 38.2778 12.3045 38.0637C12.3848 37.7694 12.4115 37.4484 12.4383 37.154C12.4383 37.1273 12.4115 37.0738 12.4115 37.047C12.4115 37.1005 12.3848 37.1273 12.3848 37.1808C12.2777 37.6892 12.1172 38.1708 11.8229 38.5989C11.7426 38.7059 11.6623 38.8397 11.5821 38.9199C11.3948 39.1072 11.2878 39.1072 11.0737 38.9734C10.8329 38.8397 10.6189 38.7059 10.3781 38.5721C10.271 38.5186 10.271 38.4918 10.3513 38.3848C10.4851 38.3045 10.6724 38.037 10.8864 37.7694C10.9667 37.7694 11.0737 37.7694 11.154 37.7427C11.1807 37.7427 11.2075 37.6892 11.2342 37.6624C11.2075 37.6356 11.154 37.5821 11.1272 37.5821C11.047 37.6356 10.9667 37.7159 10.8864 37.7694Z" />
<path id="Vector_3" d="M9.04018 43.0134C8.71911 42.9866 8.53182 42.7726 8.31777 42.6388C8.29102 42.612 8.29102 42.5318 8.29102 42.4515C8.37128 41.9699 8.45155 41.4615 8.53182 40.9799C8.58533 40.6588 8.71911 40.3378 8.9064 40.0702C9.09369 39.8294 9.30774 39.6956 9.60205 39.6689C9.86961 39.6421 10.1372 39.6154 10.378 39.4548C10.4315 39.4281 10.5385 39.4013 10.6188 39.4281C11.0469 39.5351 11.4215 39.7759 11.796 39.9899C11.9031 40.0435 11.9031 40.1237 11.8228 40.204C11.689 40.3378 11.582 40.4716 11.4482 40.5786C11.2609 40.7124 11.0736 40.8194 10.8863 40.9532C10.6723 41.0869 10.5118 41.2742 10.485 41.5418C10.485 41.6756 10.4047 41.7023 10.2977 41.6756C10.1639 41.6221 10.0301 41.5685 9.89637 41.515C9.86961 41.515 9.8161 41.515 9.78934 41.515C9.78934 41.5418 9.78935 41.5953 9.8161 41.6221C9.92312 41.8093 10.0569 41.9966 10.1372 42.2107C10.2442 42.505 10.2174 42.5318 9.92312 42.6655C9.62881 42.7993 9.33449 42.9063 9.04018 43.0134Z" />
</g>
</g>
<defs>
<clipPath id="clip0_29_1690">
<rect width="56.0001" height="61.592" fill="white" transform="translate(0.666016 0.204102)"/>
</clipPath>
</defs>
</svg>
