<svg width="72" height="43" viewBox="0 0 72 43" fill="none" xmlns="http://www.w3.org/2000/svg">
<g id="Frame" clip-path="url(#clip0_29_1663)">
<g id="Group">
<path id="Vector" d="M20.6033 37.7582C20.7531 38.0579 20.9779 38.3576 20.4535 38.5074C20.2287 38.5074 20.2287 38.5824 20.2287 38.8071C20.3036 39.1817 19.929 39.1817 19.7042 39.1817C19.4046 39.1817 19.1798 38.8071 19.4046 38.6573C19.929 38.3576 19.4795 38.0579 19.4795 37.6833C19.5544 37.6084 19.6293 37.5335 19.6293 37.5335C19.7042 37.5335 19.7792 37.5335 19.7792 37.5335C20.0788 37.5335 20.0788 37.3836 20.0788 37.1588C20.0788 37.0839 20.0788 37.0839 20.0039 37.009C19.929 37.1588 19.7792 37.2338 19.7042 37.3836C19.6293 37.4585 19.6293 37.5335 19.5544 37.6084C19.4795 37.6833 19.4046 37.7582 19.4046 37.7582C18.7303 38.2078 18.2058 37.6833 17.6813 37.3836C17.4566 37.2338 17.5315 37.0839 17.6813 36.9341C17.981 36.7093 18.2058 36.5595 18.5055 36.4096C18.6553 36.3347 18.8801 36.1849 18.5055 36.1099C17.981 36.035 17.8312 35.6604 17.9061 35.2109C17.9061 34.9861 17.9061 34.7613 17.981 34.6115C18.2058 33.9372 18.5055 33.2629 18.6553 32.5886C18.7303 32.4388 18.6553 32.214 18.5055 32.0642C18.2807 31.8394 17.981 31.6146 17.6813 31.3899C17.6064 31.3149 17.4566 31.3899 17.3817 31.3899C16.7074 31.5397 16.0331 31.6146 15.3588 31.7645C15.2089 31.7645 15.0591 31.6896 14.9092 31.5397C14.7594 31.3899 14.6096 31.1651 14.4597 30.9403C14.0851 30.341 13.5606 30.341 12.9613 30.7156C12.1371 31.24 11.313 31.6146 10.4139 32.0642C10.2641 32.1391 10.0393 31.9892 9.88947 31.9143C9.73963 31.8394 9.66471 31.6146 9.66471 31.4648C9.58978 30.6406 8.99041 30.341 8.31611 30.1911C8.01643 30.1162 7.64182 30.0413 7.41705 29.8914C7.11736 29.7416 6.96752 29.5168 6.74275 29.2921C6.81767 28.9174 6.74275 28.7676 6.59291 28.7676C5.99353 28.8425 5.76877 28.393 5.544 27.9435C5.39416 27.6438 5.24432 27.419 4.86971 27.6438C4.4951 27.8685 4.27033 27.6438 4.19541 27.2692C4.04557 26.2203 3.1465 25.9206 2.47221 25.3961C2.39728 25.3961 2.32236 25.3961 2.24744 25.3961C1.27346 25.471 0.374393 25.0215 -0.000216339 24.1974C-0.0751382 24.0475 -0.000216337 23.8228 0.0747055 23.7478C0.599159 23.2983 1.04869 22.7738 1.79791 22.6989C1.87283 22.6989 2.0976 22.5491 2.0976 22.5491C1.94775 21.9497 2.39728 21.4253 2.02267 20.8259C1.79791 20.4513 1.57314 20.1516 1.34838 19.777C1.12361 19.4773 1.12361 19.1776 1.27346 18.8779C1.4233 18.6531 1.49822 18.2785 1.49822 17.9788C1.49822 17.5293 1.72299 17.1547 2.0976 17.0049C2.32236 16.855 2.47221 16.7801 2.69697 16.6303C4.64494 15.8061 6.29322 14.5324 7.86658 13.2588C8.76564 12.5095 9.73963 11.8353 10.7885 11.161C11.1631 10.9362 11.4628 10.5616 11.6876 10.187C12.287 9.43775 12.8863 8.83838 13.9353 9.21299C14.0851 9.28791 14.3099 9.21299 14.4597 9.13807C14.9842 8.76346 15.5086 8.38885 16.0331 7.93931C16.3328 7.63963 16.6324 7.41486 17.0071 7.33994C18.1309 7.11517 19.2547 6.89041 20.3785 6.66564C20.4535 6.66564 20.6033 6.81549 20.6033 6.89041C20.7531 7.71455 21.7271 8.38885 22.4763 7.93931C23.3005 7.48978 24.0497 7.56471 24.8738 7.78947C25.9977 8.16408 27.1964 8.38885 28.3203 8.61361C28.6949 8.68853 29.0695 8.76346 29.2942 8.38885C29.5939 8.01424 30.0435 8.08916 30.493 8.16408C31.1673 8.16408 31.7667 8.16408 32.441 8.16408C32.9654 8.16408 33.5648 8.08916 34.0143 8.31392C34.6137 8.53869 35.1381 8.46377 35.5128 8.08916C36.4118 7.41486 37.3858 7.1901 38.4347 7.04025C38.5846 7.04025 38.7344 6.96533 38.8842 6.89041C39.6335 6.66564 39.7084 6.5158 39.109 5.99135C39.0341 5.99135 38.9592 5.8415 38.9592 5.69166C38.9592 5.61674 39.1839 5.54181 39.3338 5.46689C40.083 5.46689 40.9071 5.39197 41.6563 5.46689C42.031 5.46689 42.4056 5.61674 42.6303 5.8415C44.9529 7.78947 47.4253 7.48978 49.8978 6.29103C50.7219 5.91642 51.3962 5.76658 52.2203 6.06627C52.9696 6.36596 53.6438 6.66564 54.3931 6.89041C54.8426 7.04025 55.2921 7.26502 55.3671 7.78947C55.3671 7.86439 56.416 8.16408 56.4909 8.08916C56.4909 8.08916 56.4909 7.93931 56.416 7.93931C56.341 7.86439 56.1912 7.86439 56.1163 7.78947C56.0414 7.71455 56.0413 7.5647 55.9664 7.48978C56.0413 7.48978 56.1163 7.41486 56.1912 7.41486C56.341 7.41486 56.4909 7.41486 56.6407 7.41486C57.4649 7.48978 58.289 7.48978 59.1131 7.63963C59.4128 7.63963 59.7125 7.78947 59.9373 7.93931C60.5367 8.38885 61.136 8.83838 61.5856 9.36283C63.0091 11.161 64.9571 12.1349 66.9799 13.1089C67.3546 13.2588 67.7292 13.4086 68.0289 13.6334C68.1787 13.7832 68.3285 14.0829 68.4035 14.3077C68.3285 14.3826 68.1787 14.4575 68.1787 14.5324C68.1787 14.6823 68.1787 14.8321 68.1787 15.0569C68.1038 15.1318 68.0289 15.2067 68.0289 15.2067C67.8041 15.2817 67.5793 15.2817 67.3546 15.3566V15.4315C67.5793 15.3566 67.8041 15.2817 68.0289 15.2067C68.1038 15.1318 68.1787 15.0569 68.1787 15.0569C68.2536 14.8321 68.3285 14.6074 68.3285 14.3077C68.4784 14.2328 68.7031 14.1578 68.853 14.2328C69.6022 14.6074 70.2765 14.907 70.5762 15.8061C70.801 16.4055 71.3254 16.9299 71.7 17.5293C71.7749 17.6792 71.8499 17.829 71.8499 17.9788C71.6251 18.0538 71.4753 18.1287 71.2505 18.1287C70.726 18.0538 70.2765 17.9039 69.7521 17.829C69.3025 17.7541 68.853 18.2036 68.3285 17.9039C68.3285 17.9039 68.1038 18.0538 68.0289 18.2036C67.8041 18.5033 67.5793 18.8779 67.3546 19.1776C67.1298 19.4773 66.7552 19.6271 66.3806 19.7021C65.7063 19.8519 65.032 20.2265 64.3577 20.6011C64.058 20.751 63.8332 20.9757 63.4586 20.8259C63.3088 20.751 63.084 20.9008 62.8592 20.9757C62.6345 21.0506 62.3348 21.2005 62.1849 21.1256C61.8853 20.8259 61.4357 20.676 61.0611 21.4253C60.9113 21.7999 60.3868 21.5751 60.0122 21.4253C59.8624 21.3503 59.7125 21.2005 59.7125 21.5751C59.7125 22.1745 59.3379 22.4742 58.8135 22.2494C58.3639 22.0246 57.9893 22.0996 57.6147 22.4742C57.315 22.7738 56.8655 22.7738 56.416 22.624C55.8166 22.4742 55.2172 22.2494 54.6178 22.1745C54.1683 22.0996 53.8686 21.9497 53.7188 21.5751C53.7188 21.5002 53.6438 21.4253 53.5689 21.3503C53.3442 21.0506 53.1194 20.4513 52.8946 20.4513C52.52 20.4513 52.0705 20.751 51.6959 20.9757C51.3962 21.2005 51.1714 21.4253 50.8717 21.7249C50.5721 22.0246 50.5721 22.3243 50.4971 22.6989C50.4971 23.6729 50.3473 23.7478 49.3733 23.598C49.2235 23.598 48.7739 23.2983 49.0736 23.8228C49.1485 23.9726 49.0736 24.2723 48.9238 24.3472C48.699 24.6469 48.699 24.8717 48.8488 25.1713C48.8488 25.2463 48.9238 25.2463 48.9238 25.3212C49.2235 26.2203 48.9987 26.5949 48.0996 26.5949C47.4253 26.5949 47.0507 26.8946 46.6012 27.3441C46.4514 27.4939 46.3764 27.7936 46.2266 27.9435C46.0767 28.1682 46.0018 28.4679 45.7771 28.6178C45.0278 29.1422 44.2037 29.6667 43.3796 30.1911C43.1548 30.341 42.93 30.4908 42.7053 30.5657C42.3306 30.7905 42.1059 31.0902 42.2557 31.6146C42.4056 32.214 42.2557 32.3638 41.6563 32.2889C41.2068 32.214 40.8322 32.214 40.6074 31.7645C40.5325 31.6146 40.3827 31.5397 40.3078 31.4648C39.4087 31.24 39.109 30.5657 38.9592 29.7416C38.8842 29.367 38.7344 29.292 38.4347 29.5168C37.9103 29.8165 37.3109 30.1162 37.161 30.7905C37.0861 31.0153 36.7864 31.24 36.5617 31.4648C36.187 31.9143 35.8124 32.2889 35.4378 32.7385C34.9134 33.4128 34.6137 33.4128 33.8645 33.188C33.34 33.0381 32.7406 32.6635 32.0663 32.9632C31.8416 33.0381 31.467 32.9632 31.1673 33.0381C30.5679 33.1131 30.3431 33.3378 30.3431 33.9372C30.3431 34.0121 30.3431 34.087 30.3431 34.2369C30.5679 35.2858 30.8676 36.3347 31.0924 37.3836C31.0924 37.4585 31.1673 37.4585 31.1673 37.5335C31.467 38.4325 30.9425 39.0319 30.0435 38.8071C29.6688 38.7322 29.3692 38.5824 28.9946 38.957C28.6199 39.3316 28.2453 39.6313 28.3952 40.2306C28.6949 41.4294 27.571 41.804 26.9717 42.4034C26.8967 42.4783 26.672 42.4783 26.5221 42.4034C25.698 42.1037 24.8738 42.1786 24.0497 42.4034C23.5253 42.5532 23.5253 42.5532 23.4503 42.0288C23.4503 41.9538 23.4503 41.804 23.3754 41.804C22.851 41.6542 22.851 40.83 22.2516 40.7551C22.1767 40.7551 22.0268 40.5303 22.0268 40.3805C21.877 39.931 21.7271 39.4814 21.2776 39.1817C21.0528 39.0319 21.0528 38.7322 21.2776 38.4325C21.5024 38.2078 21.6522 37.9081 21.877 37.6084C22.1017 37.4585 22.2516 37.3087 22.4763 37.2338C22.6262 37.3087 22.5513 37.1588 22.4763 37.1588C22.1017 37.1588 22.1767 37.5335 22.1017 37.7582C21.5773 37.983 21.1278 37.7582 20.6033 37.7582Z" />
<path id="Vector_2" d="M34.9134 0.446777C35.5127 0.521699 35.9623 0.596621 36.4118 0.746465C36.4867 0.746465 36.6366 0.896309 36.6366 0.97123C36.6366 1.12107 36.5617 1.27092 36.4867 1.34584C36.3369 1.42076 36.1121 1.49568 35.8874 1.49568C34.7635 1.57061 33.7895 1.94521 32.8905 2.46967C32.5908 2.69443 32.0663 2.9192 31.8416 2.61951C31.6168 2.2449 32.1413 2.02014 32.4409 1.79537C32.8156 1.49568 33.1152 1.27092 33.5648 1.04615C33.9394 0.746465 34.4638 0.596621 34.9134 0.446777Z" />
<path id="Vector_3" d="M28.3209 4.26807C28.4708 4.34299 28.6955 4.34299 28.8454 4.41791C29.1451 4.56775 29.1451 4.79252 28.9203 5.01729C28.6955 5.31697 28.1711 5.46682 27.7965 5.31697C27.6466 5.24205 27.4968 5.01729 27.4219 4.86744C27.4219 4.79252 27.5717 4.56775 27.7216 4.49283C27.9463 4.34299 28.1711 4.34299 28.3209 4.26807Z" />
</g>
</g>
<defs>
<clipPath id="clip0_29_1663">
<rect width="71.9999" height="42.1061" fill="white" transform="translate(0 0.446777)"/>
</clipPath>
</defs>
</svg>
