<svg width="87" height="32" viewBox="0 0 87 32" xmlns="http://www.w3.org/2000/svg">
<g id="Frame">
<g id="Vector">
<path d="M22.5167 25.0204C21.6827 25.0563 20.4316 23.9765 20.4316 23.3286C20.4316 22.7526 20.4316 22.1767 20.5832 21.6368C20.697 21.2768 21.1519 21.0249 21.3415 20.6649C21.4552 20.4849 21.3794 20.161 21.4552 19.981C21.531 19.801 21.7585 19.729 21.948 19.585C22.0997 19.837 22.2892 20.089 22.4409 20.3409C22.5925 20.5569 22.6683 20.9169 22.8958 21.0249C24.071 21.6008 23.9194 22.7526 24.0331 23.6885C24.1469 24.5884 23.3128 24.9124 22.5167 25.0204ZM23.1377 22.654C22.986 22.4381 22.8958 22.1047 22.1424 21.9376C21.6448 21.9376 21.3959 22.3207 21.3959 22.8928C21.3959 23.3645 21.8225 23.8408 22.1424 23.8481C22.82 23.8635 23.4553 23.2719 23.1377 22.654Z" />
<path fill-rule="evenodd" clip-rule="evenodd" d="M26.3457 25.2003C31.5774 28.044 37.7947 27.756 43.9363 27.324C45.6802 27.2161 47.4241 27.1081 49.0542 27.0721C49.3168 27.0607 49.5812 27.0512 49.8467 27.0416C51.2684 26.9903 52.7228 26.9378 54.0964 26.6041C56.5226 26.0282 58.6836 24.6604 60.617 23.1486C61.5648 22.3927 62.4746 21.6008 62.8917 20.4849C63.3087 19.369 63.0433 17.9652 61.9818 17.3893C63.0812 17.1373 63.5361 15.7695 63.195 14.7616C62.8538 13.7177 61.9818 12.9618 61.1099 12.2779C64.5218 10.6221 68.3887 9.75824 72.2556 9.83023C72.9603 9.8533 73.661 9.90224 74.3591 9.951C75.8394 10.0544 77.3078 10.157 78.7763 10.0102C81.2784 9.75824 83.8942 9.03833 85.6002 7.31054C86.131 6.77061 86.7376 5.65475 86.4722 4.61088C86.2826 3.85498 85.3348 3.53102 84.5008 3.45903C81.3392 3.24461 78.154 3.1643 74.9694 3.084C67.4616 2.89471 59.9567 2.7055 52.7695 0.759364C52.6703 0.730819 52.5711 0.702049 52.4718 0.673267C51.3195 0.339101 50.1622 0.00345816 48.9405 0.00345816C48.0277 -0.0286397 47.1451 0.16824 46.2658 0.364392C46.159 0.38821 46.0523 0.412018 45.9455 0.435404C39.5386 1.87522 33.0938 3.13507 26.611 4.21493C27.1418 3.81898 26.8385 2.95509 26.2698 2.66713C25.748 2.40285 25.0984 2.44174 24.4969 2.47775C24.443 2.48098 24.3894 2.48419 24.3364 2.48715C22.6653 2.57066 20.9942 2.30301 19.3231 2.03536C18.113 1.84155 16.9028 1.64773 15.6927 1.58726C13.6644 1.47142 11.6115 1.72256 9.5661 1.97278C6.52708 2.34457 3.50471 2.71431 0.604237 1.87522C-0.153979 9.61426 -0.19189 17.3893 0.452594 25.1643C0.484339 25.6064 0.486548 26.1326 0.4889 26.6928C0.494975 28.1397 0.502003 29.8137 1.02126 30.8516C1.5816 32.0277 2.48609 31.8532 3.62763 31.633C3.95349 31.5701 4.29868 31.5035 4.66069 31.4635C8.45177 31.0676 12.3187 31.1756 16.0718 31.7875C16.1948 31.8034 16.3186 31.8209 16.4429 31.8385C17.1614 31.9399 17.8952 32.0436 18.574 31.8595C19.408 31.6435 20.1283 30.9236 20.0146 30.1317C19.9979 30.0291 19.9704 29.9178 19.9423 29.8044C19.8422 29.4004 19.7352 28.9685 20.0904 28.7999C21.114 28.6919 22.147 28.5839 23.1801 28.4759C24.2132 28.3679 25.2463 28.2599 26.2698 28.1519C26.2888 27.666 26.2983 27.1711 26.3078 26.6761C26.3172 26.1812 26.3267 25.6862 26.3457 25.2003ZM26.4594 6.55464C27.1418 5.18681 28.6203 4.57489 30.2505 4.21493C30.895 4.07095 31.6153 3.96296 32.2597 3.89097C35.7475 3.45903 39.1974 2.8471 42.6094 2.01921C42.7251 1.99091 42.8412 1.96238 42.9577 1.93376C45.3599 1.34355 47.9154 0.71567 50.2295 1.2993C50.6844 1.40728 51.1772 1.62326 51.291 2.0552C50.9687 2.0732 50.6465 2.1002 50.3242 2.12719C50.002 2.15419 49.6797 2.18119 49.3575 2.19918C56.1815 3.31504 63.157 3.85498 70.1326 3.71099C71.27 3.675 72.4452 3.675 73.6204 3.74699C76.3733 3.91455 76.8919 4.0821 78.9388 4.74341C79.0905 4.79244 79.2507 4.84419 79.4208 4.89885C80.4064 5.22281 81.8436 5.44566 83.6001 4.98239C83.7638 4.93923 83.8489 4.98239 83.6001 4.74359C82.9812 4.69788 81.3207 4.7585 80.3655 4.61088C79.2895 4.38343 80.213 3.84322 80.1167 3.78836C83.1025 3.78836 85.1249 3.66556 85.7519 4.4309C86.0173 4.75486 85.9035 5.76274 85.676 6.0867C84.5008 7.81448 82.8707 8.35441 80.7477 8.82236C78.4351 9.32629 76.0088 9.21831 73.6204 9.07432C73.1086 9.03833 72.5968 9.01133 72.085 8.98433C71.5732 8.95734 71.0614 8.93034 70.5496 8.89435L70.522 8.8928C69.8878 8.85735 69.2894 8.8239 68.6541 8.93034C68.1992 9.00233 67.7063 9.14632 67.2514 9.2903C67.1719 9.31773 67.0923 9.34531 67.0126 9.37295C65.8364 9.78038 64.6271 10.1993 63.3845 10.3342C62.0576 10.4781 60.617 10.2262 59.6313 9.32629C59.4804 9.19734 59.3475 9.05127 59.2135 8.90399C59.0109 8.68127 58.8058 8.45576 58.5319 8.28242C58.077 7.99446 57.4325 7.92247 57.0913 8.31842C58.0391 9.39828 59.2901 10.2262 60.6549 10.7301C58.1907 11.414 55.7645 12.0619 53.3382 12.7099C52.6937 12.8898 51.8217 12.9618 51.708 12.2419C51.5942 11.774 51.9734 11.342 52.4662 11.1981C53.0728 10.9821 53.9447 10.1182 53.414 9.61426L52.542 9.79423C52.997 9.2903 52.6937 8.39041 52.0113 8.24643C51.405 10.1425 50.3627 11.8794 49.3261 13.6068C49.2607 13.7158 49.1953 13.8248 49.1301 13.9337C48.7889 14.5096 48.3718 15.1216 47.7273 15.3735C47.045 15.6255 46.1351 15.1936 46.2109 14.5456C45.6043 14.9776 46.0972 15.8775 46.7038 16.3094C46.7823 16.3607 46.864 16.4119 46.9468 16.4639C47.5038 16.8133 48.1114 17.1945 48.1444 17.8212C45.6043 17.5333 43.2539 16.0215 42.0407 13.8617C41.5479 13.8977 41.2067 14.4377 41.2446 14.9056C41.2825 15.3735 41.5858 15.7695 41.927 16.1294C44.0121 18.2892 47.3862 18.9011 50.4948 18.7571C51.8639 18.709 53.233 18.5392 54.6054 18.369C56.3113 18.1575 58.0224 17.9453 59.7451 17.9652C60.5412 18.0012 61.3752 18.0732 61.9439 18.5771C62.5126 19.0811 62.5884 20.1249 61.906 20.4849C62.2851 19.909 61.7543 19.1171 61.0719 18.9371C60.3896 18.7571 59.6693 18.9731 58.9869 19.2251C58.7973 19.297 58.6457 19.369 58.5319 19.513C58.3803 19.693 58.4182 19.945 58.4561 20.1609C58.6077 21.1688 58.6077 22.3567 57.8874 23.1486C57.205 23.9765 55.537 23.9765 55.1579 23.0046C55.0991 22.8483 55.0658 22.6782 55.0332 22.5115C54.9607 22.1404 54.8913 21.7858 54.5513 21.6368C54.2822 22.1904 54.2253 22.807 54.1688 23.4195C54.1298 23.8424 54.091 24.2634 53.9826 24.6604C53.6793 25.6323 52.5041 26.5681 51.5942 25.9922C51.7269 25.8302 51.8501 25.6593 51.9734 25.4883C52.0966 25.3173 52.2198 25.1463 52.3525 24.9843L49.6229 26.0642C50.1536 25.7762 50.5707 25.3443 50.7981 24.8044L47.3482 26.1722L49.3954 24.5524C48.8268 24.7864 48.2676 25.0203 47.7084 25.2543C47.1492 25.4883 46.59 25.7222 46.0214 25.9562L47.0829 24.4444C45.4148 25.2363 43.7088 25.9202 41.927 26.3882C41.2825 26.5681 40.6001 26.7121 39.9556 26.6041C39.5737 26.5437 39.2274 26.393 38.8768 26.2405C38.6011 26.1206 38.3226 25.9995 38.0222 25.9202C37.4264 25.766 36.8307 25.7953 36.235 25.8247C35.9967 25.8365 35.7584 25.8482 35.5201 25.8482C34.1123 25.8482 32.7819 25.4444 31.4597 25.0431C30.9304 24.8824 30.4025 24.7222 29.8714 24.5884C29.2667 24.4506 28.6776 24.4154 28.0841 24.3799C27.7473 24.3597 27.4091 24.3395 27.066 24.3004C26.2035 24.1875 26.2276 23.6536 26.2597 22.9421C26.2686 22.7467 26.278 22.5379 26.2698 22.3207C26.0803 17.8932 26.0424 13.4298 26.0803 9.00233C26.0803 8.17444 26.0803 7.31054 26.4594 6.55464ZM19.8629 25.0203C19.7492 24.0485 19.6355 23.0765 19.5596 22.1047C19.5217 21.7447 19.4754 21.3848 19.4291 21.0248C19.3364 20.3049 19.2437 19.585 19.2184 18.8651C19.1933 18.1965 19.2349 17.5438 19.2768 16.8858C19.2981 16.552 19.3194 16.2168 19.3322 15.8775C19.3549 15.4239 19.3367 14.9704 19.3185 14.5168C19.3064 14.2145 19.2943 13.9121 19.2943 13.6098C19.2943 13.1588 19.3347 12.7206 19.3755 12.28C19.403 11.982 19.4306 11.683 19.4459 11.378C19.4622 11.0539 19.4575 10.7363 19.4529 10.4197C19.4467 9.99804 19.4405 9.57805 19.4838 9.14632C19.5053 8.81956 19.5756 8.50439 19.6463 8.18766C19.7002 7.94614 19.7543 7.7037 19.7871 7.45453C19.8252 7.11113 19.8346 6.75866 19.8441 6.40168C19.8535 6.04768 19.8631 5.68923 19.9008 5.33079C19.9008 5.18681 19.9008 4.89885 20.0146 4.4669C20.0904 4.03495 20.2799 3.56701 20.3558 3.49502C20.6719 3.19484 21.0232 3.21731 21.3901 3.24078C21.6832 3.25953 21.9862 3.27892 22.2892 3.13507C22.5407 3.01569 22.8848 3.07227 23.2639 3.1346C23.5707 3.18504 23.9005 3.23926 24.2227 3.20706C24.4488 3.23092 24.6917 3.22315 24.9401 3.21519C25.0665 3.21115 25.1943 3.20706 25.3221 3.20706H26.1182C26.1064 3.25751 26.0946 3.3071 26.0829 3.35608C26.0197 3.62159 25.9607 3.86944 25.9286 4.14294C25.9093 4.25333 25.9295 4.36372 25.9489 4.4693C25.9674 4.57029 25.9851 4.66688 25.9666 4.75486C25.9476 4.86285 25.8907 4.95284 25.8339 5.04283C25.777 5.13282 25.7201 5.22281 25.7012 5.33079C25.5495 6.0867 25.4737 6.8426 25.3979 7.59851C25.36 8.10245 25.36 8.60638 25.36 9.11032C25.36 9.217 25.3641 9.32759 25.3683 9.43952C25.3767 9.66745 25.3854 9.90092 25.36 10.1182C25.3473 10.2742 25.3305 10.4302 25.3136 10.5861C25.2799 10.8981 25.2463 11.2101 25.2463 11.522C25.2463 12.4218 25.2842 13.3217 25.3221 14.2215C25.3384 14.47 25.376 14.712 25.4133 14.9528C25.4626 15.2702 25.5116 15.586 25.5116 15.9135C25.5116 16.4354 25.5021 16.9573 25.4927 17.4793C25.4832 18.0012 25.4737 18.5231 25.4737 19.0451C25.4358 20.4849 25.4358 21.9247 25.4358 23.3645C25.4358 23.7291 25.4261 24.0844 25.4165 24.4352C25.4071 24.7771 25.3979 25.1147 25.3979 25.4523C25.3979 25.7937 25.4327 26.1187 25.4669 26.4383C25.4832 26.5904 25.4994 26.7412 25.5116 26.8921C25.5116 26.9388 25.5196 26.9969 25.5278 27.0566C25.5449 27.1807 25.5628 27.3114 25.5116 27.36C25.4059 27.4604 25.202 27.4986 25.0216 27.5324C25.0079 27.5349 24.9943 27.5375 24.9809 27.54C24.5867 27.6273 24.197 27.7233 23.8088 27.819C23.0769 27.9993 22.3499 28.1783 21.6068 28.2959C21.2147 28.3491 20.8019 28.2451 20.399 28.1436C20.2565 28.1077 20.1153 28.0722 19.9767 28.044C19.9767 28.032 19.9809 27.992 19.9865 27.9386C19.9977 27.832 20.0146 27.672 20.0146 27.576C20.0146 27.3734 20.0187 27.1667 20.0229 26.9588C20.0314 26.5389 20.0399 26.1135 20.0146 25.7042C19.9723 25.4632 19.903 25.2809 19.8629 25.0203ZM59.5366 12.2239C59.546 12.2419 59.5555 12.2599 59.5555 12.2779H59.7451C59.8973 12.8559 60.3645 13.162 60.8401 13.4736C61.3124 13.783 61.7929 14.0978 61.9818 14.6896C62.0232 14.8271 62.0871 14.9538 62.1482 15.075C62.3111 15.398 62.4539 15.6812 62.0955 16.0215C61.7922 16.2734 61.4511 16.5254 61.0719 16.6334C61.0461 16.6416 61.0196 16.6504 60.9927 16.6593C60.6644 16.7683 60.2758 16.8974 60.2758 16.1654C60.2758 15.8415 60.0484 15.1216 59.783 14.9416C59.7474 14.9153 59.713 14.8906 59.6801 14.8669C59.398 14.6639 59.2262 14.5403 59.328 14.1857C59.2415 14.1857 59.155 14.1834 59.0697 14.1811C58.8187 14.1744 58.5784 14.1679 58.3803 14.2217C58.2438 14.2649 58.1483 14.3858 58.0527 14.5068C57.989 14.5874 57.9254 14.668 57.8495 14.7256C57.7833 14.7676 57.7041 14.7973 57.6197 14.829C57.5591 14.8518 57.4958 14.8755 57.4325 14.9056C57.4032 14.7667 57.3514 14.6492 57.2944 14.52C57.2775 14.4819 57.2602 14.4427 57.243 14.4017C57.2361 14.3789 57.2293 14.3559 57.2224 14.3328C57.1529 14.0987 57.0776 13.8455 56.9397 13.6817C56.4468 13.1058 56.6743 12.8898 57.3567 12.7459C57.7168 12.6559 58.077 12.5569 58.4371 12.4579C58.7973 12.3589 59.1575 12.2599 59.5176 12.1699C59.5176 12.1879 59.5271 12.2059 59.5366 12.2239ZM59.9522 19.8027C60.0084 19.7221 60.0593 19.649 60.0863 19.585C60.2854 19.5985 60.4686 19.6019 60.6177 19.6046C60.8659 19.6092 61.0198 19.612 60.9961 19.657C61.0218 19.7364 61.0519 19.8147 61.0818 19.8924C61.2278 20.2725 61.3675 20.6363 60.9582 21.0248C60.7958 21.179 60.6902 21.3737 60.5805 21.5758C60.511 21.7039 60.4399 21.835 60.3516 21.9607C60.3137 21.9967 60.1242 22.1047 60.0863 22.0687C59.9725 21.9967 59.783 21.8527 59.783 21.7447C59.774 21.6335 59.7628 21.5202 59.7515 21.4059C59.7154 21.0392 59.6783 20.6616 59.7072 20.3049C59.7316 20.1194 59.8505 19.9488 59.9522 19.8027ZM17.7843 12.8492C17.953 12.6935 18.1298 12.5302 18.1948 12.314C18.2537 12.1186 18.2212 11.9231 18.186 11.7109C18.1759 11.6495 18.1654 11.5867 18.1569 11.5221C18.2328 11.1621 18.0811 10.8382 17.8536 10.6582C17.702 10.5142 17.5504 10.2262 17.5883 10.0463C17.7399 9.47033 16.9059 8.46246 15.996 8.67843C15.8444 8.42646 15.6927 8.17449 15.579 7.88653C15.5032 7.74255 15.4653 7.59857 15.4274 7.45458C15.4274 7.54003 15.4036 7.62548 15.3749 7.72876C15.3674 7.756 15.3595 7.78449 15.3515 7.81454C15.2947 8.08451 15.2568 8.35447 15.2188 8.62444C15.1809 8.8944 15.143 9.16437 15.0862 9.43434C15.0862 9.57832 14.9724 9.7223 14.8587 9.7583C14.7829 9.79429 14.5554 9.68631 14.5175 9.61431C14.4633 9.4909 14.3968 9.36749 14.3303 9.24407C14.1639 8.93554 13.9976 8.62701 14.0247 8.31848C14.0497 7.72504 14.1736 7.14726 14.2986 6.56449C14.3631 6.26354 14.4279 5.96126 14.4796 5.65481C14.4796 5.55156 14.4422 5.43647 14.4031 5.31632C14.3741 5.22704 14.3441 5.13496 14.3279 5.04289C14.29 5.07888 14.2521 5.11488 14.2521 5.15087C13.873 6.19469 13.5318 7.23852 13.1907 8.28234C13.1528 8.35433 13.1053 8.41746 13.0579 8.48046C13.0105 8.54345 12.9632 8.60644 12.9252 8.67843C12.9252 8.75042 12.9632 8.8224 13.0011 8.89439C12.9632 8.89439 12.8494 8.8944 12.8115 8.85841C12.5505 8.68491 12.3074 8.49434 12.0576 8.29846C11.9446 8.20987 11.8302 8.12019 11.7121 8.03051C11.6931 8.01251 11.6647 7.99452 11.6363 7.97652C11.6078 7.95852 11.5794 7.94052 11.5605 7.92253C11.5455 7.95092 11.5247 7.97372 11.5049 7.99533C11.4745 8.02851 11.4467 8.05891 11.4467 8.1025C11.4212 8.18746 11.4085 8.28878 11.3957 8.39129C11.3706 8.59283 11.3449 8.79897 11.2193 8.8944C10.9753 9.07968 10.6844 9.22025 10.3867 9.36405C10.2217 9.44376 10.0546 9.52446 9.89238 9.61431C9.83552 9.52433 9.78813 9.42534 9.74074 9.32635C9.69335 9.22736 9.64596 9.12838 9.5891 9.03839C9.5891 9.00239 9.39954 9.00239 9.39954 9.03839C9.09626 9.61431 8.86879 9.50633 8.45177 9.11038C8.44855 9.10655 8.44505 9.10238 8.44129 9.0979C8.26813 8.89159 7.53708 8.02053 7.31445 9.21836C7.31445 9.21836 7.1249 9.25436 7.04908 9.21836L6.02548 8.78642C6.02548 8.78642 5.98757 8.85841 5.94966 8.85841C5.83593 8.9124 5.7222 8.97539 5.60846 9.03839C5.49473 9.10138 5.381 9.16437 5.26727 9.21836C5.26727 8.99475 5.23741 8.79948 5.20419 8.58224C5.19998 8.5547 5.19571 8.5268 5.19145 8.49845C5.15353 8.42646 5.15353 8.35447 5.15353 8.28248C5.10067 8.30758 5.06624 8.35017 5.03738 8.38587C5.02485 8.40137 5.01337 8.41556 5.00189 8.42646C4.96398 8.48046 4.92607 8.52545 4.88816 8.57044C4.85025 8.61544 4.81234 8.66043 4.77443 8.71443C4.75547 8.64244 4.73652 8.57944 4.71756 8.51645C4.69861 8.45346 4.67965 8.39047 4.66069 8.31848L4.54696 7.77854C4.50658 7.8073 4.46083 7.83605 4.41399 7.86549C4.28493 7.94659 4.14767 8.03286 4.09203 8.1385C4.05412 8.24649 4.04464 8.36347 4.03517 8.48046C4.02569 8.59744 4.01621 8.71443 3.9783 8.82241C3.85652 9.1404 3.68583 9.45839 3.52515 9.75773C3.48576 9.83112 3.44696 9.90339 3.40964 9.97427C3.37173 10.0823 3.29591 10.2262 3.18217 10.2982C3.14426 10.2982 3.03053 10.2622 2.95471 10.2262C2.96987 10.183 2.99717 10.1398 3.02447 10.0967C3.06541 10.0319 3.10635 9.96707 3.10635 9.90228C3.06844 9.7043 3.03053 9.51532 2.99262 9.32634C2.95471 9.13737 2.9168 8.94839 2.87889 8.75042C2.80307 8.9304 2.68933 9.11038 2.5756 9.25436L2.34814 9.47033C2.24898 9.55402 2.121 9.61339 1.99212 9.67317C1.67754 9.8191 1.3576 9.96752 1.43828 10.4782C1.48584 10.8169 1.45881 11.1698 1.43206 11.5191C1.41616 11.7265 1.40037 11.9328 1.40037 12.134C1.40037 12.17 1.58992 12.206 1.66574 12.206C1.8553 12.206 2.04485 12.17 2.2344 12.134C2.2344 12.314 2.2344 12.53 2.15858 12.7099C2.10172 12.8179 2.03537 12.9169 1.96903 13.0159C1.90269 13.1149 1.83634 13.2139 1.77947 13.3219C1.72974 13.4635 1.71263 13.6207 1.69604 13.773C1.68734 13.8529 1.67879 13.9315 1.66574 14.0058C1.77947 13.8258 1.89321 13.6818 2.00694 13.5378C2.46187 12.8539 3.14426 12.53 3.86457 12.9259C4.44415 13.2316 4.50413 13.044 4.60195 12.7379C4.6193 12.6836 4.63785 12.6256 4.66069 12.5659C4.6852 12.4729 4.78889 12.4249 4.90011 12.3735C4.96097 12.3454 5.02408 12.3162 5.07771 12.278C5.11562 12.332 5.14406 12.395 5.17249 12.458C5.20092 12.521 5.22936 12.5839 5.26727 12.6379C5.27622 12.6549 5.28517 12.6739 5.29462 12.694C5.32519 12.7589 5.36099 12.8349 5.41891 12.8899C5.48273 12.9202 5.57341 12.874 5.64573 12.8371C5.65933 12.8302 5.67228 12.8236 5.68429 12.8179C5.76423 12.7926 5.84887 12.7495 5.9316 12.7074C6.08425 12.6297 6.23042 12.5553 6.32877 12.6019C6.48041 12.7099 6.59415 12.9979 6.59415 13.2139C6.63206 13.8258 6.63206 14.4017 6.63206 15.0136C6.63206 15.0496 6.66997 15.1216 6.70788 15.1936C6.74579 15.1576 6.7837 15.0856 6.7837 15.0496C6.86442 14.7303 6.94037 14.4064 7.01662 14.0812C7.15525 13.49 7.29489 12.8945 7.46609 12.314C7.51525 12.1973 7.67594 12.126 7.84487 12.0511C7.93651 12.0104 8.03058 11.9687 8.11058 11.918C8.12682 11.9952 8.16396 12.0723 8.2011 12.1494C8.25062 12.2523 8.30013 12.3551 8.30013 12.458C8.27431 12.8993 8.2133 13.3239 8.15306 13.7433C8.12487 13.9395 8.09684 14.1346 8.07267 14.3297C8.07267 14.3687 8.106 14.4182 8.14259 14.4726C8.17359 14.5186 8.20692 14.5682 8.22431 14.6177C8.28223 14.5627 8.31803 14.4867 8.3486 14.4218C8.35805 14.4017 8.367 14.3827 8.37595 14.3657C8.44811 14.1088 8.5031 13.8519 8.55726 13.5989C8.61692 13.3201 8.67557 13.0461 8.75506 12.7819C8.79297 12.6739 9.13417 12.5659 9.32372 12.6019C9.41358 12.619 9.4864 12.6927 9.55833 12.7655C9.63814 12.8462 9.71686 12.9259 9.81656 12.9259C9.90212 12.9259 10.036 12.8342 10.1432 12.7608C10.226 12.7041 10.2929 12.6582 10.3094 12.6739C10.5748 12.8899 10.8022 13.1419 11.0297 13.3938C11.1055 13.4658 11.1055 13.6458 11.1055 13.7538C11.1308 13.7058 11.1561 13.6538 11.1814 13.6018C11.2319 13.4978 11.2824 13.3938 11.333 13.3219C11.4088 13.2139 11.5605 13.0699 11.7121 12.9979C11.7879 12.9619 12.0154 13.1419 12.0154 13.2499C12.0154 13.5198 12.0059 13.7898 11.9964 14.0598C11.987 14.3297 11.9775 14.5997 11.9775 14.8697C11.9775 14.8899 12.0014 14.9214 12.0291 14.958C12.0507 14.9865 12.0746 15.0181 12.0912 15.0496C12.1002 15.0411 12.1112 15.0326 12.1229 15.0237C12.1607 14.9946 12.2049 14.9606 12.2049 14.9057C12.2618 14.6357 12.3187 14.3747 12.3755 14.1138C12.4324 13.8528 12.4893 13.5918 12.5461 13.3219C12.5651 13.2499 12.5935 13.1779 12.622 13.1059C12.6504 13.0339 12.6788 12.9619 12.6978 12.8899C12.7336 12.9013 12.7733 12.909 12.8119 12.9166C12.8958 12.9331 12.9751 12.9486 13.0011 12.9979C13.0769 13.1779 13.1148 13.3938 13.1148 13.5738C13.1526 14.4721 13.1905 15.3344 13.2283 16.1968L13.2285 16.2015C13.2285 16.2735 13.2664 16.3095 13.3044 16.3455C13.3044 16.3275 13.3138 16.3095 13.3233 16.2915C13.3328 16.2735 13.3423 16.2555 13.3423 16.2375C13.3779 16.0345 13.4052 15.8314 13.4319 15.6321C13.4621 15.4074 13.4916 15.1875 13.5318 14.9776C13.6456 14.3657 13.8351 13.7178 14.0247 13.1059C14.0626 13.0339 14.2142 12.9619 14.2521 12.9619C14.3659 13.0339 14.4796 13.1419 14.4796 13.2139C14.4796 13.8847 14.7483 13.705 15.0473 13.5051C15.0852 13.4798 15.1236 13.4541 15.162 13.4298C15.2757 13.3578 15.3894 13.2859 15.5032 13.2859C15.5411 13.2859 15.6169 13.4298 15.6169 13.5378L15.7306 14.2937C15.7306 14.2313 15.7283 14.1666 15.726 14.1014C15.7188 13.9035 15.7115 13.7003 15.7686 13.5378C15.8698 13.2494 16.0612 12.961 16.2357 12.698C16.2572 12.6656 16.2785 12.6336 16.2993 12.6019C16.3751 12.7099 16.4604 12.8089 16.5457 12.9079C16.631 13.0069 16.7163 13.1059 16.7921 13.2139C16.8301 13.2859 16.9059 13.3938 16.9438 13.3938C16.9893 13.3938 17.0348 13.355 17.0803 13.3161C17.1106 13.2902 17.1409 13.2643 17.1713 13.2499C17.2247 13.2194 17.2782 13.1918 17.3309 13.1646C17.4648 13.0955 17.5932 13.0292 17.702 12.9259C17.7289 12.9004 17.7565 12.8749 17.7843 12.8492Z" />
</g>
</g>
</svg>
