<svg width="73" height="50" viewBox="0 0 73 50" fill="none" xmlns="http://www.w3.org/2000/svg">
<g id="Frame" clip-path="url(#clip0_29_1678)">
<g id="Group">
<path id="Vector" d="M69.0356 38.3963C68.7663 38.4972 68.6316 38.6655 68.5307 38.9348C68.4297 39.2714 68.2614 39.608 68.0931 39.9446C68.0594 40.0456 67.9584 40.1466 67.8574 40.2139C67.6218 40.3486 67.3525 40.2812 67.0833 40.4832C66.9149 40.6515 66.5447 40.5842 66.2754 40.6179C65.1983 40.7188 64.1211 40.8198 63.0776 40.9208C62.7747 40.9545 62.7747 40.9881 62.741 41.2911C62.741 41.5604 62.741 41.8296 62.741 42.0989C62.741 42.3009 62.6737 42.4355 62.4381 42.4019C62.4044 42.4019 62.3708 42.4019 62.3371 42.4355C62.3708 42.4692 62.3708 42.5028 62.4044 42.5365C62.6064 42.6712 62.842 42.8395 63.0776 42.9068C63.3469 43.0078 63.5152 43.1424 63.6162 43.4117C63.6499 43.5463 63.7172 43.6136 63.8855 43.681C64.2221 43.782 64.4914 44.2532 64.4577 44.5898C64.3231 45.364 64.525 45.1957 63.7508 45.3977C63.0776 45.566 62.4044 45.6333 61.6976 45.5996C60.9907 45.566 60.9907 45.6333 60.7214 46.3065C60.5868 46.6768 60.3848 46.9797 60.1828 47.3163C60.1155 47.451 60.1155 47.5519 60.2165 47.6193C60.4858 47.8212 60.4858 48.0569 60.3511 48.3261C60.2838 48.4271 60.2838 48.5954 60.2838 48.6964C60.2501 48.8647 60.2838 49.033 60.2165 49.2013C60.1828 49.4033 60.1828 49.6389 59.9135 49.6726C59.6443 49.7062 59.375 49.7735 59.1393 49.5043C58.8364 49.134 58.4661 48.7974 58.1295 48.4608C58.0285 48.3598 57.8939 48.1915 57.7593 48.1578C57.4227 47.9895 57.187 47.7202 56.9178 47.4846C56.5475 47.1817 56.1772 46.8787 55.7396 46.6094C55.4703 46.4411 55.1337 46.3738 54.8645 46.2728C54.7635 46.2392 54.6288 46.1719 54.5278 46.1045C54.1912 45.9026 53.8546 45.8016 53.4507 45.8016C53.0804 45.8016 52.7102 45.7679 52.3399 45.7679C52.2389 45.7679 52.1379 45.8353 52.0706 45.9026C51.835 46.2392 51.4647 46.3738 51.0945 46.5421C50.5559 46.7777 50.0173 47.047 49.4788 47.249C48.9402 47.4846 48.4016 47.451 47.863 47.2827C47.6611 47.2153 47.4928 47.148 47.3245 47.047C46.9206 46.8451 46.5166 46.6768 46.0454 46.7777C45.6414 46.8787 45.2712 46.7441 44.9346 46.5085C44.6989 46.3402 44.497 46.2055 44.2614 46.0709C44.1267 46.0036 43.9584 45.9026 43.7901 45.9026C43.3862 45.8689 43.0496 45.7006 42.7466 45.3977C42.5783 45.2294 42.3764 45.1284 42.1407 45.162C41.8378 45.1957 41.5349 45.0947 41.2656 44.9601C41.0299 44.8591 40.7607 44.8254 40.4914 44.7581C40.2894 44.7244 40.0538 44.6908 39.9191 44.5898C39.4816 44.1859 38.943 44.0512 38.4044 43.8829C38.1015 43.782 37.7985 43.7146 37.5292 43.6137C37.1253 43.479 36.7214 43.3107 36.4184 42.9741C36.2838 42.8395 36.1155 42.7048 35.9135 42.6375C35.4086 42.4019 34.971 42.0653 34.6008 41.6277C34.4661 41.4594 34.3315 41.392 34.0959 41.493C33.8266 41.594 33.5573 41.5267 33.3217 41.392C33.2207 41.3247 33.086 41.2911 32.9851 41.2911C32.6485 41.2237 32.3118 41.1564 31.9752 41.0554C31.605 40.9208 31.2347 40.7525 30.8308 40.6515C30.5615 40.5505 30.3259 40.3822 30.1912 40.1129C29.72 39.1704 28.8448 38.6992 27.9023 38.2953C27.5657 38.1606 27.1954 37.9923 26.8925 37.824C26.7915 37.7567 26.7242 37.6221 26.6232 37.5211C26.5222 37.3528 26.4549 37.1508 26.3203 37.0498C25.8827 36.6796 25.647 36.1747 25.3441 35.7371C25.3441 35.7034 25.3104 35.7034 25.3104 35.6697C25.2095 35.3331 25.1085 34.9965 25.0748 34.6263C25.0075 34.2223 25.0412 34.2223 25.4451 34.054C25.5461 34.0204 25.7817 33.9867 25.4787 33.8521C25.3104 33.7848 25.3104 33.3135 25.4787 33.1789C25.5461 33.1115 25.647 33.0442 25.7144 32.9769C25.95 32.8086 26.0846 32.6066 26.1183 32.27C26.152 32.0344 26.1183 31.8998 25.9163 31.7651C25.6807 31.6305 25.5797 31.4622 25.5797 31.1592C25.5797 31.0246 25.5124 30.8226 25.4114 30.7553C25.1085 30.486 25.0748 30.1494 25.1421 29.7791C25.2431 29.2742 25.0075 28.904 24.7046 28.5337C24.5026 28.2981 24.3006 28.0624 24.0987 27.8605C23.9304 27.6922 23.7621 27.5239 23.5601 27.3556C23.3918 27.2209 23.2571 27.12 23.2908 26.8507C23.2908 26.716 23.1898 26.5477 23.1225 26.4131C22.9879 26.2111 22.8532 26.0092 22.7186 25.8408C22.5166 25.6052 22.3146 25.3696 22.1127 25.1676C21.978 24.9993 21.7761 24.8984 21.6414 24.73C21.3048 24.3261 20.9346 24.0232 20.497 23.7539C20.396 23.6866 20.2614 23.6192 20.194 23.5519C20.0594 23.3836 19.8911 23.3163 19.6555 23.35C19.4872 23.3836 19.4198 23.3163 19.5208 23.148C19.5881 23.0134 19.6891 22.8787 19.7564 22.7104C19.9247 22.4075 19.8911 22.2392 19.5545 22.1045C19.3862 22.0035 19.2179 21.9699 19.0496 21.8689C18.5783 21.5996 18.0734 21.364 17.6022 21.061C17.3665 20.8927 17.1646 20.6571 16.9626 20.4552C16.929 20.4215 16.8953 20.3542 16.8616 20.3205C16.424 20.1185 16.525 19.7483 16.525 19.378C16.525 19.277 16.5923 19.2097 16.626 19.1087C16.727 18.9068 16.8953 18.7385 16.9963 18.5365C17.1646 18.1662 16.8616 17.796 16.4914 17.8633C16.2557 17.8969 16.1211 17.7623 15.9528 17.695C15.7508 17.594 15.7172 17.4594 15.6835 17.2574C15.6498 16.9881 15.5489 16.7188 15.2796 16.5505C15.044 16.4159 14.8083 16.2476 14.5727 16.0793C14.2361 15.8436 14.0341 15.507 14.1015 15.0695C14.1015 14.9348 14.1015 14.8338 14.1015 14.6992C14.1015 14.5645 14.0341 14.5309 13.9332 14.6319C13.7985 14.7665 13.6975 14.6992 13.5966 14.5645C13.4619 14.3626 13.2936 14.2279 13.058 14.1606C12.7887 14.0933 12.6204 13.8913 12.5531 13.622C12.3848 13.0498 11.9135 12.7469 11.5433 12.3429C11.375 12.1746 11.072 12.0737 11.2066 11.7371C11.2066 11.7034 11.173 11.6024 11.1057 11.5688C10.7691 11.3668 10.7017 11.0302 10.6681 10.6936C10.6344 10.4916 10.6008 10.3233 10.3651 10.256C10.1968 10.1887 10.1632 10.054 10.1632 9.91938C10.1295 9.71742 10.0958 9.51546 9.99487 9.34715C9.72558 8.7076 9.38898 8.10171 9.32166 7.36118C9.32166 7.19287 9.18701 6.99091 9.08603 6.85627C8.85041 6.55332 8.81675 6.21672 8.91773 5.84645C9.08603 5.17324 9.08603 5.2069 8.44648 4.93761C8.17719 4.83663 7.94157 4.66833 7.77327 4.46636C7.60496 4.29806 7.43666 4.19708 7.20104 4.2644C6.96541 4.36538 6.79711 4.2644 6.62881 4.0961C6.42684 3.92779 6.22488 3.79315 6.02292 3.65851C5.88827 3.55753 5.82095 3.62485 5.78729 3.72583C5.61899 4.19708 5.45069 4.66833 5.82095 5.13958C5.88827 5.2069 5.92193 5.30788 5.9556 5.3752C6.05658 5.50984 6.09024 5.64449 6.02292 5.81279C5.88827 6.11573 5.88827 6.45234 5.98925 6.75529C6.02292 6.92359 6.05658 7.09189 6.1239 7.26019C6.25854 7.5968 6.35952 7.89975 6.66247 8.13537C7.06639 8.43832 7.43666 8.84224 7.77327 9.24617C7.94157 9.44813 8.07621 9.75108 8.10987 10.0204C8.17719 10.4243 8.41282 10.6599 8.6821 10.8955C9.18701 11.4341 9.6246 12.0063 9.75924 12.7805C9.82656 13.1171 9.92755 13.4201 9.92755 13.7567C9.92755 13.8577 10.0285 13.9587 10.1295 14.026C10.4661 14.2953 10.7691 14.5309 10.7354 15.0358C10.7354 15.2378 10.9374 15.3051 11.1057 15.3724C11.375 15.4734 11.6106 15.608 11.5769 15.9783C11.5769 16.0456 11.6779 16.1466 11.7452 16.1803C11.9472 16.3149 12.0818 16.4832 12.1828 16.6852C12.2501 16.8871 12.4184 16.9545 12.5867 17.0554C12.856 17.2237 12.9233 17.2911 12.755 17.594C12.6541 17.7623 12.7214 17.8969 12.8224 18.0316C12.9233 18.2336 12.957 18.4019 12.856 18.6038C12.6877 19.0077 12.755 19.277 13.0916 19.5463C13.4282 19.8156 13.6639 20.1185 13.5966 20.5898C13.5966 20.6908 13.6302 20.8591 13.7312 20.9264C14.0341 21.2293 14.1015 21.566 14.0341 21.9699C13.9668 22.2728 13.9332 22.5421 13.9332 22.8451C13.9332 23.1817 14.0341 23.2153 14.3371 23.0807C14.6737 22.9124 14.943 22.9797 15.1786 23.2826C15.3806 23.5183 15.6162 23.7539 15.8855 23.9222C16.0201 24.0232 16.1211 24.2588 16.1548 24.4271C16.2221 24.7637 16.3567 25.0667 16.626 25.3023C17.1646 25.7735 16.929 26.7497 16.424 27.0526C16.3567 27.0863 16.3231 27.12 16.2557 27.12C16.0538 27.1873 15.8518 27.2546 15.6498 27.3219C15.4479 27.3892 15.2459 27.4566 15.044 27.4902C14.741 27.4902 14.5727 27.3219 14.539 27.019C14.5054 26.7497 14.4717 26.4467 14.4717 26.1775C14.4717 25.9418 14.3707 25.8072 14.2024 25.6725C14.0341 25.5379 13.8658 25.3696 13.6975 25.2013C13.6302 25.134 13.5292 25.033 13.4282 24.9993C13.0916 24.8647 12.856 24.6291 12.6204 24.3598C12.5194 24.2251 12.3511 24.0905 12.1828 24.0232C11.5433 23.7202 11.0383 23.2826 10.6681 22.6768C10.5334 22.4748 10.4325 22.3401 10.1295 22.4411C9.86022 22.5421 9.65826 22.4075 9.55728 22.2055C9.4563 22.0035 9.52362 21.6669 9.72558 21.5323C9.96121 21.364 9.99487 21.162 9.92755 20.9264C9.82656 20.4888 9.82656 20.1185 10.1295 19.7483C10.2305 19.6136 10.2305 19.4117 10.0622 19.3107C9.89388 19.2097 9.86022 19.0751 9.86022 18.9068C9.86022 18.6375 9.72558 18.4692 9.48996 18.3682C9.32166 18.3009 9.18701 18.1662 9.08603 18.0653C8.74942 17.7286 8.44648 17.3584 8.10987 16.9881C7.90791 17.0891 7.73961 17.0554 7.53764 17.0891C7.06639 17.2237 6.99907 17.1901 6.69613 16.7861C6.56149 16.5842 6.49416 16.2812 6.15756 16.2812C5.92193 15.8436 5.48435 15.6753 5.08042 15.4061C5.0131 15.3724 4.97944 15.2714 4.91212 15.2378C4.57551 14.9012 4.27256 14.5982 3.93596 14.2616C3.86864 14.1943 3.76766 14.127 3.70033 14.026C3.43105 13.7567 3.39739 13.4201 3.66667 13.1508C3.73399 13.0835 3.86864 13.0498 3.96962 13.0835C4.33989 13.1171 4.74381 13.1845 5.11408 13.2518C5.61899 13.3528 5.85461 13.1508 5.98925 12.6796C6.09024 12.242 6.02292 11.8717 5.68631 11.5014C5.41703 11.1985 5.24872 10.8282 5.04676 10.4916C4.87846 10.2223 4.74381 9.95304 4.40721 9.88572C4.33989 9.88572 4.2389 9.78474 4.17158 9.75108C3.93596 9.54912 3.70033 9.34715 3.43105 9.17885C3.02712 8.8759 2.72418 8.5393 2.65686 8.00073C2.6232 7.73144 2.58953 7.4285 2.45489 7.19287C2.21927 6.82261 2.05096 6.45234 2.18561 5.98109C2.21927 5.91377 2.11829 5.77913 2.05096 5.67815C1.91632 5.34154 1.74802 5.00493 1.61338 4.63467C1.47873 4.29806 1.41141 3.96146 1.20945 3.62485C1.14213 3.49021 1.10847 3.22092 1.14213 3.01896C1.14213 2.85066 1.14213 2.71601 1.00749 2.58137C0.872844 2.41307 0.805523 2.24476 0.704541 2.0428C0.603559 1.84084 0.536238 1.60521 0.435256 1.40325C0.266953 1.06664 0.367935 0.730038 0.367935 0.427092C0.367935 0.393431 0.468917 0.29245 0.536238 0.29245C0.63722 0.258789 0.738201 0.29245 0.872844 0.29245C2.58953 0.258789 4.30623 0.258789 6.05658 0.258789C6.1239 0.258789 6.19122 0.258789 6.25854 0.258789C6.52782 0.29245 6.59515 0.32611 6.56149 0.595395C6.56149 0.662716 6.52782 0.696377 6.52782 0.763698C6.49416 0.86468 6.39318 1.03298 6.42684 1.1003C6.49416 1.20129 6.62881 1.23495 6.76345 1.30227C8.21086 1.97548 9.65826 2.61503 11.1057 3.28824C12.1155 3.75949 13.1253 4.19708 14.1688 4.66833C14.3034 4.73565 14.4381 4.76931 14.539 4.76931C15.0103 4.80297 15.4479 4.83663 15.9191 4.87029C16.7943 4.90395 17.7031 4.90395 18.5783 4.93761C18.9822 4.93761 19.4198 5.00493 19.8238 5.0386C20.2614 5.07226 20.2614 5.03859 20.3287 4.60101C20.3287 4.56735 20.3287 4.53369 20.3287 4.53369C20.4297 3.99512 20.4633 3.89413 21.0355 3.92779C22.0454 3.96146 23.0552 4.06244 24.065 4.12976C24.1323 4.12976 24.166 4.16342 24.2333 4.16342C24.7382 4.06244 25.0075 4.36538 25.2768 4.70199C25.3778 4.83663 25.5461 4.90395 25.647 5.0386C26.0173 5.40886 26.3876 5.81279 26.7578 6.18306C26.8925 6.3177 27.0271 6.486 27.1954 6.58698C27.734 6.95725 28.2389 7.32752 28.4072 8.00073C28.4072 8.06805 28.4745 8.13537 28.5082 8.16903C28.9458 8.37099 28.9121 8.74126 28.8448 9.07787C28.7775 9.54912 28.9794 9.88572 29.3497 10.1213C29.4844 10.2223 29.5853 10.3233 29.72 10.4243C30.0229 10.6263 30.2922 10.8619 30.5952 11.0302C30.9318 11.2321 31.2684 11.4004 31.6386 11.5688C31.7396 11.6361 31.8406 11.6361 31.9079 11.5351C32.0762 11.2995 32.3118 11.0975 32.3792 10.7609C32.4801 10.3233 32.8504 10.0204 33.2207 9.75108C33.3217 9.68376 33.4226 9.61644 33.49 9.51546C33.6246 9.31349 33.7929 9.24617 33.9949 9.31349C34.4998 9.4818 35.0047 9.58278 35.5433 9.54912C36.0482 9.54912 36.4858 9.8184 36.7887 10.256C36.9234 10.4243 37.058 10.5926 37.2263 10.6936C37.6639 10.9629 37.9332 11.3331 38.1351 11.8044C38.3708 12.3766 38.6064 12.9825 38.8757 13.5547C38.9093 13.5884 38.9093 13.6557 38.943 13.6894C39.2123 13.925 39.4816 14.127 39.7172 14.3626C39.8518 14.4636 39.9528 14.6319 40.0201 14.7665C40.0874 15.0021 40.1884 15.1704 40.4241 15.2714C40.6597 15.3387 40.828 15.5407 40.7607 15.8436C40.7607 15.9446 40.7607 16.0456 40.7607 16.1129C40.626 16.7188 40.9963 17.0891 41.3666 17.4594C41.5012 17.5603 41.5349 17.6613 41.5349 17.8296C41.5349 17.9643 41.5349 18.0652 41.5685 18.1999C41.6022 18.4355 41.7368 18.5365 41.9724 18.6038C42.3427 18.7048 42.713 18.8394 43.0832 18.9404C43.1506 18.9741 43.2179 19.0077 43.2515 19.0414C43.4872 19.3444 43.8238 19.3444 44.1604 19.3107C44.295 19.277 44.4633 19.277 44.598 19.2434C44.9009 19.2097 45.1702 19.2434 45.3048 19.5463C45.3722 19.681 45.4731 19.681 45.6078 19.6136C46.079 19.378 46.5503 19.7483 46.4493 20.2532C46.3483 20.7918 46.18 21.3303 46.0117 21.8352C45.9444 22.0372 45.7761 22.2392 45.6078 22.3738C45.2375 22.6768 45.2375 23.0807 45.2039 23.4846C45.2039 23.5183 45.2375 23.5856 45.2375 23.6529C45.2039 24.2925 45.1702 24.8984 45.1029 25.5379C45.0692 25.8745 45.0692 26.1775 45.1702 26.4804C45.3048 26.918 45.2712 27.3556 45.1365 27.8268C45.0356 28.2308 45.1029 28.6347 45.1365 29.0723C45.1702 29.3752 45.2375 29.6445 45.2712 29.9474C45.3385 30.385 45.6751 30.6207 45.9107 30.9236C45.9444 30.9909 46.0117 31.0246 46.079 31.0582C46.4156 31.3275 46.483 31.5632 46.3147 31.9334C46.18 32.2364 46.2137 32.472 46.3483 32.7749C46.6849 33.3808 47.0215 33.9531 47.5264 34.3906C47.6611 34.5253 47.7284 34.7272 47.863 34.8619C48.0987 35.0975 48.267 35.4005 48.5699 35.5688C48.8055 35.7034 48.8392 35.9727 48.8729 36.242C48.8729 36.4439 48.9065 36.6122 48.9738 36.7805C49.0075 36.9825 49.1085 37.1508 49.3105 37.2518C49.3778 37.2855 49.4788 37.3191 49.4788 37.3528C49.4451 37.723 49.849 37.824 49.95 38.127C49.9837 38.228 50.152 38.3626 50.2529 38.3963C50.5896 38.4636 50.9262 38.4972 51.2964 38.5646C51.3637 38.5646 51.4647 38.5309 51.5321 38.5646C52.1043 38.8002 52.7775 38.8675 53.1478 39.4397C53.2151 39.5407 53.2824 39.6417 53.3834 39.709C53.4507 39.7763 53.518 39.8437 53.5853 39.81C53.8883 39.7427 54.1912 39.6417 54.4942 39.5407C54.5278 39.5407 54.5952 39.4734 54.6288 39.4734C54.9991 39.5071 55.2011 39.2041 55.4367 39.0021C55.6723 38.8002 55.9079 38.7665 56.2109 38.8338C56.5475 38.9012 56.8841 38.8675 57.2207 38.8675C57.288 38.8675 57.389 38.7665 57.4563 38.6655C57.7256 38.2953 58.0622 38.1606 58.4998 38.127C58.7691 38.127 59.0047 38.0933 59.2403 38.026C59.476 37.9587 59.6779 37.9587 59.8799 38.127C59.9472 38.1943 60.0482 38.228 60.1155 38.2953C60.3175 38.4299 60.3511 38.4299 60.3511 38.1606C60.3511 37.9587 60.4521 37.8577 60.5868 37.7567C61.058 37.4201 61.4956 37.0835 61.9668 36.7805C62.1351 36.6459 62.2361 36.5449 62.2025 36.3093C62.1688 35.8044 62.2698 35.3668 62.6064 34.9629C62.6737 34.8619 62.6737 34.7272 62.6737 34.5926C62.6737 33.9867 62.6737 33.4145 62.6737 32.8086C62.6737 32.371 62.8757 32.0007 63.2123 31.7315C63.5489 31.4622 63.8182 31.0919 64.2558 30.9909C64.6597 30.8563 65.03 30.6543 65.4675 30.6207C65.9051 30.587 66.3427 30.4524 66.713 30.2504C67.3525 29.8801 68.0594 29.7455 68.7999 29.7118C69.1365 29.7118 69.4732 29.7791 69.8098 29.7455C70.079 29.7118 70.3483 29.6445 70.6176 29.5435C70.9879 29.3752 71.2908 29.4089 71.5938 29.6782C71.6274 29.7118 71.6611 29.7455 71.7284 29.7791C72.2333 29.9811 72.267 30.4524 72.3006 30.9236C72.368 31.6641 72.0314 32.2027 71.5938 32.7413C71.3581 33.0442 71.0889 33.3808 70.9879 33.7174C70.8869 34.0204 71.0215 34.357 71.0552 34.6936C71.0552 34.8282 71.1562 34.9629 71.1562 35.0975C71.1225 35.5688 71.0215 36.04 70.9542 36.4776C70.9206 36.6796 70.8869 36.8815 70.8532 37.0835C70.8196 37.2181 70.8532 37.3528 70.7859 37.4201C70.6176 37.6894 70.584 37.925 70.6849 38.228C70.7186 38.2953 70.6513 38.3963 70.6176 38.4636C70.584 38.5309 70.5166 38.5646 70.5166 38.6319C70.5503 39.0695 70.18 39.0695 69.9444 39.2041C69.9107 39.2378 69.8434 39.2378 69.8098 39.2041C69.5405 39.0021 69.2712 38.8002 69.0356 38.5982C69.0356 38.5309 69.0356 38.4299 69.0356 38.3963Z" />
</g>
</g>
<defs>
<clipPath id="clip0_29_1678">
<rect width="72" height="49.4811" fill="white" transform="translate(0.333008 0.259277)"/>
</clipPath>
</defs>
</svg>
