<svg width="73" height="66" viewBox="0 0 73 66" fill="none" xmlns="http://www.w3.org/2000/svg">
<g id="Frame" clip-path="url(#clip0_29_1644)">
<g id="Group">
<path id="Vector" d="M64.1363 4.91765C64.1363 4.88547 64.1685 4.85328 64.1685 4.82109C64.2007 4.75672 64.2651 4.69235 64.2972 4.59579C64.3616 4.69235 64.5225 4.78891 64.5225 4.85328C64.5547 5.97979 64.8122 7.04192 65.2306 8.07187C65.4238 8.52248 65.5525 8.97308 65.7456 9.3915C65.7456 9.42368 65.7778 9.45587 65.7778 9.45587C65.6169 10.003 65.9709 10.518 66.0031 11.033C66.0031 11.4192 65.9709 11.7733 65.7778 12.0951C65.5847 12.417 65.4559 12.8032 65.2628 13.1251C65.2306 13.1894 65.1985 13.286 65.1663 13.3182C64.8444 13.8332 64.5226 14.3159 64.1685 14.7987C63.9754 15.0884 63.7501 15.3781 63.5248 15.6678C63.4926 15.6999 63.4604 15.7643 63.4282 15.7643C62.7523 16.054 62.5914 16.6977 62.3983 17.3092C62.3661 17.438 62.3017 17.5667 62.2374 17.6955C62.2052 17.7598 62.1408 17.8242 62.1408 17.8564C62.3339 18.1139 62.0764 18.2748 62.0121 18.4679C61.8511 19.1438 61.658 19.8197 61.4971 20.4956C61.4971 20.5278 61.4649 20.5922 61.4327 20.6244C61.4005 20.5922 61.3683 20.56 61.3361 20.5278C61.304 20.4635 61.2396 20.3669 61.2074 20.3991C61.0143 20.4313 60.8534 20.4956 60.6924 20.56C60.6924 20.56 60.6924 20.6244 60.6924 20.6566C60.7246 20.7209 60.7246 20.7853 60.7568 20.8819C60.6602 20.9141 60.5637 20.9141 60.4671 20.9462C60.4349 20.9462 60.4028 20.9141 60.3706 20.9141C60.2096 20.9462 60.0809 21.0106 59.92 21.075C59.9843 21.2359 59.8234 21.4934 60.0809 21.6222C60.1453 21.6543 60.1453 21.7831 60.2096 21.8475C60.3062 21.9762 60.3706 22.1693 60.4993 22.2659C60.5637 22.2981 60.7568 22.2337 60.8212 22.1693C60.9177 22.0084 60.9499 21.8475 60.9821 21.6543C61.0787 21.429 61.143 21.2037 61.2396 20.9784C61.2396 20.9462 61.304 20.9141 61.3683 20.9141C61.3683 20.9462 61.4005 20.9784 61.4005 21.0106C61.3361 21.5256 61.3361 22.0728 61.2074 22.5877C61.143 22.9096 61.143 23.2636 61.0143 23.5855C60.8855 23.9074 60.789 24.2614 60.7246 24.6154C60.4993 26.0638 60.4349 27.48 60.7246 28.9284C60.9177 29.9583 61.0787 30.9883 61.2718 32.0182C61.304 32.147 61.304 32.2757 61.3683 32.3401C61.5936 32.5654 61.5293 32.7907 61.4327 33.016C61.0787 34.0781 60.8855 35.1724 60.8855 36.2989C60.8855 37.2001 60.9821 38.0692 61.6258 38.7773C61.8189 38.9704 61.8511 39.9038 61.6902 40.0969C61.6258 40.1613 61.4971 40.2256 61.4005 40.2256C61.2074 40.2256 61.0143 40.2256 60.8212 40.2256C60.5315 40.2256 60.274 40.2578 60.0487 40.4509C59.9521 40.5153 59.8234 40.5153 59.6947 40.5797C59.4694 40.3544 59.6625 40.1934 59.7912 40.0325C60.0809 39.6785 60.1131 39.6463 59.8556 39.26C59.5981 38.8738 59.5015 38.4554 59.5981 38.0048C59.6303 37.8439 59.6303 37.7151 59.6625 37.5542C59.7912 37.5864 59.9521 37.6186 60.0809 37.6186C60.2096 37.6186 60.4349 37.5864 60.4671 37.522C60.5959 37.2323 60.7246 36.9427 60.6924 36.653C60.6602 36.2346 60.4993 35.8161 60.7246 35.3655C60.7246 35.3334 60.7246 35.3012 60.7246 35.3012C60.5637 35.0759 60.7246 34.9149 60.8534 34.754C60.9821 34.5931 61.0465 34.4322 60.9177 34.2712C60.5959 33.8206 59.9843 33.7241 59.5659 34.0459C59.5015 34.0781 59.4694 34.1747 59.4372 34.239C59.405 34.3678 59.405 34.4965 59.405 34.6253C59.405 34.6896 59.4372 34.7862 59.4372 34.7862C59.8556 34.7862 59.9843 35.0115 59.8878 35.3655C60.2096 35.6552 60.0487 36.0736 60.1453 36.4277C60.2096 36.6852 59.9843 36.8461 59.7912 37.007C59.6947 37.0714 59.5659 37.1358 59.5015 37.2323C59.1797 37.5864 58.8256 37.7795 58.375 37.7795C58.1819 37.7795 57.9888 37.876 57.8279 37.9726C57.667 38.0692 57.5704 38.6807 57.667 38.8416C57.6991 38.8738 57.7957 38.8416 57.8279 38.8738C57.9566 38.906 58.2141 38.906 58.2141 38.9704C58.2785 39.3566 58.3428 39.7106 58.3428 40.0969C58.375 40.3222 58.3107 40.5797 58.3428 40.805C58.375 41.0625 58.5682 41.0946 58.7613 40.9337C58.89 40.8372 58.9544 40.7084 59.0831 40.6119C59.1153 40.5797 59.1475 40.5475 59.2119 40.5153C59.2441 40.5475 59.2762 40.6119 59.2762 40.644C59.2762 40.7084 59.2762 40.7728 59.2762 40.8372C59.2762 40.8693 59.3084 40.9015 59.3084 40.9659C59.3406 40.9337 59.3728 40.9337 59.405 40.9015C59.5337 40.7728 59.6625 40.6762 59.7912 40.5475C59.8556 40.7084 59.9521 40.8372 59.7912 40.9981C59.2441 41.7384 58.9866 42.5752 58.9544 43.4764C58.9222 44.281 58.9866 45.0857 58.9866 45.8903C58.9866 45.9225 58.9544 45.9869 58.9544 46.0191C58.9222 45.9869 58.89 45.9547 58.8578 45.9225C58.7613 45.7294 58.6647 45.826 58.6325 45.9547C58.4394 46.3088 58.2785 46.6628 58.375 47.0812C58.4072 47.2743 58.4394 47.4675 58.4716 47.6606C58.4716 47.7249 58.4716 47.7893 58.4394 47.8537C58.3428 47.8215 58.2463 47.7893 58.1819 47.6928C58.1175 47.564 58.0532 47.4353 58.0532 47.3065C58.0532 46.7272 58.0854 46.1478 58.5681 45.7294C58.6969 45.6329 58.6325 45.5685 58.5681 45.4397C58.4716 45.2788 58.375 45.1179 58.3107 44.9248C58.2141 44.6673 58.2785 44.6029 58.5681 44.5707C58.6969 44.5385 58.7613 44.5707 58.6969 44.3776C58.6325 44.1845 58.7291 43.927 58.5681 43.7339C58.5038 43.6695 58.4394 43.573 58.375 43.5086C58.3429 43.4764 58.3107 43.5086 58.2785 43.5086C58.2785 43.5408 58.2785 43.573 58.2785 43.6051C58.6969 43.9592 58.4072 44.281 58.2463 44.6029C58.2141 44.6673 58.1819 44.7638 58.1497 44.8282C58.0532 45.0213 58.1497 45.2788 57.8601 45.4397C57.7635 45.4719 57.7957 45.7294 57.7635 45.9225C57.7635 46.0191 57.7313 46.1156 57.7635 46.2122C57.8601 46.7272 57.4095 46.9847 57.2485 47.3709C57.2163 47.4675 57.0554 47.4996 56.9589 47.5962C56.7336 47.7571 56.7336 47.8215 56.9267 48.0468C57.1198 48.2721 57.2485 48.5618 57.4095 48.8193C57.5382 49.0124 57.6991 49.0446 57.8923 48.9802C58.021 48.948 58.1175 48.8836 58.0854 48.6905C58.0532 48.594 58.0532 48.4652 58.0854 48.3687C58.1497 48.0146 58.3429 47.9502 58.6325 48.1755C58.6647 48.2077 58.6969 48.3043 58.6969 48.3687C58.7613 48.5296 58.7935 48.6905 58.8578 48.8515C58.9222 49.0446 59.0509 49.2377 59.0831 49.4308C59.2441 50.1711 59.3728 50.9114 59.5015 51.6516C59.5015 51.7482 59.5337 51.8769 59.5015 51.9091C59.3406 52.0379 59.2762 52.1988 59.2441 52.3919C59.2441 52.4241 59.0831 52.4885 59.0188 52.4885C58.8256 52.4885 58.6003 52.4563 58.4072 52.4563C58.021 52.4563 57.9566 52.4885 57.8279 52.8425C57.7635 52.9713 57.7635 53.1 57.6991 53.2609C57.5704 53.5828 57.4416 53.9046 57.2807 54.1943C57.2485 54.2587 57.1198 54.2909 57.0554 54.2587C56.8623 54.2265 56.7979 54.3231 56.6692 54.4518C55.9611 55.2243 56.1542 56.1255 56.2508 57.0267C56.4117 58.2497 56.9267 59.3441 57.4416 60.4384C57.5704 60.7281 57.7635 61.0177 57.9888 61.243C58.1497 61.4362 58.375 61.5649 58.6003 61.6615C58.89 61.7902 58.9866 61.9833 59.0831 62.2408C59.2119 62.5305 59.1797 62.788 59.1153 63.0454C59.0831 63.1098 59.1797 63.2386 59.2119 63.3029C59.3728 63.5926 59.3084 63.7535 59.0188 63.8823C58.89 63.9145 58.7613 63.9145 58.6325 63.9467C58.375 64.011 58.0854 64.0754 57.8279 64.172C57.506 64.3007 57.1842 64.4294 56.8623 64.5904C56.8301 64.5904 56.7657 64.6226 56.7657 64.6226C56.4761 65.0088 56.0255 65.0088 55.607 65.0732C55.253 65.1375 54.9633 64.9122 54.738 64.6869C54.4805 64.4616 54.2874 64.2041 54.0621 63.9788C54.0299 63.9467 53.9978 63.9467 53.9656 63.9467C53.9334 64.3007 53.4506 63.9788 53.354 64.3007C53.354 64.3329 53.0965 64.3007 53.0322 64.2685C52.9034 64.172 52.8069 64.1398 52.7103 64.2363C52.5816 64.3651 52.485 64.3007 52.4206 64.1398C52.3563 63.9788 52.2275 63.9467 52.0666 63.9788C51.8735 63.9788 51.7125 64.011 51.5194 64.011C51.4551 64.011 51.3585 63.9788 51.3585 63.9788C51.3585 63.7857 51.1976 63.7857 51.0688 63.7214C50.9079 63.657 50.8435 63.5604 51.0045 63.3995C51.2619 63.142 51.2298 62.8845 50.9401 62.6592C50.8435 62.5948 50.747 62.5305 50.6504 62.4983C50.4251 62.4017 50.1354 62.4339 50.0711 62.1121L50.0389 62.0799C49.6526 62.1121 49.5239 61.8224 49.3308 61.5649C49.2664 61.4683 49.2342 61.4362 49.2664 61.3074C49.2986 61.1787 49.2342 61.0499 49.202 60.9212C49.1377 60.9534 49.0411 61.0177 48.9767 61.0499C48.9124 61.0821 48.848 61.0821 48.7836 61.1143C48.6871 61.1465 48.5583 61.1787 48.494 61.243C48.2365 61.5005 47.8824 61.5005 47.6893 61.1787C47.464 60.8246 47.11 60.5993 46.7237 60.4706C46.4984 60.4062 46.2088 60.374 46.08 60.0843C46.08 60.0522 45.9191 60.0522 45.8547 60.0843C45.6616 60.1809 45.5329 60.1487 45.3397 60.0522C45.0179 59.8912 44.696 59.6016 44.3742 59.6016C44.0845 59.6016 43.7948 59.9234 43.4729 60.1165C42.7649 60.5671 42.089 60.9855 41.3809 61.4362C41.2199 61.5327 41.0912 61.5649 40.8981 61.5005C39.5785 60.9855 38.2588 60.535 36.9392 60.02C36.392 59.7947 35.8449 59.505 35.2977 59.2153C34.9115 58.99 34.4931 58.9257 34.0425 58.8613C33.2378 58.7969 32.4654 58.5394 31.886 57.8957C31.6607 57.6382 31.371 57.606 31.0814 57.5738C31.017 57.5738 30.8883 57.6704 30.8239 57.767C30.502 58.3141 30.1802 58.8291 29.8583 59.4084C29.7617 59.6016 29.633 59.6659 29.4399 59.6016C29.0858 59.4728 28.764 59.3119 28.4099 59.151C28.3134 59.1188 28.2168 58.99 28.2168 58.8935C28.1203 58.1854 27.6053 57.7348 27.1225 57.2842C26.9616 57.1554 26.8328 56.9623 26.7363 56.8014C26.4466 56.3508 26.0282 55.9967 25.5454 55.7392C25.2557 55.5783 24.9982 55.2886 24.7407 55.0312C24.7086 54.999 24.7086 54.9346 24.6442 54.9024C24.097 54.5805 23.7752 53.9046 23.0993 53.7115C22.9061 53.6472 22.8418 53.5184 22.7774 53.3575C22.6808 53.1644 22.5843 52.9391 22.4234 52.8425C21.9406 52.4885 21.4578 52.1666 20.9428 51.8769C20.5244 51.6194 20.1382 51.362 19.8163 50.9757C19.5588 50.6539 19.2369 50.4286 18.9151 50.2033C18.5932 49.9458 18.2392 49.7205 17.8851 49.4308C17.7886 49.3664 17.692 49.2699 17.692 49.1733C17.5955 48.5618 17.2092 48.2077 16.7586 47.8537C16.6299 47.7571 16.5011 47.6928 16.4046 47.564C16.308 47.4675 16.2437 47.3387 16.2115 47.21C16.2115 46.9525 16.0827 46.7594 15.8896 46.5662C15.3103 46.0191 14.924 45.3432 14.6022 44.6673C14.3769 44.1845 14.1194 43.6695 14.0872 43.0902C14.0872 43.058 14.0228 42.9936 13.9906 42.9936C13.186 42.4786 12.3492 41.9958 11.5445 41.4487C11.0295 41.1268 10.5467 40.7406 10.0318 40.3866C9.61335 40.0969 9.16275 39.8072 8.71214 39.5175C8.5834 39.4532 8.45466 39.3888 8.3581 39.2922C8.29373 39.2279 8.22936 39.1635 8.19717 39.0991C8.29373 39.1313 8.3581 39.1635 8.45466 39.2279C8.61559 39.2922 8.74433 39.3888 8.90526 39.4532C9.00182 39.4853 9.13056 39.4853 9.22712 39.4853C9.16275 39.3888 9.09838 39.2922 9.034 39.1957C9.034 39.1635 9.00182 39.1313 8.96963 39.1313C8.61559 39.0991 8.45466 38.8738 8.3581 38.5841C8.3581 38.552 8.32591 38.552 8.29373 38.5198C8.29373 38.552 8.29373 38.5841 8.26154 38.6163C8.22936 38.6807 8.19717 38.7129 8.19717 38.7773C8.16498 38.7451 8.1328 38.6807 8.10061 38.6485C7.9075 38.4232 7.71438 38.1335 7.45689 37.9404C6.90973 37.5542 6.36257 37.2323 5.78322 36.8783C5.75104 36.8783 5.75104 36.8139 5.75104 36.7817C5.78322 36.7174 5.8476 36.653 5.87978 36.5886C5.91197 36.5242 5.87978 36.4599 5.91197 36.4277C5.87978 36.4599 5.81541 36.4921 5.81541 36.5242C5.71885 36.7495 5.59011 36.6852 5.46137 36.5242C5.30044 36.2668 5.13951 36.0093 4.97858 35.7518C4.94639 35.6874 4.88202 35.5908 4.81765 35.5265C4.10956 34.8828 3.43365 34.239 2.629 33.7562C2.14621 33.4344 1.66343 33.1125 1.18064 32.8229C1.05189 32.7585 0.955335 32.6619 0.826591 32.5654C0.569103 32.3401 0.569103 32.2113 0.697847 31.9216C0.826591 31.6963 0.923149 31.471 1.05189 31.2779C1.14845 31.1492 1.27719 31.0526 1.40594 31.0204C1.82435 30.8917 2.01747 30.602 2.11403 30.1836C2.11403 30.1192 2.14621 30.0227 2.1784 29.9583C2.21059 29.8618 2.27496 29.7974 2.30714 29.7008C2.30714 29.7974 2.30714 29.8939 2.30714 29.9905C2.30714 30.0549 2.33933 30.1514 2.37152 30.1836C2.69338 30.4089 3.01523 30.602 3.33709 30.8273C3.53021 30.9883 3.72332 31.2136 3.81988 31.4389C4.04518 31.986 4.49579 32.2435 5.04295 32.2757C5.36481 32.2757 5.71885 32.2113 6.04071 32.1791C6.0729 32.1791 6.10508 32.147 6.13727 32.1148C6.10508 32.1148 6.0729 32.0826 6.04071 32.0826C5.87978 32.0826 5.71885 32.1148 5.52574 32.1148C5.36481 32.147 5.20388 32.1148 5.17169 31.9216C5.17169 31.8573 5.33262 31.7607 5.42918 31.6964C5.62229 31.5676 5.8476 31.5032 5.97634 31.3745C6.13727 31.2136 6.33039 31.1492 6.55569 31.117C7.52127 31.0848 8.45466 31.0204 9.42024 30.9561C9.64554 30.9561 9.80647 30.9561 9.9674 31.117C10.1927 31.3101 10.2571 31.3101 10.3214 31.0204C10.3536 30.8917 10.418 30.9239 10.5146 30.8917C10.772 30.7951 10.9652 30.6342 11.1905 30.4733C11.2226 30.4733 11.2548 30.4411 11.2548 30.4089C11.2548 30.0227 11.5123 29.8618 11.7698 29.6686C11.8342 29.6364 11.802 29.4755 11.802 29.379C11.7376 29.1537 11.6733 28.9284 11.8342 28.7352C11.8664 28.6709 11.8342 28.5099 11.7698 28.4456C11.6733 28.3168 11.7054 28.2525 11.7376 28.0915C11.8342 27.8019 11.8986 27.48 11.9629 27.1581C11.9951 27.0616 12.0273 26.9972 12.0917 26.9328C12.2204 26.8041 12.3813 26.6432 12.5423 26.5466C12.7998 26.4179 13.0894 26.2569 13.4113 26.3535C13.54 26.3857 13.701 26.4822 13.8297 26.5788C13.9585 26.6753 14.0872 26.9006 14.2159 26.8685C14.4091 26.8363 14.6022 26.7075 14.7953 26.5788C14.8597 26.5144 14.924 26.3857 14.924 26.2891C14.924 26.0638 14.8918 25.8385 14.8918 25.6454C14.8918 25.4523 14.8918 25.2913 14.6344 25.227C14.4091 25.1948 14.3447 24.9051 14.5378 24.6798C14.7631 24.4223 14.7309 24.2292 14.57 23.9395C14.4734 23.8108 14.4734 23.6177 14.4412 23.4567C14.4091 23.2314 14.4412 23.0061 14.4091 22.7487C14.4091 22.6199 14.3447 22.459 14.2803 22.4268C13.9906 22.3302 14.055 22.1693 14.1194 21.9762C14.1516 21.8796 14.1838 21.7509 14.2159 21.6543C14.3125 21.3968 14.3125 21.2037 13.9906 21.1394C13.8297 21.1072 13.7975 20.9784 13.8619 20.8497C13.8941 20.7531 13.9585 20.6244 14.0228 20.5278C14.1838 20.3025 14.2803 20.1094 14.0872 19.8197C13.9585 19.6266 14.1194 19.4657 14.2803 19.3691C14.6665 19.1438 15.1171 19.176 15.5677 19.2082C15.6965 19.2082 15.8574 19.2082 15.9862 19.2082C16.1149 19.2082 16.2437 19.2082 16.3724 19.176C16.5333 19.1438 16.7264 19.1116 16.8874 19.0473C17.2092 18.8863 17.4023 18.8863 17.6598 19.1438C17.9173 19.4013 18.1748 19.4335 18.4645 19.2082C18.5932 19.1116 18.6254 19.176 18.722 19.2404C18.9795 19.4657 19.2691 19.691 19.6554 19.4335C19.7197 19.4013 19.8163 19.4335 19.9128 19.4335C20.2669 19.4979 20.4278 19.4335 20.5888 19.1117C20.6531 18.9829 20.7819 18.8542 20.8784 18.7254C20.9106 18.6932 20.975 18.6289 20.975 18.5967C20.8462 18.1139 21.2647 17.9851 21.49 17.7277C21.6831 17.5024 21.9727 17.3736 22.0371 17.0518C22.0371 16.9874 22.1337 16.923 22.1981 16.8908C22.4877 16.7621 22.5843 16.6011 22.5521 16.3115C22.5521 16.2793 22.6487 16.1505 22.6487 16.1505C22.9061 16.2471 23.0027 16.0218 23.1314 15.9252C23.1636 15.8931 23.1958 15.7321 23.1636 15.6678C22.9705 15.4746 23.1314 15.4103 23.2924 15.3137C23.7752 14.9597 24.3545 14.9275 24.9017 14.7665C24.9982 14.7344 25.127 14.7665 25.2235 14.7665C25.1913 14.8953 25.1913 15.024 25.1592 15.1206C25.0626 15.3459 24.9339 15.539 24.8373 15.7321C24.8051 16.1184 24.8051 16.1827 24.8051 16.2471C25.127 16.2149 25.1592 16.6333 25.3845 16.6655C25.6098 16.6977 25.7385 16.8264 25.9316 16.923C26.0925 17.0196 26.2857 17.0517 26.4466 17.1483C26.511 17.1805 26.511 17.3092 26.5753 17.3736C26.6075 17.438 26.6719 17.5345 26.7041 17.5989C26.7685 17.5345 26.8972 17.5024 26.9294 17.438C26.9938 17.2771 27.0903 17.2449 27.2512 17.3092C27.5087 17.4058 27.734 17.4058 27.6697 17.8242C27.6053 18.2426 28.1203 18.5967 28.5065 18.4679C28.6674 18.4036 28.764 18.4679 28.8605 18.5967C28.9571 18.7254 29.0537 18.661 29.0537 18.5323C29.0858 18.307 29.2146 18.0173 28.8284 17.953C28.7962 17.953 28.7318 17.7598 28.764 17.6955C28.8605 17.438 28.8927 17.1805 28.8605 16.8908C28.8284 16.7621 28.8605 16.6333 29.0537 16.6333C29.1824 16.6011 29.279 16.5368 29.3755 16.4724C29.5364 16.3437 29.6974 16.2149 29.9227 16.408C30.0514 16.5368 30.1158 16.408 30.1158 16.3115C30.148 16.0218 30.2767 15.9252 30.5664 15.9896C30.6308 16.0218 30.7595 15.9574 30.8239 15.8931C31.017 15.6356 31.371 15.6034 31.532 15.2493C31.5963 15.1206 31.6929 15.0884 31.7895 15.2815C31.886 15.5068 32.1113 15.5068 32.2722 15.3137C32.3688 15.185 32.4332 15.024 32.5297 14.9597C32.7872 14.7665 33.0769 14.5412 33.3666 14.5091C33.785 14.4447 34.0425 14.3159 34.1068 13.8975C34.1068 13.801 34.1712 13.7044 34.2034 13.6079C34.3643 13.4147 34.3965 13.1894 34.3643 12.9319C34.3321 12.8032 34.3643 12.7066 34.5253 12.8676C34.5253 12.8676 34.6218 12.8676 34.654 12.8354C34.7827 12.7066 34.9115 12.5457 35.0402 12.417C35.0724 12.3848 35.169 12.3204 35.2012 12.3204C35.4908 12.3848 35.8127 12.1917 36.038 12.256C36.4242 12.3848 36.7783 12.256 37.1323 12.3204C37.1967 12.3204 37.2933 12.2882 37.2933 12.2882C37.2611 11.9986 37.5186 11.902 37.6151 11.7089C37.6473 11.6767 37.5829 11.548 37.5186 11.5158C37.2611 11.3548 37.068 11.1295 37.0358 10.7755C37.0358 10.7111 37.0358 10.6467 37.0036 10.6467C36.9392 10.5824 36.7461 10.4858 36.7461 10.4858C36.8105 10.3249 36.8748 10.164 37.0036 10.0674C37.2289 9.90647 37.2289 9.68117 37.1967 9.48805C37.1967 9.26275 37.2289 9.10182 37.4542 8.97308C37.776 8.81215 37.9048 8.52248 37.8082 8.13625C37.776 7.97532 37.7439 7.7822 37.776 7.62127C37.8082 7.52471 37.937 7.42815 38.0657 7.39597C38.0979 7.36378 38.2266 7.46034 38.2588 7.49253C38.4841 7.94313 38.5163 7.94313 38.9347 7.65346C38.9991 7.58908 39.0957 7.5569 39.16 7.52471C39.321 7.39597 39.5785 7.17067 39.4497 7.04192C39.1278 6.78444 39.675 6.72006 39.4819 6.55913C39.4175 6.49476 39.3532 6.46258 39.2566 6.3982C39.0957 6.26946 39.0957 6.1729 39.2888 6.10853C39.5141 6.01197 39.6428 5.91542 39.5463 5.65793C39.5463 5.62574 39.5785 5.52918 39.6106 5.497C39.9969 5.23951 40.2544 4.75672 40.8015 4.78891C40.8337 4.78891 40.9303 4.69235 40.9303 4.66016C41.059 4.17737 41.2521 3.98426 41.7671 3.98426C41.8637 3.98426 41.9924 3.95207 42.089 3.8877C42.5074 3.59803 42.8292 3.72677 42.9902 4.17737C43.0545 4.30612 43.2155 4.40268 43.312 4.49923C43.4086 4.59579 43.7626 4.69235 43.312 4.75672C43.2798 4.75672 43.2155 4.85328 43.2477 4.88547C43.2798 4.94984 43.3764 5.01421 43.3764 5.01421C43.5695 4.91765 43.5695 5.01421 43.5695 5.14295C43.5695 5.40044 43.7304 5.52918 43.9235 5.65793C44.0523 5.75449 44.1489 5.88323 44.2132 6.01197C44.3098 6.20509 44.342 6.10853 44.4063 6.01197C44.5029 5.81886 44.5995 5.69011 44.7282 5.97979L44.7604 6.01197C45.0822 5.91542 45.3075 6.23728 45.5972 6.20509C45.8547 6.20509 46.08 6.23727 46.3375 6.26946C46.4019 6.26946 46.4662 6.26946 46.4662 6.30165C46.595 6.59132 46.9168 6.55913 47.1421 6.72006C47.2709 6.84881 47.5284 7.00974 47.7215 6.68788C47.7537 6.65569 47.8502 6.62351 47.9146 6.62351C48.1399 6.55913 48.3008 6.52695 48.4618 6.23728C48.6227 5.97979 48.8802 5.78667 49.0411 5.497C49.0733 5.46481 49.1377 5.43263 49.1699 5.43263C49.2342 5.497 49.3308 5.56137 49.3308 5.62574C49.2986 5.97979 49.4917 5.97979 49.7492 5.91542C49.8136 5.91542 49.9423 5.9476 50.0067 6.01197C50.1033 6.1729 50.232 6.20509 50.3929 6.14072C50.586 6.07634 50.586 5.9476 50.5539 5.78667C50.5217 5.69011 50.5539 5.59356 50.5539 5.52918C50.4895 5.17514 50.5217 5.0464 50.8435 4.82109C50.9723 4.72454 51.101 4.59579 51.1654 4.91765C51.1976 5.17514 51.8091 5.43263 52.0988 5.36825C52.2597 5.33607 52.4206 5.23951 52.5494 5.17514C52.8069 5.04639 53 4.91765 52.8391 4.56361C52.8069 4.49923 52.8712 4.30612 52.9356 4.30612C53.0644 4.24175 53.1609 4.3383 53.1931 4.49923C53.1931 4.53142 53.1931 4.56361 53.2253 4.62798C53.2575 4.78891 53.354 4.82109 53.4828 4.72454C53.6115 4.59579 53.7724 4.43486 53.8046 4.82109C53.8046 5.01421 53.9977 4.98202 54.1587 4.91765C54.3196 4.82109 54.4484 4.82109 54.5771 4.91765C54.6737 4.98202 54.8024 4.98202 54.899 4.94984C55.0599 4.88547 55.1886 4.88547 55.3817 4.91765C55.6714 4.98202 55.3174 4.66016 55.5427 4.59579C55.6392 4.56361 55.7358 4.46705 55.8323 4.40268C55.8645 4.37049 55.9611 4.40268 55.9611 4.43486C55.9933 4.69235 56.0576 4.62798 56.1542 4.46705H56.283C56.3473 4.75672 56.5083 4.66016 56.637 4.53142C56.7979 4.37049 56.991 4.27393 57.2163 4.30612C57.2485 4.30612 57.2807 4.27393 57.3129 4.27393L57.6348 3.91989C57.6669 3.91989 57.6991 3.91989 57.6991 3.91989C57.8601 4.113 57.9566 3.98426 58.1175 3.85552C58.2463 3.75896 58.4072 3.82333 58.2785 3.59803L58.3428 3.53366C58.4394 3.56584 58.5682 3.59803 58.6647 3.63021C58.7291 3.6624 58.7935 3.6624 58.8578 3.69459C58.8256 3.63021 58.8256 3.56584 58.7613 3.50147C58.536 3.4371 58.6003 3.4371 58.6647 3.34054C58.9544 3.01868 59.3406 3.01868 59.7268 3.05087C59.7912 3.05087 59.92 3.01868 59.92 2.9865C59.92 2.60026 60.274 2.63245 60.4671 2.47152C60.5315 2.40715 60.6602 2.40715 60.6602 2.34278C60.6924 2.14966 60.8212 2.11747 60.9821 2.0531C61.0465 2.02092 61.143 1.89217 61.143 1.8278C61.0465 1.40938 61.4005 1.28064 61.6258 1.05534C61.658 1.02315 61.8189 1.08752 61.8833 1.11971C61.9477 1.18408 62.012 1.28064 62.0764 1.3772C62.173 1.50594 62.3017 1.53813 62.4305 1.40938C62.4627 1.3772 62.527 1.28064 62.5592 1.28064C62.8489 1.34501 62.9133 1.11971 63.0098 0.894409C63.042 0.862223 63.1386 0.797852 63.1707 0.797852C63.3639 0.862223 63.5248 0.958781 63.7179 1.05534C63.7501 1.08752 63.8145 1.08752 63.8466 1.08752C64.1363 1.08752 64.426 1.05534 64.7157 1.02315C64.8444 1.02315 64.9088 1.05534 64.8122 1.21627C64.78 1.24845 64.7479 1.31283 64.7479 1.3772C64.8122 1.3772 64.9088 1.3772 64.941 1.34501C65.1019 1.24845 65.2306 1.21627 65.3916 1.34501C65.4238 1.3772 65.5525 1.3772 65.5847 1.34501C65.7778 1.21627 65.9709 1.21627 66.1962 1.24845C66.3571 1.28064 66.5181 1.21627 66.679 1.21627C66.7434 1.21627 66.8078 1.21627 66.9043 1.21627C66.8721 1.24845 66.8077 1.28064 66.7756 1.31283C66.3893 1.53813 66.0031 1.79562 65.6491 2.02092C65.3272 2.21403 65.1663 2.53589 65.0375 2.88994C64.8766 3.34054 64.7479 3.79114 64.5869 4.24175C64.5547 4.30612 64.4904 4.37049 64.426 4.37049C64.3294 4.37049 64.2329 4.3383 64.1363 4.30612C64.1685 4.24175 64.1685 4.17737 64.2329 4.14519C64.3616 4.08082 64.2651 4.04863 64.2329 3.98426C64.2007 3.91989 64.2007 3.82333 64.2329 3.75896C64.2651 3.72677 64.3616 3.72677 64.426 3.72677C64.6835 3.85552 64.6191 3.69459 64.5869 3.56584C64.5226 3.34054 64.3938 3.14742 64.426 2.85775C64.4582 2.53589 64.1363 2.40715 63.8466 2.56808C63.7501 2.63245 63.6857 2.69682 63.6213 2.76119C63.396 3.11524 63.1707 3.4371 62.9454 3.79114C62.9133 3.85552 62.9133 3.95207 62.9454 3.98426C63.2029 4.14519 63.2351 4.43486 63.396 4.69235C63.5248 4.88547 63.6535 5.04639 63.8145 5.17514C63.911 5.2717 64.0719 5.2717 64.1363 5.11077C64.1685 5.04639 64.1041 4.91765 64.0398 4.82109C64.0076 4.75672 63.911 4.75672 63.8466 4.72454C63.8145 4.69235 63.8145 4.62798 63.7823 4.59579C63.8466 4.56361 63.911 4.53142 63.9432 4.56361C63.9754 4.69235 64.0398 4.78891 64.1363 4.91765C64.1685 4.91765 64.1685 4.88547 64.2007 4.88547C64.1685 4.88547 64.1685 4.88547 64.1363 4.91765ZM3.20835 33.6919C3.20835 34.0459 3.46584 34.2069 3.69114 34.4C3.75551 34.4643 3.85207 34.5287 3.94863 34.5931C3.91644 34.4965 3.85207 34.4 3.7877 34.3034C3.75551 34.2712 3.72332 34.2069 3.69114 34.2069C3.43365 34.1103 3.36928 33.9172 3.36928 33.6919C3.36928 33.6597 3.30491 33.6275 3.30491 33.5631C3.27272 33.6275 3.24054 33.6597 3.20835 33.6919Z" />
<path id="Vector_2" d="M72.3439 10.0674C72.537 10.1318 72.698 10.4214 72.6658 10.6467C72.6014 10.9686 72.4083 11.0651 72.1186 10.9364C72.0864 10.9364 72.0542 10.9042 72.0221 10.9042C71.9255 10.9042 71.7968 10.9364 71.7002 10.9364C71.7646 10.8398 71.8611 10.7433 71.9255 10.6467C71.9899 10.5502 72.0221 10.4536 72.1186 10.3571C72.1508 10.2605 72.2474 10.1639 72.3439 10.0674Z" />
<path id="Vector_3" d="M68.0313 43.8625C67.9991 43.8625 67.967 43.8303 67.967 43.8303C67.9348 43.7016 67.8704 43.5728 67.9348 43.4763C67.9991 43.3797 68.1601 43.3153 68.2888 43.251C68.2888 43.251 68.4176 43.4119 68.4176 43.4441C68.321 43.605 68.2244 43.7338 68.0957 43.8625H68.0313Z" />
<path id="Vector_4" d="M69.1572 41.6094C69.2216 41.7381 69.2537 41.7703 69.2859 41.8347C69.2859 41.8669 69.2537 41.899 69.2537 41.899C69.2216 41.8669 69.1572 41.8347 69.125 41.7703C69.125 41.7703 69.1572 41.7381 69.1572 41.6094Z" />
<path id="Vector_5" d="M70.8631 10.0673C70.8309 10.0994 70.7665 10.1316 70.7665 10.0994C70.7343 10.0673 70.7343 10.0351 70.7021 10.0029C70.7343 10.0029 70.7665 9.9707 70.7987 9.9707C70.7987 9.9707 70.8309 10.0351 70.8631 10.0673Z" />
</g>
</g>
<defs>
<clipPath id="clip0_29_1644">
<rect width="71.9999" height="64.2753" fill="white" transform="translate(0.666016 0.862305)"/>
</clipPath>
</defs>
</svg>
