<svg width="87" height="33" viewBox="0 0 87 33" xmlns="http://www.w3.org/2000/svg">
<g id="Frame">
<g id="Vector">
<path d="M64.4423 25.1639C65.2763 25.1999 66.5274 24.12 66.5274 23.4721C66.5274 22.8962 66.5274 22.3203 66.3757 21.7803C66.262 21.4204 65.8071 21.1684 65.6175 20.8085C65.5038 20.6285 65.5796 20.3045 65.5038 20.1245C65.428 19.9446 65.2005 19.8726 65.011 19.7286C64.8593 19.9806 64.6698 20.2325 64.5181 20.4845C64.3665 20.7005 64.2906 21.0604 64.0632 21.1684C62.8879 21.7443 63.0396 22.8962 62.9259 23.8321C62.8121 24.732 63.6462 25.0559 64.4423 25.1639ZM63.8213 22.7976C63.973 22.5816 64.0632 22.2483 64.8166 22.0812C65.3142 22.0812 65.563 22.4642 65.563 23.0364C65.563 23.5081 65.1364 23.9844 64.8166 23.9916C64.139 24.007 63.5037 23.4154 63.8213 22.7976Z" />
<path fill-rule="evenodd" clip-rule="evenodd" d="M60.6133 25.3439C55.3816 28.1875 49.1643 27.8995 43.0227 27.4676C41.2788 27.3596 39.5349 27.2516 37.9048 27.2156C37.6422 27.2043 37.3778 27.1948 37.1123 27.1852C35.6906 27.1338 34.2362 27.0813 32.8626 26.7477C30.4363 26.1718 28.2754 24.8039 26.342 23.2921C25.3942 22.5362 24.4843 21.7443 24.0673 20.6285C23.6503 19.5126 23.9157 18.1088 24.9772 17.5328C23.8778 17.2809 23.4228 15.913 23.764 14.9052C24.1052 13.8613 24.9772 13.1054 25.8491 12.4215C22.4372 10.7657 18.5703 9.90179 14.7033 9.97378C13.9987 9.99685 13.298 10.0458 12.5999 10.0946C11.1196 10.198 9.65114 10.3005 8.1827 10.1538C5.68059 9.90179 3.06474 9.18188 1.35876 7.4541C0.828011 6.91417 0.221428 5.79831 0.486809 4.75444C0.676361 3.99853 1.62414 3.67457 2.45818 3.60258C5.6198 3.38816 8.80496 3.30785 11.9896 3.22756C19.4974 3.03827 27.0023 2.84905 34.1895 0.902918C34.2887 0.874374 34.3879 0.845603 34.4872 0.816822C35.6395 0.482656 36.7968 0.147013 38.0185 0.147013C38.9312 0.114915 39.8139 0.311795 40.6932 0.507946C40.8 0.531765 40.9067 0.555573 41.0134 0.578959C47.4204 2.01878 53.8652 3.27862 60.3479 4.35849C59.8172 3.96254 60.1205 3.09864 60.6891 2.81068C61.211 2.54641 61.8606 2.5853 62.4621 2.62131C62.516 2.62454 62.5696 2.62774 62.6226 2.6307C64.2937 2.71421 65.9648 2.44656 67.6359 2.17892C68.846 1.9851 70.0561 1.79129 71.2663 1.73081C73.2946 1.61497 75.3475 1.86612 77.3929 2.11634C80.4319 2.48812 83.4543 2.85787 86.3547 2.01878C87.113 9.75781 87.1509 17.5328 86.5064 25.3079C86.4746 25.7499 86.4724 26.2761 86.4701 26.8364C86.464 28.2833 86.457 29.9572 85.9377 30.9952C85.3774 32.1712 84.4729 31.9967 83.3314 31.7765C83.0055 31.7136 82.6603 31.647 82.2983 31.6071C78.5072 31.2111 74.6403 31.3191 70.8871 31.931C70.7642 31.947 70.6403 31.9645 70.5161 31.982C69.7976 32.0835 69.0638 32.1872 68.385 32.003C67.551 31.7871 66.8307 31.0672 66.9444 30.2752C66.961 30.1726 66.9886 30.0614 67.0167 29.9479C67.1168 29.5439 67.2238 29.112 66.8686 28.9434C65.845 28.8354 64.8119 28.7274 63.7789 28.6195C62.7458 28.5115 61.7127 28.4035 60.6891 28.2955C60.6702 27.8096 60.6607 27.3146 60.6512 26.8197C60.6418 26.3247 60.6323 25.8298 60.6133 25.3439ZM60.4996 6.69819C59.8172 5.33036 58.3387 4.71844 56.7085 4.35849C56.064 4.2145 55.3437 4.10652 54.6992 4.03453C51.2114 3.60258 47.7616 2.99066 44.3496 2.16276C44.2339 2.13446 44.1178 2.10594 44.0013 2.07732C41.5991 1.4871 39.0436 0.859225 36.7295 1.44285C36.2746 1.55084 35.7818 1.76681 35.668 2.19876C35.9903 2.21675 36.3125 2.24375 36.6348 2.27075C36.957 2.29774 37.2792 2.32474 37.6015 2.34274C30.7775 3.4586 23.8019 3.99853 16.8264 3.85455C15.689 3.81855 14.5138 3.81855 13.3386 3.89054C10.5856 4.0581 10.067 4.22566 8.02022 4.88697C7.86846 4.936 7.70831 4.98774 7.53822 5.0424C6.55254 5.36636 5.11534 5.58921 3.35885 5.12595C3.19521 5.08279 3.11004 5.12595 3.35885 4.88714C3.97778 4.84143 5.63832 4.90205 6.59347 4.75444C7.66946 4.52698 6.74599 3.98677 6.84229 3.93192C3.85648 3.93192 1.83405 3.80911 1.20712 4.57446C0.941734 4.89842 1.05547 5.90629 1.28294 6.23025C2.45818 7.95804 4.08833 8.49797 6.21133 8.96591C8.5239 9.46985 10.9502 9.36186 13.3386 9.21788C13.8504 9.18188 14.3622 9.15489 14.874 9.12789C15.3857 9.10089 15.8975 9.0739 16.4093 9.0379L16.437 9.03636C17.0712 9.00091 17.6696 8.96745 18.3049 9.0739C18.7598 9.14589 19.2527 9.28987 19.7076 9.43385C19.787 9.46129 19.8667 9.48887 19.9464 9.5165C21.1225 9.92393 22.3319 10.3429 23.5745 10.4777C24.9014 10.6217 26.342 10.3697 27.3276 9.46985C27.4786 9.34089 27.6114 9.19483 27.7454 9.04754C27.9481 8.82482 28.1532 8.59932 28.4271 8.42598C28.882 8.13801 29.5265 8.06602 29.8677 8.46197C28.9199 9.54184 27.6688 10.3697 26.3041 10.8737C28.7682 11.5576 31.1945 12.2055 33.6208 12.8534C34.2653 13.0334 35.1373 13.1054 35.251 12.3855C35.3647 11.9175 34.9856 11.4856 34.4928 11.3416C33.8862 11.1256 33.0143 10.2617 33.545 9.75781L34.417 9.93779C33.962 9.43385 34.2653 8.53397 34.9477 8.38998C35.5539 10.2861 36.5963 12.0229 37.6329 13.7504C37.6983 13.8594 37.7637 13.9683 37.8289 14.0773C38.1701 14.6532 38.5872 15.2651 39.2316 15.5171C39.914 15.7691 40.8239 15.3371 40.7481 14.6892C41.3546 15.1211 40.8618 16.021 40.2552 16.453C40.1767 16.5042 40.095 16.5555 40.0122 16.6075C39.4552 16.9569 38.8476 17.3381 38.8146 17.9648C41.3546 17.6768 43.7051 16.165 44.9183 14.0053C45.4111 14.0413 45.7523 14.5812 45.7144 15.0492C45.6765 15.5171 45.3732 15.913 45.032 16.273C42.9469 18.4327 39.5728 19.0447 36.4641 18.9007C35.0951 18.8525 33.726 18.6827 32.3536 18.5126C30.6477 18.301 28.9366 18.0888 27.2139 18.1088C26.4178 18.1448 25.5838 18.2168 25.0151 18.7207C24.4464 19.2246 24.3706 20.2685 25.053 20.6285C24.6739 20.0525 25.2046 19.2606 25.887 19.0806C26.5694 18.9007 27.2897 19.1166 27.9721 19.3686C28.1617 19.4406 28.3133 19.5126 28.4271 19.6566C28.5787 19.8366 28.5408 20.0885 28.5029 20.3045C28.3512 21.3124 28.3512 22.5002 29.0715 23.2921C29.7539 24.12 31.422 24.12 31.8011 23.1481C31.8599 22.9919 31.8932 22.8218 31.9258 22.655C31.9983 22.2839 32.0677 21.9293 32.4077 21.7803C32.6768 22.3339 32.7337 22.9505 32.7901 23.563C32.8291 23.986 32.868 24.407 32.9764 24.8039C33.2796 25.7758 34.4549 26.7117 35.3647 26.1358C35.232 25.9738 35.1088 25.8028 34.9856 25.6318C34.8624 25.4608 34.7392 25.2899 34.6065 25.1279L37.3361 26.2078C36.8054 25.9198 36.3883 25.4878 36.1609 24.9479L39.6107 26.3157L37.5636 24.6959C38.1322 24.9299 38.6914 25.1639 39.2506 25.3979C39.8098 25.6318 40.369 25.8658 40.9376 26.0998L39.8761 24.588C41.5442 25.3799 43.2502 26.0638 45.032 26.5317C45.6765 26.7117 46.3589 26.8557 47.0033 26.7477C47.3853 26.6872 47.7316 26.5366 48.0822 26.3841C48.3579 26.2641 48.6363 26.143 48.9368 26.0638C49.5325 25.9095 50.1283 25.9389 50.724 25.9683C50.9623 25.98 51.2006 25.9918 51.4389 25.9918C52.8467 25.9918 54.1771 25.588 55.4992 25.1866C56.0286 25.026 56.5565 24.8657 57.0876 24.7319C57.6922 24.5942 58.2814 24.5589 58.8749 24.5234C59.2117 24.5033 59.5499 24.4831 59.893 24.444C60.7555 24.331 60.7314 23.7972 60.6992 23.0857C60.6904 22.8903 60.681 22.6814 60.6891 22.4642C60.8787 18.0368 60.9166 13.5733 60.8787 9.14589C60.8787 8.31799 60.8787 7.4541 60.4996 6.69819ZM67.0961 25.1639C67.2098 24.192 67.3235 23.2201 67.3994 22.2483C67.4373 21.8883 67.4836 21.5283 67.5299 21.1684C67.6226 20.4485 67.7153 19.7286 67.7405 19.0087C67.7657 18.3401 67.7241 17.6873 67.6822 17.0294C67.6609 16.6955 67.6396 16.3603 67.6268 16.021C67.6041 15.5675 67.6223 15.1139 67.6405 14.6604C67.6526 14.358 67.6647 14.0557 67.6647 13.7533C67.6647 13.3023 67.6242 12.8642 67.5835 12.4235C67.556 12.1256 67.5284 11.8265 67.5131 11.5216C67.4968 11.1974 67.5015 10.8799 67.5061 10.5633C67.5123 10.1416 67.5185 9.7216 67.4752 9.28987C67.4537 8.96311 67.3833 8.64795 67.3127 8.33122C67.2588 8.08969 67.2047 7.84725 67.1719 7.59808C67.1338 7.25469 67.1244 6.90222 67.1149 6.54523C67.1055 6.19123 67.0959 5.83279 67.0582 5.47435C67.0582 5.33036 67.0582 5.0424 66.9444 4.61046C66.8686 4.17851 66.679 3.71057 66.6032 3.63858C66.2871 3.33839 65.9358 3.36087 65.5688 3.38434C65.2758 3.40309 64.9728 3.42247 64.6698 3.27862C64.4183 3.15925 64.0742 3.21582 63.6951 3.27815C63.3883 3.3286 63.0585 3.38281 62.7363 3.35061C62.5102 3.37447 62.2673 3.3667 62.0189 3.35875C61.8925 3.3547 61.7647 3.35061 61.6369 3.35061H60.8408C60.8526 3.40107 60.8644 3.45065 60.8761 3.49963C60.9393 3.76514 60.9983 4.01299 61.0303 4.2865C61.0497 4.39688 61.0295 4.50727 61.0101 4.61285C60.9916 4.71384 60.9739 4.81043 60.9924 4.89842C61.0114 5.00641 61.0683 5.09639 61.1251 5.18638C61.182 5.27637 61.2388 5.36636 61.2578 5.47435C61.4094 6.23025 61.4853 6.98616 61.5611 7.74206C61.599 8.246 61.599 8.74994 61.599 9.25387C61.599 9.36056 61.5949 9.47115 61.5907 9.58307C61.5823 9.81101 61.5736 10.0445 61.599 10.2617C61.6116 10.4177 61.6285 10.5737 61.6453 10.7297C61.679 11.0417 61.7127 11.3536 61.7127 11.6656C61.7127 12.5654 61.6748 13.4652 61.6369 14.365C61.6206 14.6135 61.583 14.8555 61.5456 15.0964C61.4964 15.4138 61.4474 15.7296 61.4474 16.057C61.4474 16.579 61.4568 17.1009 61.4663 17.6228C61.4758 18.1448 61.4853 18.6667 61.4853 19.1886C61.5232 20.6285 61.5232 22.0683 61.5232 23.5081C61.5232 23.8727 61.5329 24.228 61.5425 24.5788C61.5519 24.9207 61.5611 25.2583 61.5611 25.5958C61.5611 25.9373 61.5263 26.2622 61.492 26.5818C61.4757 26.7339 61.4596 26.8848 61.4474 27.0357C61.4474 27.0824 61.4394 27.1405 61.4312 27.2001C61.4141 27.3242 61.3961 27.455 61.4474 27.5036C61.553 27.6039 61.757 27.6421 61.9374 27.6759C61.9511 27.6785 61.9647 27.681 61.9781 27.6836C62.3723 27.7709 62.762 27.8669 63.1502 27.9625C63.8821 28.1428 64.609 28.3219 65.3522 28.4395C65.7443 28.4927 66.1571 28.3887 66.56 28.2872C66.7025 28.2513 66.8437 28.2157 66.9823 28.1875C66.9823 28.1755 66.9781 28.1355 66.9725 28.0822C66.9613 27.9755 66.9444 27.8156 66.9444 27.7196C66.9444 27.5169 66.9403 27.3103 66.9361 27.1024C66.9276 26.6824 66.9191 26.2571 66.9444 25.8478C66.9867 25.6068 67.056 25.4245 67.0961 25.1639ZM27.4224 12.3675C27.4129 12.3855 27.4035 12.4035 27.4035 12.4215H27.2139C27.0617 12.9995 26.5945 13.3056 26.1188 13.6172C25.6466 13.9266 25.166 14.2414 24.9772 14.8332C24.9358 14.9706 24.8719 15.0974 24.8108 15.2185C24.6479 15.5415 24.505 15.8247 24.8634 16.165C25.1667 16.417 25.5079 16.6689 25.887 16.7769C25.9129 16.7851 25.9394 16.7939 25.9663 16.8028C26.2945 16.9119 26.6832 17.0409 26.6832 16.309C26.6832 15.985 26.9106 15.2651 27.176 15.0851C27.2116 15.0589 27.246 15.0341 27.2789 15.0105C27.561 14.8075 27.7328 14.6839 27.6309 14.3292C27.7174 14.3292 27.804 14.3269 27.8893 14.3246C28.1403 14.3179 28.3806 14.3115 28.5787 14.3652C28.7152 14.4084 28.8107 14.5294 28.9063 14.6503C28.9699 14.731 29.0336 14.8116 29.1095 14.8692C29.1757 14.9111 29.2548 14.9408 29.3393 14.9726C29.3999 14.9953 29.4632 15.0191 29.5265 15.0492C29.5557 14.9102 29.6076 14.7927 29.6646 14.6636C29.6815 14.6254 29.6987 14.5862 29.716 14.5452C29.7229 14.5225 29.7297 14.4995 29.7366 14.4763C29.8061 14.2422 29.8813 13.9891 30.0193 13.8253C30.5122 13.2494 30.2847 13.0334 29.6023 12.8894C29.2421 12.7994 28.882 12.7004 28.5218 12.6015C28.1617 12.5025 27.8015 12.4035 27.4414 12.3135C27.4414 12.3315 27.4319 12.3495 27.4224 12.3675ZM27.0068 19.9463C26.9506 19.8657 26.8997 19.7926 26.8727 19.7286C26.6735 19.7421 26.4904 19.7454 26.3413 19.7482C26.093 19.7528 25.9392 19.7556 25.9629 19.8006C25.9371 19.8799 25.9071 19.9583 25.8772 20.0359C25.7312 20.4161 25.5915 20.7798 26.0008 21.1684C26.1632 21.3226 26.2688 21.5173 26.3785 21.7194C26.448 21.8475 26.5191 21.9786 26.6073 22.1043C26.6453 22.1403 26.8348 22.2483 26.8727 22.2123C26.9865 22.1403 27.176 21.9963 27.176 21.8883C27.185 21.7771 27.1962 21.6638 27.2074 21.5494C27.2435 21.1828 27.2807 20.8052 27.2518 20.4485C27.2274 20.2629 27.1085 20.0923 27.0068 19.9463ZM69.1747 12.9927C69.006 12.837 68.8292 12.6738 68.7641 12.4575C68.7053 12.2621 68.7377 12.0667 68.7729 11.8545C68.7831 11.7931 68.7935 11.7303 68.802 11.6656C68.7262 11.3057 68.8779 10.9817 69.1053 10.8017C69.257 10.6578 69.4086 10.3698 69.3707 10.1898C69.2191 9.61389 70.0531 8.60601 70.963 8.82199C71.1146 8.57002 71.2663 8.31805 71.38 8.03008C71.4558 7.8861 71.4937 7.74212 71.5316 7.59814C71.5316 7.68358 71.5554 7.76903 71.5841 7.87231C71.5916 7.89955 71.5995 7.92804 71.6074 7.95809C71.6643 8.22806 71.7022 8.49803 71.7401 8.76799C71.778 9.03796 71.816 9.30793 71.8728 9.57789C71.8728 9.72187 71.9866 9.86586 72.1003 9.90185C72.1761 9.93785 72.4036 9.82986 72.4415 9.75787C72.4956 9.63446 72.5622 9.51104 72.6287 9.38763C72.7951 9.0791 72.9614 8.77056 72.9343 8.46203C72.9093 7.8686 72.7854 7.29082 72.6604 6.70805C72.5959 6.4071 72.531 6.10482 72.4794 5.79836C72.4794 5.69512 72.5168 5.58002 72.5559 5.45988C72.5849 5.37059 72.6149 5.27852 72.631 5.18644C72.6689 5.22243 72.7069 5.25843 72.7069 5.29443C73.086 6.33825 73.4271 7.38207 73.7683 8.4259C73.8062 8.49789 73.8537 8.56102 73.901 8.62401C73.9484 8.687 73.9958 8.75 74.0337 8.82199C74.0337 8.89397 73.9958 8.96596 73.9579 9.03795C73.9958 9.03795 74.1096 9.03796 74.1475 9.00196C74.4085 8.82847 74.6516 8.6379 74.9014 8.44202C75.0144 8.35343 75.1288 8.26375 75.2469 8.17407C75.2658 8.15607 75.2943 8.13807 75.3227 8.12007C75.3511 8.10208 75.3796 8.08408 75.3985 8.06608C75.4135 8.09448 75.4343 8.11727 75.4541 8.13889C75.4845 8.17207 75.5123 8.20246 75.5123 8.24606C75.5378 8.33101 75.5505 8.43233 75.5632 8.53485C75.5884 8.73638 75.6141 8.94252 75.7397 9.03796C75.9836 9.22323 76.2746 9.3638 76.5723 9.50761C76.7373 9.58731 76.9044 9.66801 77.0666 9.75787C77.1235 9.66788 77.1709 9.56889 77.2182 9.4699C77.2656 9.37092 77.313 9.27193 77.3699 9.18194C77.3699 9.14594 77.5594 9.14594 77.5594 9.18194C77.8627 9.75787 78.0902 9.64988 78.5072 9.25393C78.5104 9.2501 78.5139 9.24594 78.5177 9.24146C78.6909 9.03514 79.4219 8.16409 79.6445 9.36192C79.6445 9.36192 79.8341 9.39791 79.9099 9.36192L80.9335 8.92997C80.9335 8.92997 80.9714 9.00196 81.0093 9.00196C81.1231 9.05596 81.2368 9.11895 81.3505 9.18194C81.4643 9.24493 81.578 9.30793 81.6917 9.36192C81.6917 9.1383 81.7216 8.94303 81.7548 8.72579C81.759 8.69825 81.7633 8.67036 81.7675 8.64201C81.8054 8.57002 81.8054 8.49803 81.8054 8.42604C81.8583 8.45113 81.8927 8.49373 81.9216 8.52942C81.9341 8.54492 81.9456 8.55912 81.9571 8.57002C81.995 8.62401 82.0329 8.669 82.0708 8.714C82.1087 8.75899 82.1466 8.80399 82.1846 8.85798C82.2035 8.78599 82.2225 8.723 82.2414 8.66001C82.2604 8.59701 82.2793 8.53402 82.2983 8.46203L82.412 7.9221C82.4524 7.95085 82.4982 7.97961 82.545 8.00904C82.6741 8.09015 82.8113 8.17641 82.867 8.28205C82.9049 8.39004 82.9143 8.50702 82.9238 8.62401C82.9333 8.741 82.9428 8.85798 82.9807 8.96597C83.1025 9.28396 83.2732 9.60194 83.4338 9.90129C83.4732 9.97468 83.512 10.0469 83.5493 10.1178C83.5873 10.2258 83.6631 10.3698 83.7768 10.4418C83.8147 10.4418 83.9285 10.4058 84.0043 10.3698C83.9891 10.3266 83.9618 10.2834 83.9345 10.2402C83.8936 10.1754 83.8526 10.1106 83.8526 10.0458C83.8905 9.84786 83.9285 9.65888 83.9664 9.4699C84.0043 9.28092 84.0422 9.09195 84.0801 8.89398C84.1559 9.07395 84.2697 9.25393 84.3834 9.39791L84.6108 9.61389C84.71 9.69758 84.838 9.75694 84.9669 9.81673C85.2814 9.96266 85.6014 10.1111 85.5207 10.6218C85.4731 10.9605 85.5002 11.3133 85.5269 11.6626C85.5428 11.8701 85.5586 12.0763 85.5586 12.2776C85.5586 12.3135 85.3691 12.3495 85.2932 12.3495C85.1037 12.3495 84.9141 12.3135 84.7246 12.2776C84.7246 12.4575 84.7246 12.6735 84.8004 12.8535C84.8573 12.9615 84.9236 13.0605 84.99 13.1594C85.0563 13.2584 85.1226 13.3574 85.1795 13.4654C85.2292 13.6071 85.2464 13.7642 85.2629 13.9165C85.2716 13.9964 85.2802 14.075 85.2932 14.1493C85.1795 13.9693 85.0658 13.8254 84.952 13.6814C84.4971 12.9975 83.8147 12.6735 83.0944 13.0695C82.5148 13.3752 82.4549 13.1875 82.357 12.8815C82.3397 12.8272 82.3211 12.7692 82.2983 12.7095C82.2738 12.6164 82.1701 12.5685 82.0589 12.5171C81.998 12.4889 81.9349 12.4597 81.8813 12.4215C81.8434 12.4755 81.8149 12.5385 81.7865 12.6015C81.7581 12.6645 81.7296 12.7275 81.6917 12.7815C81.6828 12.7985 81.6738 12.8175 81.6644 12.8375C81.6338 12.9025 81.598 12.9785 81.5401 13.0335C81.4763 13.0638 81.3856 13.0176 81.3133 12.9807C81.2997 12.9738 81.2867 12.9672 81.2747 12.9615C81.1948 12.9362 81.1101 12.8931 81.0274 12.851C80.8747 12.7732 80.7286 12.6988 80.6302 12.7455C80.4786 12.8535 80.3648 13.1414 80.3648 13.3574C80.3269 13.9693 80.3269 14.5453 80.3269 15.1572C80.3269 15.1932 80.289 15.2652 80.2511 15.3372C80.2132 15.3012 80.1753 15.2292 80.1753 15.1932C80.0946 14.8738 80.0186 14.55 79.9424 14.2248C79.8037 13.6336 79.6641 13.0381 79.4929 12.4575C79.4437 12.3408 79.283 12.2696 79.1141 12.1946C79.0225 12.154 78.9284 12.1122 78.8484 12.0616C78.8322 12.1387 78.795 12.2158 78.7579 12.293C78.7084 12.3958 78.6589 12.4987 78.6589 12.6015C78.6847 13.0429 78.7457 13.4675 78.8059 13.8868C78.8341 14.0831 78.8621 14.2782 78.8863 14.4733C78.8863 14.5123 78.853 14.5618 78.8164 14.6161C78.7854 14.6622 78.7521 14.7117 78.7347 14.7612C78.6768 14.7062 78.641 14.6302 78.6104 14.5653C78.6009 14.5453 78.592 14.5263 78.583 14.5093C78.5109 14.2524 78.4559 13.9954 78.4017 13.7424C78.3421 13.4637 78.2834 13.1896 78.2039 12.9255C78.166 12.8175 77.8248 12.7095 77.6353 12.7455C77.5454 12.7626 77.4726 12.8362 77.4007 12.909C77.3208 12.9898 77.2421 13.0695 77.1424 13.0695C77.0569 13.0695 76.923 12.9778 76.8158 12.9044C76.733 12.8476 76.6661 12.8018 76.6496 12.8175C76.3842 13.0335 76.1568 13.2854 75.9293 13.5374C75.8535 13.6094 75.8535 13.7894 75.8535 13.8974C75.8282 13.8494 75.8029 13.7974 75.7776 13.7454C75.7271 13.6414 75.6765 13.5374 75.626 13.4654C75.5502 13.3574 75.3985 13.2134 75.2469 13.1414C75.1711 13.1055 74.9436 13.2854 74.9436 13.3934C74.9436 13.6634 74.9531 13.9333 74.9626 14.2033C74.972 14.4733 74.9815 14.7432 74.9815 15.0132C74.9815 15.0334 74.9576 15.065 74.9299 15.1015C74.9083 15.1301 74.8844 15.1616 74.8678 15.1932C74.8588 15.1847 74.8478 15.1762 74.8361 15.1672C74.7983 15.1382 74.754 15.1042 74.754 15.0492C74.6972 14.7792 74.6403 14.5183 74.5834 14.2573C74.5266 13.9963 74.4697 13.7354 74.4128 13.4654C74.3939 13.3934 74.3655 13.3214 74.337 13.2494C74.3086 13.1774 74.2802 13.1055 74.2612 13.0335C74.2253 13.0448 74.1857 13.0526 74.1471 13.0602C74.0631 13.0766 73.9839 13.0922 73.9579 13.1414C73.8821 13.3214 73.8442 13.5374 73.8442 13.7174C73.8063 14.6156 73.7685 15.478 73.7307 16.3403L73.7305 16.345C73.7305 16.417 73.6925 16.453 73.6546 16.489C73.6546 16.471 73.6452 16.453 73.6357 16.435C73.6262 16.417 73.6167 16.399 73.6167 16.381C73.5811 16.178 73.5538 15.975 73.5271 15.7757C73.4969 15.551 73.4673 15.331 73.4272 15.1212C73.3134 14.5093 73.1239 13.8614 72.9343 13.2494C72.8964 13.1774 72.7448 13.1054 72.7069 13.1054C72.5931 13.1774 72.4794 13.2854 72.4794 13.3574C72.4794 14.0283 72.2107 13.8486 71.9117 13.6487C71.8738 13.6234 71.8354 13.5977 71.797 13.5734C71.6833 13.5014 71.5695 13.4294 71.4558 13.4294C71.4179 13.4294 71.3421 13.5734 71.3421 13.6814L71.2283 14.4373C71.2283 14.3748 71.2307 14.3102 71.233 14.245C71.2401 14.047 71.2475 13.8438 71.1904 13.6814C71.0892 13.393 70.8978 13.1046 70.7233 12.8416C70.7017 12.8092 70.6805 12.7771 70.6597 12.7455C70.5839 12.8535 70.4986 12.9525 70.4133 13.0515C70.328 13.1504 70.2427 13.2494 70.1668 13.3574C70.1289 13.4294 70.0531 13.5374 70.0152 13.5374C69.9697 13.5374 69.9242 13.4985 69.8787 13.4596C69.8484 13.4337 69.8181 13.4078 69.7877 13.3934C69.7342 13.3629 69.6807 13.3353 69.6281 13.3082C69.4942 13.2391 69.3658 13.1728 69.257 13.0695C69.2301 13.044 69.2025 13.0184 69.1747 12.9927Z" />
</g>
</g>
</svg>
