<svg width="73" height="45" viewBox="0 0 73 45" fill="none" xmlns="http://www.w3.org/2000/svg">
<g id="Frame" clip-path="url(#clip0_29_1655)">
<g id="Group">
<path id="Vector" d="M4.43541 4.54073C4.30515 4.4756 4.17489 4.34534 4.04464 4.31278C3.84925 4.24765 3.81668 4.18252 3.91438 4.0197C4.01207 3.82431 4.17489 3.62893 3.97951 3.40097C3.94694 3.36841 3.94694 3.30328 3.97951 3.30328C4.24002 3.17302 4.04464 3.0102 4.04464 2.84738C4.01207 2.32635 3.97951 1.80532 3.97951 1.31685C3.97951 1.15403 3.97951 1.02377 4.01207 0.860949C4.04464 0.730691 4.10976 0.632998 4.17489 0.50274C4.27259 0.567869 4.33772 0.632998 4.43541 0.730691C4.79362 1.0889 5.21696 1.31685 5.70542 1.41454C5.86824 1.44711 5.9985 1.70762 6.22645 1.5448C6.16132 1.5448 6.19389 1.57737 6.19389 1.60993C6.19389 1.74019 6.16132 1.90301 6.16132 2.03327C6.12876 2.06583 6.0962 2.0984 6.0962 2.0984C6.06363 2.13096 6.03107 2.16353 6.03107 2.16353C5.9985 2.16353 5.96594 2.16353 5.96594 2.16353C5.93337 2.16353 5.90081 2.19609 5.86824 2.19609C5.86824 2.19609 5.86824 2.22866 5.90081 2.26122C5.93337 2.22866 5.96594 2.22866 5.9985 2.19609C6.03107 2.19609 6.03107 2.16353 6.06363 2.13096C6.0962 2.0984 6.12876 2.06583 6.12876 2.06583C6.16132 2.03327 6.19389 2.0007 6.19389 2.0007C6.35671 2.03327 6.38928 2.0984 6.32415 2.26122C6.29158 2.35891 6.29158 2.45661 6.25902 2.5543C6.12876 2.78225 5.93337 2.94507 5.70542 3.1079C5.67286 3.04277 5.67286 3.0102 5.64029 2.94507C5.60773 2.97764 5.57516 2.97764 5.57516 3.0102C5.60773 3.04277 5.64029 3.07533 5.70542 3.14046C5.77055 3.27072 5.86824 3.23815 5.96594 3.17302C6.03107 3.14046 6.12876 3.14046 6.19389 3.1079V3.14046H6.16132C6.32415 2.97764 6.22645 2.78225 6.25902 2.58686C6.35671 2.39148 6.51953 2.22866 6.58466 2.03327C6.64979 1.80532 6.61723 1.57737 6.58466 1.31685C6.58466 1.18659 6.51953 1.0889 6.64979 0.991207C6.78005 0.893513 6.71492 0.763256 6.64979 0.665562C6.58466 0.567869 6.51953 0.470176 6.48697 0.372482C6.4544 0.242225 6.51953 0.144531 6.68235 0.144531C6.81261 0.144531 6.91031 0.177096 7.008 0.20966C10.4273 1.25172 13.8791 2.03327 17.3961 2.65199C18.9591 2.91251 20.5548 3.23815 22.1179 3.4661C23.3228 3.66149 24.5277 3.79175 25.7326 3.88944C27.198 4.0197 28.6634 4.14996 30.1287 4.24765C31.4639 4.34534 32.8316 4.41047 34.1993 4.44304C35.4368 4.4756 36.7068 4.4756 37.9442 4.4756C38.0745 4.4756 38.1722 4.4756 38.0745 4.63842C38.107 4.67099 38.2047 4.70355 38.2047 4.70355C38.4652 4.50817 38.6281 4.73612 38.7909 4.86637C38.8886 4.89894 38.9537 4.96407 39.0514 4.99663C39.3445 5.06176 39.605 5.09433 39.8655 5.28971C39.9632 5.35484 40.126 5.28971 40.2563 5.25715C40.4517 5.22458 40.6471 5.19202 40.8424 5.15945C40.9076 5.15945 41.0378 5.22458 41.0378 5.25715C41.0378 5.45253 41.1681 5.41997 41.2984 5.45253C41.396 5.4851 41.4612 5.68049 41.5589 5.68049C41.6566 5.71305 41.7868 5.55023 41.8845 5.55023C42.0148 5.58279 42.145 5.68049 42.2427 5.77818C42.6661 6.13639 42.6986 6.13639 43.0894 5.77818C43.1871 5.68049 43.2522 5.68049 43.3825 5.74561C43.5779 5.84331 43.8058 5.84331 44.0338 5.90844C44.0989 5.90844 44.164 5.87587 44.2291 5.90844C44.392 5.97357 44.5548 6.03869 44.7176 6.10382C44.5874 6.20152 44.4897 6.36434 44.3268 6.3969C43.6756 6.62485 43.2197 7.04819 42.7638 7.53666C42.5684 7.76461 42.3078 7.96 42.1125 8.18795C42.0799 8.22051 42.0799 8.28564 42.0473 8.3182C42.1125 8.3182 42.145 8.35077 42.2102 8.35077C42.5358 8.25308 42.8614 8.18795 43.1545 8.05769C43.3499 7.99256 43.415 7.99256 43.3825 8.22051C43.3499 8.38333 43.3173 8.4159 43.5453 8.48103C43.9686 8.54616 44.2943 8.51359 44.5874 8.15538C44.6199 8.12282 44.6525 8.09025 44.6851 8.09025C45.4015 8.05769 45.7597 7.50409 46.2156 7.04819C46.411 6.85281 46.6715 6.88537 46.8994 6.82024C46.9646 6.82024 46.9971 6.85281 47.0623 6.88537C47.0297 6.91793 46.9971 6.9505 46.932 6.98306C46.5738 7.14589 46.4435 7.47153 46.2807 7.76461L46.3458 7.8623C46.8343 7.60179 47.1599 7.82974 47.453 8.15538C47.5833 8.3182 48.3648 8.48103 48.5277 8.4159C48.6253 8.35077 48.6579 8.25308 48.7556 8.22051C48.951 8.09025 49.1138 7.92743 49.3092 7.92743C49.6348 7.89487 49.9279 7.8623 50.221 7.69948C50.3513 7.63435 50.3838 7.66692 50.4164 7.82974C50.4815 8.22051 50.4815 8.22051 50.8723 8.15538C50.9049 8.15538 50.9374 8.15538 50.9374 8.15538C51.1002 8.09025 51.2631 8.02513 51.4585 7.99256C51.491 8.15538 51.5236 8.35077 51.5887 8.51359C51.6213 8.64385 51.719 8.74154 51.8492 8.80667C51.9144 8.83924 52.0446 8.70898 52.1423 8.67641C52.2074 8.64385 52.2726 8.67641 52.3377 8.70898C52.3703 8.70898 52.4028 8.83924 52.4028 8.83924C52.3703 8.90437 52.2726 8.96949 52.24 8.93693C51.8492 8.90436 51.4585 9.06719 51.0677 8.96949C50.9374 8.93693 50.9049 9.00206 50.9374 9.13232C50.9374 9.23001 50.9049 9.3277 50.9049 9.4254C50.742 9.29514 50.6118 9.13232 50.4164 9.03462C50.2861 8.96949 49.9931 8.96949 49.9605 9.03462C49.7977 9.26257 49.6023 9.23001 49.4069 9.23001C49.2115 9.26257 49.0161 9.26257 49.0161 9.52309C49.0161 9.62078 48.8859 9.71848 48.8207 9.7836C48.7556 9.81617 48.6905 9.84873 48.6253 9.8813C48.6253 9.81617 48.6253 9.71848 48.6579 9.65335C48.6579 9.58822 48.6905 9.55565 48.723 9.49053C48.6579 9.52309 48.5602 9.55565 48.5602 9.58822C48.4951 9.71848 48.4625 9.91386 48.2671 9.68591C48.2671 9.68591 48.202 9.68591 48.1694 9.71848C48.0066 10.1744 47.6159 10.5652 47.5833 11.0862C47.5833 11.1513 47.4856 11.1839 47.4205 11.2164C47.2576 11.3141 47.1599 11.5421 47.2251 11.7375C47.2251 11.7375 47.3228 11.77 47.3228 11.7375C47.5507 11.3467 48.0392 11.1187 48.1369 10.6303V10.5977C48.202 10.5652 48.2346 10.5326 48.2997 10.4675C48.2997 10.5326 48.3323 10.5977 48.3323 10.6303C48.202 10.9885 48.0718 11.3467 47.9741 11.7375C47.8764 12.1282 47.7787 12.5516 47.7135 12.9424C47.7135 12.9749 47.7135 13.0075 47.7135 13.0075C47.7135 13.1377 47.7135 13.3006 47.681 13.4308C47.453 13.9193 47.453 14.3752 47.7135 14.8637C47.7787 14.9939 47.8112 15.1893 47.7787 15.3521C47.681 15.7103 47.8438 15.9708 48.0392 16.2639C48.1369 16.4268 48.2346 16.557 48.3323 16.7198C48.5277 16.9803 48.7882 17.0129 49.0161 16.785C49.2441 16.557 49.5697 16.3616 49.5372 15.9708C49.5372 15.9057 49.5697 15.8406 49.6348 15.808C49.8302 15.6452 49.7977 15.4173 49.7651 15.1893C49.7325 14.9939 49.7 14.7985 49.7 14.6031C49.7 14.3101 49.6348 14.0821 49.4395 13.8542C49.3092 13.6588 49.2115 13.3983 49.2115 13.1377C49.2115 12.747 49.2441 12.3562 49.3743 11.998C49.4069 11.9003 49.3418 11.77 49.3418 11.6398C49.3418 11.5746 49.3092 11.477 49.3418 11.4118C49.5372 11.1839 49.7325 10.9559 49.9279 10.728L50.0256 10.7605C50.0582 10.8257 50.0256 10.8908 50.0582 10.9559C50.0907 11.0211 50.1559 11.0862 50.1884 11.1513C50.2536 11.0862 50.3187 11.0211 50.3513 10.9559C50.3838 10.8908 50.3187 10.7931 50.3187 10.728C50.2536 10.3372 50.2861 10.2721 50.6118 10.0767C50.742 10.0116 50.742 10.0116 50.6443 9.91386C50.4164 9.75104 50.449 9.58822 50.7095 9.45796C50.7746 9.4254 50.8723 9.39283 50.97 9.39283L51.0026 9.4254C51.5236 9.58822 52.0446 9.75104 52.5656 9.94643C52.6959 9.97899 52.7936 10.1418 52.8913 10.2395C52.9239 10.2721 52.9239 10.3372 52.9239 10.3372C52.5331 10.5326 52.8913 10.6303 52.989 10.7605C53.1518 10.9885 53.0867 11.5095 52.8913 11.7049C52.8587 11.7375 52.761 11.77 52.7936 11.8026C52.8913 12.1608 52.6308 12.2911 52.468 12.519C52.4354 12.5841 52.468 12.747 52.5331 12.8121C52.6308 12.9098 52.7936 12.9424 52.9239 12.8121C52.989 12.747 53.0541 12.6493 53.0867 12.5516C53.2169 12.2585 53.4774 12.1934 53.7054 12.0631C53.7705 12.0306 53.9008 12.0957 53.9334 12.1608C54.0636 12.3888 54.1939 12.6493 54.2264 12.9098C54.2916 13.1703 54.3567 13.4308 54.4869 13.6588C54.5846 13.8542 54.5195 14.1472 54.5195 14.4078C54.5195 14.4078 54.3893 14.4403 54.3241 14.4403C54.0962 14.4078 53.9659 14.5054 54.031 14.7334C54.0962 14.9614 54.031 15.0916 53.9334 15.287C53.8031 15.5149 53.7054 15.7429 53.5751 15.9708C53.4774 16.1662 53.5426 16.2639 53.738 16.3291C53.8682 16.3616 53.9985 16.4268 54.0962 16.4268C54.3241 16.4268 54.5195 16.4593 54.6823 16.6221C54.7149 16.6547 54.8126 16.6221 54.8777 16.6221C54.9103 16.6221 54.9428 16.557 54.9754 16.557C55.2685 16.4593 55.5941 16.3942 55.8547 16.2314C56.1152 16.1011 56.2454 15.808 56.5385 15.6778C56.8642 15.5149 57.1572 15.2544 57.4503 15.0265C57.8736 14.6683 58.3947 14.4403 58.7203 13.9519C58.7855 13.8542 58.8506 13.7565 58.9157 13.6588C59.046 13.4634 59.1437 13.3006 58.8506 13.1377C58.5901 12.9749 58.6226 12.6493 58.9157 12.519C59.3716 12.2585 59.8926 12.1608 60.4137 12.2585C60.4462 12.2585 60.5114 12.3236 60.5114 12.2911C60.9021 12.0631 61.4557 12.2259 61.7488 11.7049C61.7814 11.6072 61.9116 11.5746 61.9768 11.5095C62.0419 11.4118 62.0745 11.2816 62.0419 11.2164C61.9442 11.0862 61.8791 10.9559 62.0093 10.7931C61.9442 10.728 61.8791 10.6628 61.7814 10.6303C61.586 10.5326 61.586 10.5 61.7163 10.3372C62.0093 9.97899 62.3024 9.62078 62.5955 9.26257C62.6606 9.16488 62.7257 9.06719 62.8234 9.00206C63.0514 8.77411 63.2793 8.57872 63.6376 8.54616C63.9958 8.51359 64.354 8.4159 64.7122 8.35077C65.0704 8.28564 65.0704 8.3182 65.1681 8.64385C65.2006 8.74154 65.2332 8.83924 65.2658 8.96949C65.2658 8.83924 65.2983 8.74154 65.2658 8.61129C65.2006 8.18795 65.2332 8.15538 65.624 8.05769C66.0473 7.96 66.4381 7.82974 66.8614 7.73204C67.0243 7.69948 67.2196 7.60179 67.2196 7.4064C67.2196 7.11332 67.415 7.04819 67.5779 7.04819C67.9035 7.04819 67.8058 6.72255 67.9686 6.59229C67.8384 6.29921 68.0663 6.10382 68.1314 5.87587C68.164 5.74561 68.1966 5.64792 68.1314 5.51766C68.0338 5.28971 67.9686 5.0292 68.164 4.83381C68.1966 4.80125 68.1966 4.73612 68.1966 4.70355C68.0989 4.08483 68.4897 3.5638 68.6199 2.97764C68.6525 2.78225 68.8153 2.78225 68.9456 2.91251C69.2061 3.17302 69.2386 3.17302 69.4992 2.94507C69.6945 2.74969 69.8574 2.65199 70.1179 2.74969C70.3784 2.84738 70.5412 3.0102 70.6389 3.30328C70.8017 3.88944 70.9971 4.44304 71.1925 4.99663C71.2251 5.12689 71.2902 5.28971 71.453 5.28971C71.6484 5.32228 71.7461 5.45253 71.7787 5.61536C71.8112 5.87587 71.9415 6.00613 72.2346 5.97357C72.3974 5.941 72.5276 6.03869 72.5276 6.26665C72.5276 6.3969 72.5602 6.4946 72.5602 6.62485C72.5602 6.68998 72.4951 6.78768 72.4951 6.78768C72.2346 6.68998 72.2671 6.91793 72.2346 7.04819C72.2346 7.08076 72.202 7.11332 72.1694 7.14589C71.9741 7.24358 71.7787 7.37384 71.681 7.60179C71.681 7.60179 71.5833 7.60179 71.5182 7.56922C71.3228 7.47153 71.1599 7.53666 71.1274 7.76461C71.0948 7.89487 71.0622 7.92743 70.932 7.92743C70.8017 7.92743 70.704 7.96 70.6715 7.79717C70.6715 7.76461 70.6063 7.73205 70.6063 7.69948C70.5738 7.76461 70.5412 7.82974 70.5412 7.8623C70.5412 8.02513 70.5738 8.15538 70.6063 8.3182C70.6063 8.51359 70.704 8.74154 70.3784 8.70898C70.3458 8.70898 70.3133 8.77411 70.2807 8.83924C70.2156 8.96949 70.1179 9.06719 69.9551 8.96949C69.9225 8.96949 69.8248 9.00206 69.8248 9.03462C69.8574 9.26257 69.6945 9.3277 69.5317 9.36027C69.3363 9.39283 69.3363 9.45796 69.4015 9.62078C69.434 9.68591 69.4015 9.84873 69.3689 9.84873C69.1409 9.91386 69.2061 10.1092 69.1735 10.2395C69.1084 10.4675 69.1409 10.6954 69.0758 10.9234C69.0433 11.0862 69.0433 11.2164 69.2386 11.3141C69.4015 11.3793 69.3689 11.5095 69.2712 11.6398C69.2061 11.7049 69.1409 11.77 69.1084 11.8677C69.0107 12.0631 69.0433 12.1608 69.2712 12.1608C69.4992 12.1934 69.6294 12.2585 69.6945 12.4865C69.7271 12.5841 69.8574 12.6818 69.9551 12.7795C70.0853 12.9424 70.2156 12.8772 70.3458 12.747C70.4761 12.6167 70.4435 12.4865 70.3458 12.3888C70.3133 12.3562 70.2807 12.2911 70.2481 12.2259C70.3133 12.2259 70.411 12.2259 70.4761 12.2585C70.8017 12.4865 70.7692 12.8447 70.4435 13.04C70.3458 13.1052 70.2807 13.1703 70.183 13.2029C70.1179 13.2354 69.9876 13.2354 69.9225 13.2029C69.6945 12.9424 69.662 13.1703 69.5643 13.3331C69.4992 13.4308 69.434 13.496 69.3363 13.5611C69.2061 13.6262 69.1084 13.5936 69.1084 13.4308C69.1084 13.3006 69.0758 13.2029 68.9456 13.2354C68.8804 13.268 68.8479 13.3983 68.8479 13.4634C68.8804 13.8542 68.913 13.8542 68.5548 13.9844C68.1314 14.1472 67.7081 14.2449 67.2522 14.4078C67.2196 14.4078 67.1871 14.4078 67.1871 14.4403C66.8614 14.7334 66.5684 15.0265 66.2427 15.3196C66.2101 15.3521 66.2101 15.4173 66.2101 15.4498C66.2427 15.4498 66.3078 15.4498 66.3404 15.4498C66.4707 15.4173 66.5684 15.3521 66.6986 15.3196C66.9266 15.2219 67.1545 15.1567 67.3825 15.059C67.5779 14.9614 67.7407 14.7985 67.9361 14.6683C67.9035 14.766 67.9035 14.8637 67.8709 14.9939H67.8384L67.8709 14.9614C68.0663 14.8962 68.2291 14.7985 68.4245 14.7334C68.2291 14.9288 68.0012 15.1242 67.8058 15.287C67.6104 15.4173 67.415 15.5475 67.2196 15.6778C67.0243 15.7755 66.7963 15.808 66.6335 15.9383C66.4381 16.0685 66.2753 16.1662 66.0148 16.1011C65.9496 16.1011 65.8845 16.2314 65.7868 16.2965C65.8519 16.3291 65.8845 16.3616 65.9496 16.3942C66.2427 16.4593 66.2753 16.4919 66.2427 16.785C66.1776 17.3386 66.145 17.9247 65.8845 18.4457C65.8194 18.6086 65.7868 18.804 65.7217 18.9668C65.6891 19.0319 65.624 19.097 65.5589 19.1622C65.5263 19.097 65.4937 19.0319 65.4286 18.9993C65.3635 18.9342 65.2983 18.9016 65.2332 18.8691C64.9401 18.804 64.6796 18.7063 64.5819 18.3806C64.5819 18.3481 64.5168 18.3155 64.5168 18.3155C64.5168 18.3481 64.4842 18.4132 64.4842 18.4457C64.6145 18.7388 64.7447 18.9993 64.875 19.2599C64.9076 19.325 64.9727 19.3901 65.0378 19.4227C65.2658 19.5204 65.3635 19.7158 65.4937 19.9437C65.624 20.1717 65.5914 20.3345 65.4612 20.5624C65.396 20.6601 65.3309 20.7578 65.2983 20.8555C65.2006 21.2463 65.0704 21.6371 65.0053 22.0278C64.9727 22.1581 65.0378 22.3209 65.0378 22.4837C65.0378 22.5489 65.0378 22.614 65.0378 22.6466C65.0053 22.614 64.9401 22.614 64.9076 22.5814C64.7447 22.4512 64.6471 22.2883 64.6796 22.093C64.7122 21.9627 64.7122 21.7999 64.7773 21.6696C64.9076 21.2137 64.875 21.2463 64.5494 20.8555C64.4191 20.7253 64.354 20.6927 64.1912 20.6927C64.0609 20.6927 63.8655 20.595 63.9306 20.4322C64.0935 20.0088 63.9632 19.6506 63.8655 19.2599C63.8004 19.097 63.8004 18.9668 63.8655 18.804C63.8981 18.7714 63.8655 18.7063 63.8655 18.6737C63.8329 18.7063 63.7678 18.7063 63.7352 18.7388C63.6701 18.8365 63.5399 18.9342 63.5073 19.0319C63.377 19.6181 63.4096 20.2042 63.8004 20.6927L63.8329 20.7253C63.8655 20.8229 63.8981 20.9206 63.9306 21.0183C63.8329 21.0183 63.7352 21.0183 63.6376 20.9858C63.4747 20.9206 63.3119 20.8555 63.1165 20.7904C63.084 20.7904 63.0188 20.8229 62.9863 20.8229C62.9863 20.8555 63.0188 20.8881 63.0188 20.9206C63.084 20.9532 63.1491 21.0183 63.2142 21.0183C63.4422 21.116 63.7027 21.1812 63.9306 21.2789C63.9958 21.3114 64.0935 21.3765 64.0935 21.4417C64.126 21.5394 64.0935 21.6696 64.0935 21.7673C63.9958 21.7348 63.8981 21.7348 63.8004 21.7022C63.7352 21.6696 63.6701 21.6696 63.605 21.6371C63.5724 21.6045 63.5399 21.5719 63.5399 21.5719C63.4747 21.5394 63.4422 21.5068 63.377 21.5068C63.4422 21.5394 63.4747 21.5719 63.5399 21.5719C63.5724 21.6045 63.605 21.6371 63.605 21.6371C63.7027 21.7022 63.8004 21.7673 63.8655 21.8324C63.9632 21.8976 64.0609 21.9627 64.1912 22.0278C64.3214 22.1255 64.3214 22.1907 64.1586 22.2883C63.9958 22.386 63.9958 22.4512 64.1586 22.5814C64.3214 22.7117 64.2888 22.8094 64.0609 22.9722C64.0283 22.9396 63.9958 22.9071 63.9958 22.9071V22.8745L64.0283 22.9071C64.0609 22.9396 64.0935 22.9722 64.0935 22.9722C64.1586 23.135 64.2888 23.1676 64.4191 23.1025C64.5494 23.0373 64.647 22.9396 64.7447 23.0699C64.8424 23.2002 65.0378 23.3955 65.0053 23.5258C64.9401 23.7863 65.0704 23.9491 65.1681 24.112C65.2006 24.1445 65.2006 24.2097 65.2332 24.2748C65.1681 24.2748 65.103 24.2422 65.0704 24.2422C65.0053 24.2097 64.9401 24.2097 64.875 24.1771C64.6796 24.3073 64.4842 24.4376 64.2563 24.5353C64.1912 24.5679 64.0609 24.4376 64.0935 24.633C64.0935 24.6981 64.2237 24.7958 64.2888 24.7958C64.4517 24.7958 64.647 24.7632 64.8099 24.6981C64.9727 24.633 65.0704 24.6004 65.0704 24.8284C65.0704 24.8935 65.1355 24.9261 65.1355 24.9912C65.1681 24.9586 65.2006 24.9261 65.2332 24.8609C65.2658 24.7632 65.2658 24.6004 65.396 24.6656C65.4937 24.7307 65.5589 24.9586 65.5263 25.0563C65.4612 25.2843 65.2983 25.4471 65.1681 25.6425C65.1355 25.6751 65.0704 25.6751 65.0053 25.6751C64.7773 25.6751 64.5494 25.6751 64.3214 25.6751C64.2888 25.6751 64.2563 25.6751 64.2237 25.7076C64.2563 25.7402 64.2888 25.7727 64.3214 25.7727C64.354 25.8053 64.3865 25.8053 64.4191 25.8379C64.5168 25.903 64.7122 25.8704 64.647 26.0658C64.6145 26.2286 64.5819 26.4566 64.2888 26.3915C64.2563 26.3915 64.2237 26.424 64.1912 26.4566C64.2237 26.4892 64.2237 26.5543 64.2563 26.5543C64.4191 26.5543 64.5494 26.5543 64.7122 26.5217C64.7773 26.5217 64.8099 26.424 64.875 26.424C64.9727 26.424 65.0704 26.424 65.1681 26.424C65.1355 26.4892 65.103 26.5869 65.0704 26.652C64.875 27.0102 64.4842 26.9776 64.1912 27.173C64.1586 27.2056 64.0283 27.173 64.0283 27.2056C63.7027 27.6615 63.1817 27.9871 63.1165 28.6059C63.1165 28.7361 63.0514 28.7687 62.9211 28.7687C62.2373 28.8338 61.8465 29.192 61.7163 29.8433C61.6186 30.3318 61.3255 30.6574 61.0324 30.9831C60.9347 31.0807 60.8044 31.1133 60.6742 31.0482C60.8044 31.2436 60.7719 31.3738 60.5765 31.5041C60.4462 31.5692 60.2834 31.6995 60.1532 31.7646C60.1206 31.7646 60.088 31.7972 60.088 31.7972C60.1206 32.1554 59.6973 32.2531 59.6321 32.5461C59.5996 32.6113 59.567 32.709 59.5344 32.7415C59.2414 32.8392 59.339 33.1323 59.2414 33.3277C59.1762 33.458 59.1762 33.6208 59.1437 33.751C59.1437 33.8162 59.1111 33.9139 59.1437 33.9464C59.2739 34.1418 59.2088 34.2721 59.0785 34.3698C58.9483 34.4674 58.9808 34.5651 58.9808 34.728C59.0785 35.6398 59.5996 36.3887 59.9903 37.1703C60.088 37.3982 60.1206 37.6588 60.3811 37.7565C60.4137 37.7565 60.4462 37.8216 60.4462 37.8541C60.4137 38.3752 60.7719 38.766 60.9998 39.1893C61.2603 39.7103 61.5534 40.2639 61.9116 40.7198C62.3024 41.1757 62.3675 41.6968 62.3675 42.2504C62.3675 42.4132 62.3675 42.576 62.4001 42.7062C62.4327 42.9016 62.4327 43.0319 62.3024 43.1947C62.2047 43.2924 62.2373 43.5204 62.2373 43.6832C62.2373 44.0414 62.1722 44.1391 61.8791 44.2368C61.6837 44.3019 61.4557 44.367 61.2604 44.4322C61.1952 44.4322 61.0975 44.367 60.9998 44.3019C61.0324 44.2368 61.065 44.1716 61.0975 44.1065C61.0975 44.074 61.1301 44.0414 61.1301 44.0088C60.8696 44.0088 60.8044 43.7809 60.6742 43.6181C60.5765 43.4227 60.4137 43.325 60.1857 43.3575C59.9903 43.3901 59.8926 43.2924 59.795 43.097C59.7298 42.9668 59.6647 42.8039 59.5996 42.6737C59.567 42.6086 59.5344 42.5109 59.5019 42.4783C59.1762 42.3155 59.0785 42.0224 59.046 41.6968C59.046 41.6642 59.0134 41.6316 58.9808 41.6316C58.9808 41.6642 58.9483 41.6968 58.9483 41.7293C58.9483 41.9247 58.818 41.8921 58.7529 41.827C58.4272 41.5665 58.1993 41.2083 58.1342 40.785C58.1016 40.6873 58.1993 40.557 58.2644 40.4919C58.5249 40.3616 58.4272 40.2639 58.2319 40.1988C58.1993 40.1988 58.1993 40.1662 58.1667 40.1337C58.069 40.036 58.0365 39.9383 58.0039 40.1662C58.0039 40.2314 57.9062 40.2965 57.8736 40.3616C57.8085 40.2639 57.6457 40.1662 57.6457 40.1011C57.6457 39.7755 57.7108 39.4498 57.7434 39.0916C57.7434 38.7334 57.7108 38.3752 57.4177 38.0821C57.3852 38.0495 57.3526 37.9844 57.2875 37.9844C56.7339 37.8867 56.4734 37.4634 56.1803 37.0726C55.9849 36.8121 55.7244 36.747 55.4639 36.6493C55.3336 36.6167 55.1057 36.7144 55.0405 36.8121C54.9428 36.9423 54.8777 37.0075 54.7475 37.04C54.6498 37.0726 54.5521 37.1377 54.4218 37.2029C54.1613 37.3006 53.9008 37.4308 53.6403 37.5285C53.6077 37.5285 53.51 37.4959 53.51 37.4634C53.3798 37.2354 53.2821 37.0075 53.1518 36.7795C53.1192 36.7144 52.9239 36.6493 52.8913 36.6818C52.6959 36.8447 52.5656 36.6818 52.4028 36.6167C52.2726 36.5516 52.1423 36.4864 52.012 36.4213C51.8818 36.3562 51.7515 36.3236 51.5887 36.4539C51.3933 36.6167 51.1654 36.6167 50.9374 36.4864C50.8072 36.4213 50.7095 36.4539 50.5792 36.519C50.3513 36.6493 50.0907 36.7795 49.8302 36.8447C49.6348 36.9098 49.4395 36.747 49.4069 36.519C49.4069 36.4213 49.4069 36.3236 49.4069 36.2585C49.4069 36.2259 49.3743 36.1934 49.3743 36.1608C49.3418 36.1934 49.3092 36.2259 49.2766 36.2585C49.2441 36.3562 49.2115 36.4539 49.2115 36.5516C49.2115 36.8121 49.0812 36.8121 48.8533 36.8447C48.5277 36.9098 48.2346 36.8772 47.9089 36.8772C47.453 36.9098 47.0948 37.1377 46.8017 37.5285C46.7692 37.5611 46.7692 37.6262 46.7366 37.6913C46.8017 37.6913 46.8994 37.6913 46.9646 37.6913C47.0948 37.6588 47.1925 37.5936 47.3228 37.5285C47.4205 37.4959 47.4856 37.5611 47.4205 37.6262C47.3228 37.789 47.1925 37.9844 47.0948 38.1472C47.0297 38.2449 46.9971 38.2775 47.0948 38.3426C47.2576 38.4403 47.3228 38.6683 47.5833 38.6683C47.681 38.6683 47.8112 38.8962 47.8764 39.0265C47.9089 39.1242 47.8438 39.2219 47.681 39.1893C47.5833 39.1567 47.4856 39.1242 47.3879 39.0916C47.2576 39.0265 47.1274 38.9939 47.0297 38.9288C46.932 38.8636 46.8343 38.7985 46.7366 38.7334C46.6389 38.6683 46.5087 38.6031 46.411 38.5706C46.3784 38.7008 46.3458 38.7985 46.3458 38.9288C46.3458 38.9939 46.3458 39.0916 46.3458 39.1567C46.2481 39.1242 46.1179 39.1242 46.0528 39.059C45.7922 38.7985 45.7922 38.7985 45.5317 39.059C45.3363 39.2544 45.3363 39.2544 45.0758 39.059C45.0433 39.0265 44.9456 39.0265 44.9456 39.0265C44.8153 39.1893 44.7176 39.0916 44.5874 39.0265C44.5222 38.9939 44.4897 38.9288 44.4571 38.8636C44.5222 38.8311 44.5874 38.8311 44.6525 38.7985C44.6199 38.7334 44.5874 38.6683 44.5222 38.6683C44.1315 38.6031 43.9035 38.2124 43.5453 38.1147C43.4802 38.0821 43.3499 38.1798 43.2848 38.2449C43.3499 38.3101 43.3825 38.3752 43.4476 38.4077C43.5453 38.4729 43.6756 38.5054 43.7732 38.5706C43.643 38.766 43.5127 38.5706 43.415 38.5706C43.3173 38.5706 43.1871 38.5054 43.0894 38.538C42.7963 38.6357 42.5032 38.5706 42.2102 38.4403C41.6891 38.2124 41.1681 38.1798 40.6471 38.3426C40.354 38.4403 40.0935 38.538 39.8004 38.6031C39.6701 38.6357 39.5073 38.5706 39.3771 38.538C39.3445 38.538 39.3119 38.4729 39.2794 38.4729C39.1165 38.4403 38.9863 38.4403 38.8235 38.4077C38.8886 38.5054 38.9211 38.6031 38.9863 38.7008C39.1491 39.0265 39.084 39.1242 38.7583 39.2544C38.6932 39.287 38.6281 39.3195 38.6281 39.3847C38.5304 39.8406 38.1396 39.9383 37.7814 40.1011C37.6837 40.1337 37.586 40.1988 37.4883 40.1988C37.3581 40.2314 37.2278 40.557 37.0975 40.1662C37.0975 40.1337 36.8045 40.1988 36.6742 40.2639C36.6742 40.2639 36.6416 40.3942 36.6742 40.4593C36.7719 40.6221 36.6416 40.7524 36.5439 40.7524C36.316 40.7524 36.2509 40.8501 36.1532 40.9803C36.0555 41.078 35.8275 41.0129 35.7298 41.1106C35.6647 41.1757 35.7624 41.3711 35.7298 41.5339C35.6973 41.6642 35.5996 41.6968 35.4693 41.6642C35.4042 41.6316 35.3391 41.6642 35.2414 41.6642C35.2739 41.7293 35.3065 41.7619 35.3391 41.827C35.4693 42.055 35.3065 42.2504 35.2088 42.4132C35.1437 42.5109 35.046 42.576 35.1437 42.7388C35.1762 42.7714 35.1762 42.8691 35.1437 42.9016C34.8832 43.1947 35.1437 43.5204 35.1437 43.8134C35.1437 44.1391 35.3391 44.3996 35.5019 44.6601C35.5344 44.7252 35.5344 44.8881 35.5019 44.8881C35.3716 44.9532 35.2414 44.9858 35.1111 44.9858C35.046 44.9858 34.9483 44.8881 34.8832 44.8555C34.6552 44.7252 34.4273 44.6927 34.1667 44.7578C33.9388 44.8229 33.776 44.7578 33.5806 44.595C33.3201 44.367 32.9944 44.2368 32.7013 44.0414C32.6036 43.9763 32.506 43.9111 32.4734 43.8134C32.2454 43.325 32.0501 42.8039 31.8547 42.3155C31.7895 42.1527 31.7244 41.9898 31.5942 41.8596C31.4639 41.7293 31.3988 41.5339 31.3011 41.3711C31.2359 41.2734 31.2034 41.1106 31.1382 41.078C30.6172 40.7524 30.6172 40.1337 30.3893 39.6452C30.1939 39.1893 29.9008 38.8311 29.5426 38.538C29.4775 38.5054 29.4123 38.4403 29.3472 38.4077C29.1193 38.0495 28.761 38.0495 28.3703 38.0821C28.3051 38.0821 28.2074 38.1147 28.1749 38.0821C28.0121 37.9518 27.8492 38.0495 27.6539 38.0495C27.2305 38.017 27.1654 38.3101 27.0677 38.5706C27.0026 38.766 26.9049 38.9288 26.7746 39.0916C26.5467 39.3521 26.3187 39.3195 26.0256 39.1242C25.7977 38.9613 25.5697 38.7985 25.3092 38.6683C24.7882 38.3752 24.4625 37.9193 24.2997 37.3331C24.202 36.9749 24.1043 36.6167 23.9415 36.2585C23.8764 36.0957 23.681 35.9654 23.5182 35.8026C23.3879 35.6723 23.2577 35.5746 23.1274 35.4444C22.8343 35.1839 22.7366 34.728 22.3133 34.5977C22.2482 34.5651 22.2156 34.4349 22.183 34.3372C22.1179 34.1418 22.0202 34.0115 21.7923 33.979C21.141 33.9139 20.4897 33.8162 19.8384 33.751C19.4802 33.7185 19.4802 33.7185 19.4151 34.0767C19.3174 34.4349 19.3174 34.4349 18.9591 34.4023C17.7868 34.2395 16.5819 34.0767 15.4096 33.9139C15.2468 33.8813 15.084 33.8162 14.9537 33.7185C13.4232 32.8392 11.9252 31.9274 10.3947 31.0482C10.2319 30.9505 10.0039 30.8854 10.1667 30.6248C10.2319 30.4946 10.1016 30.4946 10.0039 30.4946C9.45033 30.4295 8.86417 30.3318 8.31058 30.2666C7.88724 30.2015 7.4639 30.1689 7.04056 30.1038C6.87774 30.0712 6.78005 30.0061 6.78005 29.8433C6.78005 29.7456 6.74748 29.6479 6.78005 29.5828C6.91031 28.7361 6.38928 28.2151 5.83568 27.7266C5.80312 27.694 5.73799 27.6615 5.70542 27.6615C5.47747 27.6615 5.41234 27.5638 5.5426 27.3684C5.64029 27.2056 5.5426 27.1404 5.41234 27.0753C5.34721 27.0428 5.28208 27.0102 5.18439 27.0102C4.85875 26.9451 4.6308 26.8148 4.50054 26.424C4.43541 26.2286 4.14233 26.0984 3.91438 25.9681C3.71899 25.8704 3.5236 25.8379 3.32822 25.8053C3.10027 25.7727 2.97001 25.6099 2.87232 25.4471C2.83975 25.4145 2.80719 25.3168 2.83975 25.2843C3.00257 25.0889 2.97001 24.8935 2.97001 24.6656C2.97001 24.5353 3.00257 24.4376 2.87232 24.3399C2.83975 24.3073 2.80719 24.2748 2.80719 24.2422C2.87232 23.8514 2.54667 23.6561 2.44898 23.363C2.38385 23.1676 2.28616 23.0048 2.25359 22.8419C2.18846 22.5814 2.09077 22.3209 1.92795 22.093C1.79769 21.9301 1.92795 21.6371 2.12333 21.4417C2.41641 21.1812 2.41641 21.0835 2.0582 20.9206C1.73256 20.7578 1.6023 20.4647 1.63487 20.1065C1.66743 19.9111 1.63487 19.7158 1.66743 19.5204C1.66743 19.4552 1.76512 19.4227 1.79769 19.3575C1.83025 19.4227 1.89538 19.4552 1.92795 19.5204C1.99308 19.6832 2.0582 19.8135 2.12333 19.9763C2.1559 20.0088 2.18846 20.0088 2.22103 20.0414C2.22103 19.9763 2.25359 19.9437 2.22103 19.8786C2.18846 19.7158 2.09077 19.5855 2.0582 19.4227C2.02564 19.2599 2.09077 19.0645 2.09077 18.9016C2.09077 18.8365 2.0582 18.804 2.0582 18.7388C1.99308 18.7714 1.92795 18.7714 1.92795 18.804C1.86282 18.9016 1.83025 19.097 1.66743 19.0319C1.56974 18.9993 1.50461 18.8365 1.47205 18.7388C1.40692 18.576 1.34179 18.4132 1.27666 18.2829C1.11384 17.827 0.885885 17.4037 0.788192 16.9478C0.723063 16.6547 0.788192 16.3291 0.885885 16.036C1.04871 15.5801 1.04871 15.1242 0.755627 14.7334C0.202032 14.0821 0.33229 13.7565 0.657934 13.4634C0.853321 13.3006 1.04871 13.1703 1.01614 12.8447C1.01614 12.8121 1.04871 12.747 1.08127 12.7144C1.30922 12.519 1.30922 12.2911 1.30922 12.0306C1.30922 11.6723 1.24409 11.3141 1.27666 10.9234C1.30922 10.5326 1.50461 10.1418 1.43948 9.71848C1.7 9.45796 1.73256 9.06719 2.09077 8.8718C2.25359 8.77411 2.35128 8.54616 2.41641 8.35077C2.64436 7.79717 2.77462 7.24358 3.03514 6.72255C3.23052 6.33177 3.26309 5.90844 3.58873 5.58279C3.68643 5.4851 3.65386 5.32228 3.68643 5.19202C3.68643 5.12689 3.68643 5.06176 3.71899 4.99663C3.78412 4.83381 3.84925 4.57329 3.97951 4.50817C4.01207 4.41047 4.24002 4.50817 4.43541 4.54073ZM5.47747 2.71712C5.51004 2.71712 5.51004 2.68456 5.5426 2.68456C5.5426 2.65199 5.51004 2.65199 5.51004 2.61943C5.51004 2.61943 5.47747 2.65199 5.44491 2.65199C5.44491 2.68456 5.47747 2.71712 5.47747 2.71712Z" />
<path id="Vector_2" d="M68.1328 14.6356L68.1654 14.603L68.1328 14.6356Z" />
</g>
</g>
<defs>
<clipPath id="clip0_29_1655">
<rect width="72" height="44.711" fill="white" transform="translate(0.333008 0.144531)"/>
</clipPath>
</defs>
</svg>
